<svg width="384" height="124" viewBox="0 0 384 124" fill="none" xmlns="http://www.w3.org/2000/svg">
<g filter="url(#filter0_d_3515_18453)">
<g clip-path="url(#clip0_3515_18453)">
<path d="M223.117 44.45C219.973 46.6905 216.429 48.3095 212.677 49.22V46.925C214.77 46.475 216.457 45.1475 217.177 43.2125L214.972 42.425C215.385 41.2702 215.323 39.9991 214.8 38.89C214.277 37.7809 213.336 36.9242 212.182 36.5075C211.258 36.174 210.251 36.1401 209.306 36.4107C208.361 36.6813 207.525 37.2426 206.917 38.015L205.072 38.87L205.882 40.6025C205.718 42.1167 206.157 43.6347 207.105 44.827C208.053 46.0192 209.433 46.7893 210.945 46.97V49.67C207.502 50.525 203.61 51.155 199.447 51.47V48.95C201.54 48.5 203.25 47.15 203.947 45.2375L201.765 44.4275C202.177 43.2727 202.115 42.0016 201.592 40.8925C201.069 39.7834 200.128 38.9267 198.975 38.51C198.045 38.1772 197.033 38.1459 196.084 38.4205C195.135 38.6952 194.296 39.2618 193.687 40.04L191.842 40.895L192.675 42.6275C192.51 44.1357 192.947 45.6481 193.891 46.8361C194.834 48.0241 196.208 48.7918 197.715 48.9725V51.5825C191.57 51.9456 185.405 51.6969 179.31 50.84V46.7225C181.766 46.3327 183.978 45.012 185.486 43.0344C186.995 41.0569 187.684 38.5745 187.41 36.1025L188.805 33.1775L185.722 31.7375C184.868 30.651 183.743 29.8084 182.46 29.2943C181.178 28.7803 179.782 28.6129 178.414 28.809C177.046 29.0051 175.754 29.5577 174.667 30.4114C173.58 31.2651 172.737 32.3898 172.222 33.6725C171.534 35.4272 171.518 37.3742 172.177 39.14L168.487 40.49C169.148 42.26 170.307 43.8009 171.824 44.9268C173.341 46.0527 175.152 46.7154 177.037 46.835V50.48C169.95 49.175 164.212 47.0375 160.95 44.3825C157.716 49.8292 156.014 56.0482 156.022 62.3825C156 82.025 172.11 98 192 98C211.89 98 228 82.0475 228 62.36C228 55.835 226.222 49.715 223.117 44.4725V44.45ZM198.48 35.315C201.09 35.315 203.182 33.245 203.182 30.68C203.182 28.07 201.067 26 198.48 26C195.892 26 193.8 28.07 193.8 30.6575C193.8 33.2225 195.892 35.2925 198.48 35.2925V35.315Z" fill="#6B7280"/>
<path d="M174.788 61.19C174.529 61.1922 174.275 61.2644 174.053 61.3991C173.831 61.5337 173.65 61.7258 173.528 61.955L166.576 77.0975H169.973L171.481 73.7225H178.118L179.626 77.0975H183.001L176.116 62.045C176.002 61.7887 175.815 61.5712 175.58 61.4193C175.344 61.2675 175.069 61.1877 174.788 61.19ZM172.628 71.09L174.788 66.185L176.948 71.09H172.651H172.628ZM213.376 61.19C213.151 61.19 212.926 61.2575 212.701 61.3475L211.801 61.7975L207.706 64.0025L209.011 66.4325L211.801 65.06V77.0975H214.951V62.9225C214.951 61.9775 214.276 61.2125 213.376 61.2125V61.19ZM187.951 61.19C187.726 61.19 187.501 61.2575 187.276 61.3475L186.376 61.7975L182.281 64.0025L183.608 66.4325L186.398 65.06V77.0975H189.548V62.9225C189.548 61.9775 188.851 61.2125 187.973 61.2125L187.951 61.19ZM199.831 61.2575C198.527 61.2662 197.256 61.6653 196.181 62.4032C195.106 63.1411 194.277 64.184 193.801 65.3975C193.275 66.6507 193.015 67.9989 193.036 69.3575C193.036 72.215 194.071 74.7575 196.186 76.2875C197.221 77.075 198.436 77.4575 199.831 77.4575C201.901 77.4575 203.588 76.6475 204.781 75.0725C206.041 73.4975 206.581 71.585 206.581 69.3575C206.645 67.3002 206.001 65.2831 204.758 63.6425C204.192 62.8747 203.448 62.2563 202.589 61.8407C201.731 61.4252 200.784 61.225 199.831 61.2575ZM202.396 72.98C202.136 73.4294 201.762 73.8017 201.311 74.0587C200.86 74.3157 200.349 74.4482 199.831 74.4425C198.751 74.4425 197.896 73.97 197.243 72.98C196.571 71.8942 196.234 70.634 196.276 69.3575C196.276 67.94 196.591 66.725 197.243 65.7575C197.918 64.745 198.751 64.2725 199.831 64.2725C200.911 64.2725 201.766 64.745 202.396 65.7575C203.048 66.725 203.363 67.94 203.363 69.3575C203.363 70.775 203.048 71.99 202.396 72.98ZM207.841 40.9625C208.068 41.1516 208.361 41.2435 208.656 41.2183C208.951 41.193 209.224 41.0526 209.416 40.8275C209.596 40.6025 209.686 40.31 209.641 40.0175C209.621 39.7327 209.492 39.4666 209.281 39.275C209.053 39.0859 208.76 38.994 208.465 39.0193C208.171 39.0445 207.898 39.1849 207.706 39.41C207.524 39.6306 207.436 39.9129 207.458 40.1975C207.458 40.49 207.616 40.76 207.841 40.9625ZM194.633 42.9875C195.083 43.37 195.803 43.325 196.186 42.8525C196.282 42.743 196.354 42.6152 196.4 42.4769C196.445 42.3386 196.462 42.1925 196.449 42.0475C196.436 41.9025 196.395 41.7615 196.326 41.6331C196.258 41.5046 196.164 41.3913 196.051 41.3C195.823 41.1109 195.53 41.019 195.235 41.0443C194.941 41.0695 194.668 41.2099 194.476 41.435C194.093 41.9075 194.161 42.605 194.633 42.9875ZM183.743 36.62C183.932 36.5521 184.106 36.4475 184.255 36.3124C184.404 36.1773 184.524 36.0141 184.61 35.8324C184.696 35.6506 184.745 35.4537 184.754 35.253C184.764 35.0523 184.734 34.8516 184.666 34.6625C184.519 34.283 184.23 33.9762 183.86 33.8079C183.489 33.6396 183.068 33.6233 182.686 33.7625C182.48 33.8176 182.288 33.915 182.122 34.0485C181.957 34.1819 181.82 34.3485 181.723 34.5376C181.625 34.7267 181.568 34.934 181.555 35.1465C181.542 35.3589 181.573 35.5718 181.647 35.7714C181.721 35.971 181.835 36.153 181.984 36.3058C182.132 36.4585 182.31 36.5787 182.508 36.6585C182.705 36.7384 182.917 36.7762 183.129 36.7696C183.342 36.763 183.551 36.712 183.743 36.62Z" fill="white"/>
</g>
</g>
<defs>
<filter id="filter0_d_3515_18453" x="-15" y="-10" width="414" height="154" filterUnits="userSpaceOnUse" color-interpolation-filters="sRGB">
<feFlood flood-opacity="0" result="BackgroundImageFix"/>
<feColorMatrix in="SourceAlpha" type="matrix" values="0 0 0 0 0 0 0 0 0 0 0 0 0 0 0 0 0 0 127 0" result="hardAlpha"/>
<feOffset dy="5"/>
<feGaussianBlur stdDeviation="7.5"/>
<feComposite in2="hardAlpha" operator="out"/>
<feColorMatrix type="matrix" values="0 0 0 0 0 0 0 0 0 0 0 0 0 0 0 0 0 0 0.1 0"/>
<feBlend mode="normal" in2="BackgroundImageFix" result="effect1_dropShadow_3515_18453"/>
<feBlend mode="normal" in="SourceGraphic" in2="effect1_dropShadow_3515_18453" result="shape"/>
</filter>
<clipPath id="clip0_3515_18453">
<rect width="72" height="72" fill="white" transform="translate(156 26)"/>
</clipPath>
</defs>
</svg>
