<svg width="1920" height="876" viewBox="0 0 1920 876" fill="none" xmlns="http://www.w3.org/2000/svg">
<mask id="path-1-inside-1_3474_17988" fill="white">
<path d="M360 0H438V876H360V0Z"/>
</mask>
<path d="M360 0H438V876H360V0Z" fill="#252526" fill-opacity="0.01"/>
<path d="M437 0V876H439V0H437ZM361 876V0H359V876H361Z" fill="#E5E7EB" mask="url(#path-1-inside-1_3474_17988)"/>
<mask id="path-3-inside-2_3474_17988" fill="white">
<path d="M462 0H540V876H462V0Z"/>
</mask>
<path d="M462 0H540V876H462V0Z" fill="#252526" fill-opacity="0.01"/>
<path d="M539 0V876H541V0H539ZM463 876V0H461V876H463Z" fill="#E5E7EB" mask="url(#path-3-inside-2_3474_17988)"/>
<mask id="path-5-inside-3_3474_17988" fill="white">
<path d="M564 0H642V876H564V0Z"/>
</mask>
<path d="M564 0H642V876H564V0Z" fill="#252526" fill-opacity="0.01"/>
<path d="M641 0V876H643V0H641ZM565 876V0H563V876H565Z" fill="#E5E7EB" mask="url(#path-5-inside-3_3474_17988)"/>
<mask id="path-7-inside-4_3474_17988" fill="white">
<path d="M666 0H744V876H666V0Z"/>
</mask>
<path d="M666 0H744V876H666V0Z" fill="#252526" fill-opacity="0.01"/>
<path d="M743 0V876H745V0H743ZM667 876V0H665V876H667Z" fill="#E5E7EB" mask="url(#path-7-inside-4_3474_17988)"/>
<mask id="path-9-inside-5_3474_17988" fill="white">
<path d="M768 0H846V876H768V0Z"/>
</mask>
<path d="M768 0H846V876H768V0Z" fill="#252526" fill-opacity="0.01"/>
<path d="M845 0V876H847V0H845ZM769 876V0H767V876H769Z" fill="#E5E7EB" mask="url(#path-9-inside-5_3474_17988)"/>
<mask id="path-11-inside-6_3474_17988" fill="white">
<path d="M870 0H948V876H870V0Z"/>
</mask>
<path d="M870 0H948V876H870V0Z" fill="#252526" fill-opacity="0.01"/>
<path d="M947 0V876H949V0H947ZM871 876V0H869V876H871Z" fill="#E5E7EB" mask="url(#path-11-inside-6_3474_17988)"/>
<mask id="path-13-inside-7_3474_17988" fill="white">
<path d="M972 0H1050V876H972V0Z"/>
</mask>
<path d="M972 0H1050V876H972V0Z" fill="#252526" fill-opacity="0.01"/>
<path d="M1049 0V876H1051V0H1049ZM973 876V0H971V876H973Z" fill="#E5E7EB" mask="url(#path-13-inside-7_3474_17988)"/>
<mask id="path-15-inside-8_3474_17988" fill="white">
<path d="M1074 0H1152V876H1074V0Z"/>
</mask>
<path d="M1074 0H1152V876H1074V0Z" fill="#252526" fill-opacity="0.01"/>
<path d="M1151 0V876H1153V0H1151ZM1075 876V0H1073V876H1075Z" fill="#E5E7EB" mask="url(#path-15-inside-8_3474_17988)"/>
<mask id="path-17-inside-9_3474_17988" fill="white">
<path d="M1176 0H1254V876H1176V0Z"/>
</mask>
<path d="M1176 0H1254V876H1176V0Z" fill="#252526" fill-opacity="0.01"/>
<path d="M1253 0V876H1255V0H1253ZM1177 876V0H1175V876H1177Z" fill="#E5E7EB" mask="url(#path-17-inside-9_3474_17988)"/>
<mask id="path-19-inside-10_3474_17988" fill="white">
<path d="M1278 0H1356V876H1278V0Z"/>
</mask>
<path d="M1278 0H1356V876H1278V0Z" fill="#252526" fill-opacity="0.01"/>
<path d="M1355 0V876H1357V0H1355ZM1279 876V0H1277V876H1279Z" fill="#E5E7EB" mask="url(#path-19-inside-10_3474_17988)"/>
<mask id="path-21-inside-11_3474_17988" fill="white">
<path d="M1380 0H1458V876H1380V0Z"/>
</mask>
<path d="M1380 0H1458V876H1380V0Z" fill="#252526" fill-opacity="0.01"/>
<path d="M1457 0V876H1459V0H1457ZM1381 876V0H1379V876H1381Z" fill="#E5E7EB" mask="url(#path-21-inside-11_3474_17988)"/>
<mask id="path-23-inside-12_3474_17988" fill="white">
<path d="M1482 0H1560V876H1482V0Z"/>
</mask>
<path d="M1482 0H1560V876H1482V0Z" fill="#252526" fill-opacity="0.01"/>
<path d="M1559 0V876H1561V0H1559ZM1483 876V0H1481V876H1483Z" fill="#E5E7EB" mask="url(#path-23-inside-12_3474_17988)"/>
<mask id="path-25-inside-13_3474_17988" fill="white">
<path d="M0 224H1920V291.333H0V224Z"/>
</mask>
<path d="M0 224H1920V291.333H0V224Z" fill="#252526" fill-opacity="0.01"/>
<path d="M0 225H1920V223H0V225ZM1920 290.333H0V292.333H1920V290.333Z" fill="#E5E7EB" mask="url(#path-25-inside-13_3474_17988)"/>
<mask id="path-27-inside-14_3474_17988" fill="white">
<path d="M0 315.333H1920V382.667H0V315.333Z"/>
</mask>
<path d="M0 315.333H1920V382.667H0V315.333Z" fill="#252526" fill-opacity="0.01"/>
<path d="M0 316.333H1920V314.333H0V316.333ZM1920 381.667H0V383.667H1920V381.667Z" fill="#E5E7EB" mask="url(#path-27-inside-14_3474_17988)"/>
<mask id="path-29-inside-15_3474_17988" fill="white">
<path d="M0 406.667H1920V474H0V406.667Z"/>
</mask>
<path d="M0 406.667H1920V474H0V406.667Z" fill="#252526" fill-opacity="0.01"/>
<path d="M0 407.667H1920V405.667H0V407.667ZM1920 473H0V475H1920V473Z" fill="#E5E7EB" mask="url(#path-29-inside-15_3474_17988)"/>
<mask id="path-31-inside-16_3474_17988" fill="white">
<path d="M0 498H1920V565.333H0V498Z"/>
</mask>
<path d="M0 498H1920V565.333H0V498Z" fill="#252526" fill-opacity="0.01"/>
<path d="M0 499H1920V497H0V499ZM1920 564.333H0V566.333H1920V564.333Z" fill="#E5E7EB" mask="url(#path-31-inside-16_3474_17988)"/>
<mask id="path-33-inside-17_3474_17988" fill="white">
<path d="M0 589.333H1920V656.667H0V589.333Z"/>
</mask>
<path d="M0 589.333H1920V656.667H0V589.333Z" fill="#252526" fill-opacity="0.01"/>
<path d="M0 590.333H1920V588.333H0V590.333ZM1920 655.667H0V657.667H1920V655.667Z" fill="#E5E7EB" mask="url(#path-33-inside-17_3474_17988)"/>
<mask id="path-35-inside-18_3474_17988" fill="white">
<path d="M0 680.667H1920V748H0V680.667Z"/>
</mask>
<path d="M0 680.667H1920V748H0V680.667Z" fill="#252526" fill-opacity="0.01"/>
<path d="M0 681.667H1920V679.667H0V681.667ZM1920 747H0V749H1920V747Z" fill="#E5E7EB" mask="url(#path-35-inside-18_3474_17988)"/>
</svg>
