<svg width="384" height="124" viewBox="0 0 384 124" fill="none" xmlns="http://www.w3.org/2000/svg">
<g filter="url(#filter0_d_3515_18457)">
<g clip-path="url(#clip0_3515_18457)">
<path d="M182.428 55.2553C184.283 55.3314 186.108 54.756 187.6 53.6252C188.297 53.033 188.868 52.3004 189.277 51.473C189.686 50.6455 189.924 49.741 189.976 48.8156H186.234C185.926 51.0226 184.475 52.1092 182.382 52.1092C179.579 52.1092 178.004 50.0968 178.004 46.4947V46.2666C178.004 42.6779 179.697 40.5985 182.355 40.5985C184.495 40.5985 185.598 41.6717 185.88 43.7713H189.818C189.769 42.8637 189.534 41.9767 189.128 41.1679C188.722 40.359 188.154 39.6463 187.462 39.0758C185.788 37.9362 183.789 37.4046 181.784 37.5664C179.78 37.7282 177.887 38.574 176.409 39.9679C175.618 40.8105 174.999 41.8055 174.588 42.8949C174.176 43.9843 173.981 45.1464 174.013 46.3136V46.5014C174.013 49.1846 174.742 51.3244 176.173 52.8471C177.604 54.3698 179.671 55.2553 182.428 55.2553ZM200.411 55.2553C202.938 55.2553 204.907 54.4906 206.246 53.149C206.948 52.4209 207.498 51.5538 207.86 50.6011C208.222 49.6482 208.39 48.6298 208.353 47.6082V45.7837H200.766V48.6144H204.553C204.562 49.0847 204.479 49.552 204.31 49.9896C204.141 50.4271 203.889 50.8261 203.568 51.1633C203.155 51.5442 202.672 51.8366 202.147 52.0233C201.621 52.2099 201.065 52.287 200.51 52.2501C199.83 52.304 199.148 52.1844 198.525 51.9022C197.902 51.6199 197.357 51.184 196.939 50.6336C196.142 49.4326 195.752 47.9975 195.83 46.5484V46.3606C195.83 42.8255 197.524 40.6186 200.464 40.6186C202.505 40.6186 203.746 41.5242 204.107 43.55H207.894C207.839 42.6389 207.586 41.7517 207.155 40.9525C206.724 40.1532 206.124 39.4618 205.4 38.9282C203.913 37.9597 202.173 37.4754 200.411 37.5397C199.281 37.5135 198.158 37.7171 197.105 38.1386C196.053 38.56 195.093 39.191 194.281 39.9948C193.48 40.8255 192.852 41.8139 192.436 42.9001C192.019 43.9863 191.823 45.1476 191.859 46.3136V46.5014C191.808 47.646 191.979 48.7897 192.361 49.867C192.742 50.9443 193.328 51.9342 194.084 52.7801C195.522 54.3162 197.668 55.2553 200.411 55.2553ZM166.118 30V62.8015H216.183V30H166.118ZM213.23 59.7696H169.071V33.0253H213.23V59.7696Z" fill="#6B7280"/>
<path d="M107.389 90.8992C104.685 90.8992 103.173 89.1112 103.173 85.9837V85.8178C103.173 82.6842 104.804 80.8594 107.362 80.8594C109.43 80.8594 110.49 81.7995 110.768 83.6305H114.526C114.482 82.835 114.258 82.0572 113.867 81.3478C113.476 80.6384 112.929 80.0135 112.26 79.5138C110.649 78.5132 108.722 78.0453 106.789 78.1858C104.857 78.3263 103.032 79.0669 101.609 80.288C100.85 81.0232 100.255 81.8901 99.8581 82.8391C99.4611 83.788 99.2704 84.8003 99.2965 85.8178V85.9899C99.2965 88.3185 99.999 90.211 101.384 91.5198C102.769 92.8285 104.784 93.6211 107.435 93.6211C109.226 93.6847 110.986 93.1796 112.425 92.1895C113.095 91.6719 113.643 91.0323 114.035 90.3104C114.427 89.5887 114.655 88.7998 114.705 87.9929H111.1C110.815 89.959 109.403 90.8992 107.389 90.8992ZM121.074 78.414L115.772 93.4306H119.219L120.325 90.0882H126.19L127.304 93.4306H131.135L125.859 78.414H121.074ZM121.074 87.6734L123.228 81.1851L125.395 87.6611L121.074 87.6734ZM139.2 78.414H133.613V93.4306H137.252V87.9745H139.313C140.885 88.0577 142.442 87.6487 143.733 86.8132C144.292 86.3897 144.734 85.8489 145.022 85.2356C145.31 84.6222 145.436 83.954 145.39 83.2864V83.2004C145.39 79.9992 143.17 78.414 139.2 78.414ZM141.851 83.3294C141.851 84.847 140.95 85.6151 139.114 85.6151H137.252V81.0253H139.114C140.857 81.0253 141.851 81.6397 141.851 83.2495V83.3294ZM148.426 93.4551H152.13V78.414H148.426V93.4551ZM167.645 78.4386H155.219V81.0867H159.593V93.4551H163.284V81.0499H167.665L167.645 78.4386ZM172.675 78.4386L167.373 93.4551H170.82L171.926 90.1127H177.798L178.912 93.4551H182.736L177.48 78.414L172.675 78.4386ZM172.675 87.698L174.829 81.2096L176.957 87.698H172.675ZM188.899 78.414H185.234V93.4306H195.5V90.764H188.873L188.899 78.414ZM210.975 87.8639H214.627C214.634 88.6935 214.289 89.4924 213.666 90.0882C213.27 90.4212 212.805 90.6767 212.299 90.8394C211.793 91.002 211.257 91.0684 210.723 91.0343C210.068 91.0821 209.411 90.9785 208.809 90.7329C208.208 90.4874 207.682 90.1075 207.277 89.6272C206.513 88.5767 206.14 87.3228 206.217 86.0575V85.8977C206.217 82.8256 207.847 80.8717 210.677 80.8717C212.665 80.8717 213.852 81.6643 214.19 83.4338H217.841C217.787 82.6387 217.544 81.8646 217.128 81.1676C216.712 80.4705 216.134 79.8678 215.436 79.4032C213.781 78.4659 211.843 78.0493 209.912 78.2153C207.981 78.3814 206.16 79.1213 204.719 80.3249C203.948 81.0532 203.344 81.9186 202.943 82.8689C202.542 83.8191 202.353 84.8348 202.386 85.8547V86.0267C202.336 87.0261 202.5 88.0247 202.87 88.9646C203.24 89.9044 203.808 90.7666 204.54 91.5013C205.919 92.8775 207.98 93.6701 210.631 93.6701C212.693 93.7678 214.713 93.1051 216.251 91.8269C216.921 91.1908 217.443 90.434 217.785 89.6033C218.127 88.7726 218.281 87.8858 218.239 86.9975V85.4H210.949L210.975 87.8639ZM232.276 85.7011C232.944 84.9597 233.285 84.0115 233.23 83.0468V82.9669C233.267 82.3085 233.132 81.6515 232.835 81.0523C232.538 80.453 232.09 79.9293 231.527 79.5261C230.44 78.7642 228.876 78.414 226.967 78.414H221.168V93.4306H224.807V87.6304H226.404L230.268 93.4244H234.171L229.897 87.016C230.81 86.793 231.636 86.3325 232.276 85.6888V85.7011ZM229.625 83.1574C229.625 84.5828 228.697 85.3263 226.861 85.3263H224.807V81.0253H226.874C228.664 81.0253 229.638 81.5537 229.638 83.0836L229.625 83.1574ZM243.926 78.1989C242.83 78.1747 241.738 78.3516 240.713 78.7196C239.691 79.0876 238.756 79.6394 237.962 80.3433C237.175 81.0629 236.558 81.9256 236.148 82.8774C235.739 83.8291 235.546 84.8491 235.583 85.8731V86.0452C235.534 87.0662 235.717 88.0853 236.118 89.0372C236.519 89.9891 237.131 90.8525 237.913 91.5724C238.696 92.2921 239.633 92.8522 240.661 93.2167C241.692 93.5811 242.792 93.7419 243.894 93.6887C245.006 93.7433 246.118 93.5809 247.159 93.2115C248.199 92.8424 249.144 92.275 249.931 91.5457C250.72 90.8165 251.334 89.9417 251.735 88.9783C252.136 88.0149 252.313 86.9842 252.257 85.953V85.7871C252.285 84.7747 252.092 83.7677 251.689 82.826C251.289 81.8844 250.685 81.0275 249.917 80.3064C248.303 78.9025 246.16 78.1415 243.946 78.1866L243.926 78.1989ZM248.434 85.9714C248.496 87.2709 248.07 88.55 247.227 89.5905C246.818 90.0166 246.316 90.3578 245.754 90.5914C245.192 90.825 244.582 90.9456 243.966 90.9456C243.35 90.9456 242.742 90.825 242.18 90.5914C241.618 90.3578 241.116 90.0166 240.705 89.5905C239.808 88.5759 239.348 87.2886 239.414 85.9776V85.8117C239.338 84.5108 239.767 83.2278 240.62 82.1927C241.046 81.7722 241.562 81.4379 242.134 81.2109C242.706 80.9839 243.322 80.8691 243.946 80.8737C244.568 80.8784 245.182 81.0023 245.75 81.2377C246.318 81.4732 246.828 81.815 247.247 82.2419C248.064 83.2654 248.478 84.5155 248.426 85.7871L248.434 85.9714ZM264.883 87.2372C264.883 89.9897 263.935 90.9237 261.754 90.9237C259.574 90.9237 258.747 89.8484 258.747 87.3293V78.414H255.053V87.5689C255.053 91.5812 257.453 93.664 261.734 93.664C266.149 93.664 268.575 91.5627 268.575 87.4461V78.414H264.903L264.883 87.2372ZM277.826 78.414H272.226V93.4306H275.877V87.9745H277.938C279.509 88.0544 281.063 87.6456 282.353 86.8132C282.911 86.3897 283.353 85.8489 283.642 85.2356C283.929 84.6222 284.055 83.954 284.009 83.2864V83.2004C284.009 79.9992 281.803 78.414 277.826 78.414ZM280.477 83.3294C280.477 84.847 279.568 85.6151 277.733 85.6151H275.877V81.0253H277.733C279.477 81.0253 280.477 81.6397 280.477 83.2495V83.3294Z" fill="#6B7280"/>
</g>
</g>
<defs>
<filter id="filter0_d_3515_18457" x="-15" y="-10" width="414" height="154" filterUnits="userSpaceOnUse" color-interpolation-filters="sRGB">
<feFlood flood-opacity="0" result="BackgroundImageFix"/>
<feColorMatrix in="SourceAlpha" type="matrix" values="0 0 0 0 0 0 0 0 0 0 0 0 0 0 0 0 0 0 127 0" result="hardAlpha"/>
<feOffset dy="5"/>
<feGaussianBlur stdDeviation="7.5"/>
<feComposite in2="hardAlpha" operator="out"/>
<feColorMatrix type="matrix" values="0 0 0 0 0 0 0 0 0 0 0 0 0 0 0 0 0 0 0.1 0"/>
<feBlend mode="normal" in2="BackgroundImageFix" result="effect1_dropShadow_3515_18457"/>
<feBlend mode="normal" in="SourceGraphic" in2="effect1_dropShadow_3515_18457" result="shape"/>
</filter>
<clipPath id="clip0_3515_18457">
<rect width="185.412" height="64" fill="white" transform="translate(99.2941 30)"/>
</clipPath>
</defs>
</svg>
