<svg width="241" height="120" viewBox="0 0 241 120" fill="none" xmlns="http://www.w3.org/2000/svg">
<g filter="url(#filter0_d_3575_23837)">
<g clip-path="url(#clip0_3575_23837)">
<path d="M58.7043 50.3006V61.6993H62.5222V51.1613H73.0822V48.0165H61.187C59.8187 48.0165 58.7043 49.0096 58.7043 50.3006ZM101.904 47.9282C100.558 47.9282 99.7525 48.7779 99.1346 49.9144L92.8118 61.611H97.0932L98.3512 59.2606H107.499L108.779 61.6H113.027L105.634 47.9282H101.904ZM99.8518 56.4248L102.875 50.7972L105.943 56.4137H99.8518V56.4248ZM137.347 55.6965V53.7765C137.347 51.8234 137.733 51.1944 139.333 51.1944H150.257C149.816 48.3144 147.83 47.9062 144.906 47.9062H139.741C136.1 47.9062 133.397 48.5572 133.397 53.0593V56.6124C133.397 61.5889 136.431 61.7986 139.797 61.7986H144.486C146.307 61.7986 147.73 61.7986 149.033 60.7834C149.816 60.1544 150.136 59.3158 150.268 58.5103H139.388C137.623 58.5103 137.347 57.7269 137.347 55.6744V55.6965ZM128.939 54.8137V54.6813C130.837 54.3834 131.19 53.2579 131.19 51.5255C131.19 48.5351 129.524 48.0165 126.666 48.0165H114.66V61.6993H126.743C129.788 61.6993 131.421 61.2358 131.421 57.8924C131.421 56.182 131.068 54.9572 128.939 54.8137ZM126.18 51.0179C127.25 51.0179 127.372 51.371 127.372 52.1765C127.372 53.28 127.041 53.5006 125.717 53.5006H118.478V51.0179H126.169H126.18ZM125.849 58.6979H118.478V56.0165H125.926C127.162 56.0165 127.593 56.1931 127.593 57.3186C127.593 58.422 127.085 58.6979 125.838 58.6979H125.849ZM151.89 51.1944H158.268V61.6993H162.086V51.1944H168.652V48.0165H151.879V51.1944H151.89ZM182.103 48.0165H170.439V61.6993H174.257V58.1903H182.092C186.108 58.1903 186.991 56.8882 186.991 53.0482C186.991 49.462 185.656 48.0165 182.103 48.0165ZM181.628 55.0124H174.257V51.1944H181.639C183.14 51.1944 183.074 51.6358 183.074 53.0482C183.074 54.8027 183.14 55.0124 181.639 55.0124H181.628ZM200.166 47.9172H195.421C192.133 47.9172 189.22 48.7006 189.22 52.9158V56.7779C189.22 60.9931 192.111 61.7986 195.421 61.7986H200.166C203.477 61.7986 206.39 60.9931 206.39 56.7779V52.9158C206.39 48.7006 203.333 47.9172 200.166 47.9172ZM202.462 56.2703C202.462 58.3006 201.557 58.5103 200.166 58.5103H195.421C194.042 58.5103 193.148 58.2896 193.148 56.2703V53.4234C193.148 51.3931 194.031 51.2055 195.421 51.2055H200.166C201.446 51.2055 202.462 51.3931 202.462 53.4234V56.2703ZM222.754 48.0165C221.253 48.0165 220.481 48.8993 219.421 49.9365L212.028 57.1972H211.984L212.095 48.0165H208.288V61.6993H210.715C212.216 61.6993 212.977 60.8165 214.026 59.7793L221.441 52.4965H221.485L221.375 61.6993H225.182V48.0165H222.754ZM78.0036 48.0165H77.9705C77.3487 48.0096 76.748 48.2415 76.2922 48.6645C75.8365 49.0874 75.5603 49.6691 75.5208 50.2896V57.7158C75.5208 58.8193 74.9801 59.1724 74.1746 59.1724H73.3691V61.6993H76.5139C78.4339 61.6993 79.3387 60.0551 79.3387 58.2675V51.1944H87.6036V61.6993H91.4215V48.0165H78.0036ZM221.43 44.0662H212.039V46.1737H221.43V44.0662ZM44.3484 59.6469L34.307 55.7848V74.9848H44.3484V59.6469ZM15.6477 61.3131V74.9958H30.0036V55.7627L15.6587 61.302L15.6477 61.3131Z" fill="#6B7280"/>
<path d="M15.6477 47.6082V56.8771L32.1553 50.5213L44.3484 55.2219V47.6082H15.6587H15.6477ZM64.4312 74.6426H61.5401C60.9443 74.6426 60.4698 74.5654 60.1167 74.4219C59.7836 74.2899 59.512 74.038 59.3553 73.7157C59.2008 73.3847 59.1125 72.9433 59.1015 72.3916V70.5599C59.1125 70.0082 59.2008 69.5557 59.3553 69.2137C59.5208 68.8826 59.7746 68.6399 60.1277 68.4854C60.4808 68.3309 60.9553 68.2537 61.5401 68.2537H64.4312C66.0312 68.2537 66.8256 68.8495 66.8256 70.0523H66.1415C66.1415 69.8095 66.0863 69.5999 65.987 69.4233C65.8577 69.2328 65.6668 69.0926 65.4463 69.0261C65.1216 68.925 64.782 68.8802 64.4422 68.8937H61.5401C61.0767 68.8937 60.7236 68.9378 60.4808 69.0371C60.3592 69.0798 60.2476 69.1469 60.1527 69.2341C60.0578 69.3214 59.9818 69.4271 59.9291 69.5447C59.8298 69.7875 59.7746 70.1295 59.7746 70.5599V72.3916C59.7746 72.7116 59.8077 72.9654 59.8739 73.1751C59.9291 73.3847 60.0284 73.5392 60.1608 73.6606C60.3043 73.7819 60.4808 73.8813 60.7015 73.9254C60.9222 73.9806 61.1981 74.0026 61.5401 74.0026H64.4312C65.0491 74.0026 65.4794 73.9144 65.7443 73.7268C65.998 73.5502 66.1305 73.2523 66.1305 72.844H66.8146C66.8146 73.2413 66.7374 73.5833 66.5718 73.8371C66.4174 74.113 66.1636 74.3116 65.7994 74.444C65.4574 74.5654 64.9939 74.6426 64.4201 74.6426H64.4312ZM72.1001 74.6206H71.3387L74.7594 68.3309H75.8077L79.2284 74.6206H78.4339L77.5843 73.0426H72.9498L72.1001 74.6206ZM73.3139 72.4137H77.2312L75.278 68.7723L73.3139 72.4137ZM83.8298 74.6206V68.3309H84.5249V71.0454H90.3732V68.3199H91.0684V74.6206H90.3843V71.6964H84.5249V74.6206H83.8408H83.8298ZM95.9236 74.6206V68.3309H96.6077V70.924H97.7112L102.202 68.3199H103.361L98.4394 71.1888L103.317 74.6206H102.147L97.7332 71.553H96.6077V74.6206H95.9236ZM107.587 68.3199H114.693V68.9599H111.471V74.6206H110.787V68.9599H107.587V68.3199ZM119.306 71.6413H122.329V72.3144H119.306V71.6523V71.6413ZM127.46 74.6206V68.3309H134.688V74.6206H134.004V68.9819H128.144V74.6206H127.46ZM139.631 74.6206V68.3309H145.468V68.9599H140.326V71.0564H145.347V71.6854H140.326V73.9916H145.49V74.6206H139.642H139.631ZM150.18 68.3199H157.286V68.9599H154.064V74.6206H153.38V68.9599H150.18V68.3199ZM161.954 74.6206V68.3309H167.802V68.9599H162.649V71.0564H167.681V71.6854H162.649V73.9916H167.802V74.6206H161.954ZM172.878 74.6095V68.3199H177.336C177.888 68.3199 178.329 68.3861 178.66 68.5185C179.002 68.6399 179.256 68.8495 179.41 69.1364C179.565 69.4233 179.653 69.7985 179.653 70.273C179.653 70.7364 179.576 71.0895 179.421 71.3433C179.256 71.6067 178.995 71.7963 178.693 71.873C178.362 71.9723 177.921 72.0164 177.336 72.0164H173.562V74.6095H172.878ZM173.562 71.3875H177.535C177.91 71.3875 178.197 71.3544 178.395 71.2992C178.488 71.2777 178.575 71.2371 178.651 71.1801C178.727 71.1231 178.79 71.051 178.837 70.9682C178.925 70.8137 178.969 70.5819 178.969 70.2619C178.969 69.7875 178.859 69.4454 178.66 69.2578C178.439 69.0592 178.097 68.9599 177.601 68.9599H173.562V71.3875ZM190.721 68.3199V68.9599H185.193V70.924H188.966C189.518 70.924 189.97 70.9902 190.313 71.1006C190.644 71.2109 190.886 71.4095 191.041 71.6854C191.195 71.9502 191.273 72.3254 191.273 72.7888C191.273 73.1199 191.239 73.4068 191.173 73.6385C191.107 73.8592 190.986 74.0468 190.831 74.1902C190.666 74.3447 190.456 74.444 190.191 74.5213C189.937 74.5875 189.606 74.6206 189.209 74.6206H184.508V68.3309H190.721V68.3199ZM185.193 73.9806H189.231C189.573 73.9806 189.838 73.9475 190.037 73.8923C190.224 73.8261 190.368 73.7047 190.456 73.5392C190.544 73.3626 190.588 73.1199 190.588 72.8109C190.588 72.4799 190.544 72.2371 190.456 72.0606C190.365 71.8788 190.207 71.7401 190.015 71.6744C189.74 71.5897 189.452 71.5524 189.165 71.564H185.193V73.9916V73.9806ZM202.119 68.3199H202.936L200.1 72.8109C199.846 73.2192 199.626 73.5282 199.46 73.7599C199.284 73.9806 199.118 74.1682 198.953 74.2895C198.787 74.4109 198.621 74.4992 198.423 74.5433C198.235 74.5985 197.993 74.6206 197.706 74.6206H197.474V73.9806H197.717C197.948 73.9806 198.147 73.9585 198.279 73.9254C198.423 73.8813 198.544 73.8151 198.644 73.7047C198.743 73.6164 198.864 73.4619 198.986 73.2523L195.631 68.3199H196.426L199.372 72.7337L202.108 68.3199H202.119ZM207.526 74.6095V68.3199H211.973C212.525 68.3199 212.966 68.3861 213.308 68.5185C213.639 68.6399 213.893 68.8495 214.059 69.1364C214.213 69.4233 214.29 69.7985 214.29 70.273C214.29 70.7364 214.213 71.0895 214.07 71.3433C213.904 71.6067 213.643 71.7963 213.342 71.873C213.01 71.9723 212.569 72.0164 211.984 72.0164H208.21V74.6095H207.526ZM208.21 71.3875H212.183C212.558 71.3875 212.845 71.3544 213.044 71.2992C213.136 71.2783 213.224 71.238 213.3 71.181C213.376 71.1239 213.439 71.0514 213.485 70.9682C213.562 70.8137 213.606 70.5819 213.606 70.2619C213.606 69.7875 213.496 69.4454 213.297 69.2578C213.088 69.0592 212.746 68.9599 212.249 68.9599H208.21V71.3875ZM224.862 68.3199V68.9599H219.896V74.6206H219.212V68.3309H224.862V68.3199Z" fill="#6B7280"/>
</g>
</g>
<defs>
<filter id="filter0_d_3575_23837" x="-7.47363" y="-10" width="255.655" height="150" filterUnits="userSpaceOnUse" color-interpolation-filters="sRGB">
<feFlood flood-opacity="0" result="BackgroundImageFix"/>
<feColorMatrix in="SourceAlpha" type="matrix" values="0 0 0 0 0 0 0 0 0 0 0 0 0 0 0 0 0 0 127 0" result="hardAlpha"/>
<feOffset dy="5"/>
<feGaussianBlur stdDeviation="7.5"/>
<feComposite in2="hardAlpha" operator="out"/>
<feColorMatrix type="matrix" values="0 0 0 0 0 0 0 0 0 0 0 0 0 0 0 0 0 0 0.1 0"/>
<feBlend mode="normal" in2="BackgroundImageFix" result="effect1_dropShadow_3575_23837"/>
<feBlend mode="normal" in="SourceGraphic" in2="effect1_dropShadow_3575_23837" result="shape"/>
</filter>
<clipPath id="clip0_3575_23837">
<rect width="209.655" height="32" fill="white" transform="translate(15.5264 44)"/>
</clipPath>
</defs>
</svg>
