<svg width="384" height="124" viewBox="0 0 384 124" fill="none" xmlns="http://www.w3.org/2000/svg">
<g filter="url(#filter0_d_3515_18448)">
<g clip-path="url(#clip0_3515_18448)">
<path d="M105.231 72.2354V84.0724H109.196V73.1292H120.162V69.8634H107.809C106.388 69.8634 105.231 70.8947 105.231 72.2354ZM150.092 69.7717C148.694 69.7717 147.858 70.6541 147.216 71.8343L140.65 83.9807H145.096L146.403 81.54H155.902L157.231 83.9693H161.643L153.965 69.7717H150.092ZM147.961 78.5951L151.101 72.751L154.286 78.5836H147.961V78.5951ZM186.898 77.8388V75.8449C186.898 73.8167 187.299 73.1635 188.961 73.1635H200.305C199.847 70.1728 197.784 69.7488 194.748 69.7488H189.385C185.603 69.7488 182.796 70.4249 182.796 75.1001V78.7899C182.796 83.9578 185.947 84.1755 189.442 84.1755H194.312C196.203 84.1755 197.681 84.1755 199.033 83.1213C199.847 82.4682 200.179 81.5973 200.317 80.7608H189.018C187.185 80.7608 186.898 79.9472 186.898 77.8159V77.8388ZM178.167 76.9221V76.7846C180.138 76.4752 180.504 75.3064 180.504 73.5073C180.504 70.402 178.774 69.8634 175.806 69.8634H163.339V84.0724H175.886C179.049 84.0724 180.745 83.5911 180.745 80.1191C180.745 78.343 180.378 77.071 178.167 76.9221ZM175.302 72.9802C176.413 72.9802 176.539 73.3469 176.539 74.1834C176.539 75.3293 176.196 75.5585 174.821 75.5585H167.304V72.9802H175.29H175.302ZM174.958 80.9556H167.304V78.1711H175.038C176.322 78.1711 176.769 78.3544 176.769 79.5232C176.769 80.6691 176.241 80.9556 174.947 80.9556H174.958ZM202.001 73.1635H208.624V84.0724H212.589V73.1635H219.407V69.8634H201.99V73.1635H202.001ZM233.375 69.8634H221.263V84.0724H225.228V80.4285H233.364C237.535 80.4285 238.452 79.0763 238.452 75.0886C238.452 71.3645 237.065 69.8634 233.375 69.8634ZM232.883 77.1283H225.228V73.1635H232.894C234.453 73.1635 234.384 73.6219 234.384 75.0886C234.384 76.9106 234.453 77.1283 232.894 77.1283H232.883ZM252.134 69.7603H247.206C243.792 69.7603 240.766 70.5738 240.766 74.9511V78.9617C240.766 83.339 243.769 84.1755 247.206 84.1755H252.134C255.571 84.1755 258.596 83.339 258.596 78.9617V74.9511C258.596 70.5738 255.422 69.7603 252.134 69.7603ZM254.517 78.4346C254.517 80.5431 253.577 80.7608 252.134 80.7608H247.206C245.774 80.7608 244.846 80.5316 244.846 78.4346V75.4782C244.846 73.3698 245.763 73.175 247.206 73.175H252.134C253.463 73.175 254.517 73.3813 254.517 75.4782V78.4346ZM275.59 69.8634C274.032 69.8634 273.229 70.7801 272.129 71.8572L264.452 79.3972H264.406L264.521 69.8634H260.567V84.0724H263.088C264.647 84.0724 265.437 83.1557 266.526 82.0786L274.226 74.5157H274.272L274.158 84.0724H278.111V69.8634H275.59ZM125.272 69.8634H125.238C124.592 69.8562 123.969 70.0971 123.495 70.5363C123.022 70.9755 122.735 71.5795 122.694 72.2239V79.9358C122.694 81.0816 122.133 81.4483 121.296 81.4483H120.46V84.0724H123.725C125.719 84.0724 126.659 82.365 126.659 80.5087V73.1635H135.242V84.0724H139.206V69.8634H125.272ZM274.215 65.7611H264.463V67.9498H274.215V65.7611Z" fill="#6B7280"/>
<path d="M111.687 97.5136H108.685C108.066 97.5136 107.574 97.4334 107.207 97.2844C106.861 97.1473 106.579 96.8857 106.416 96.5511C106.256 96.2073 106.164 95.7489 106.153 95.176V93.2738C106.164 92.7009 106.256 92.2311 106.416 91.8758C106.588 91.5321 106.852 91.28 107.218 91.1195C107.585 90.9591 108.078 90.8789 108.685 90.8789H111.687C113.349 90.8789 114.174 91.4977 114.174 92.7467H113.464C113.464 92.4946 113.406 92.2769 113.303 92.0936C113.169 91.8957 112.971 91.7501 112.742 91.681C112.404 91.576 112.052 91.5295 111.699 91.5435H108.685C108.204 91.5435 107.837 91.5894 107.585 91.6925C107.459 91.7368 107.343 91.8064 107.244 91.8971C107.146 91.9877 107.067 92.0974 107.012 92.2196C106.909 92.4717 106.852 92.8269 106.852 93.2738V95.176C106.852 95.5083 106.886 95.7719 106.955 95.9896C107.012 96.2073 107.115 96.3677 107.253 96.4938C107.402 96.6198 107.585 96.7229 107.814 96.7688C108.043 96.8261 108.33 96.849 108.685 96.849H111.687C112.329 96.849 112.776 96.7573 113.051 96.5625C113.315 96.3792 113.452 96.0698 113.452 95.6458H114.163C114.163 96.0583 114.082 96.4136 113.91 96.6771C113.75 96.9636 113.486 97.1698 113.108 97.3073C112.753 97.4334 112.272 97.5136 111.676 97.5136H111.687ZM119.651 97.4907H118.861L122.413 90.9591H123.502L127.054 97.4907H126.229L125.346 95.8521H120.534L119.651 97.4907ZM120.912 95.1989H124.98L122.951 91.4175L120.912 95.1989ZM131.832 97.4907V90.9591H132.554V93.778H138.627V90.9477H139.349V97.4907H138.639V94.4541H132.554V97.4907H131.844H131.832ZM144.391 97.4907V90.9591H145.102V93.652H146.247L150.911 90.9477H152.114L147.004 93.927L152.069 97.4907H150.854L146.27 94.3051H145.102V97.4907H144.391ZM156.503 90.9477H163.883V91.6123H160.537V97.4907H159.826V91.6123H156.503V90.9477ZM168.672 94.3968H171.812V95.0958H168.672V94.4082V94.3968ZM177.141 97.4907V90.9591H184.646V97.4907H183.936V91.6352H177.851V97.4907H177.141ZM189.78 97.4907V90.9591H195.841V91.6123H190.502V93.7895H195.715V94.4426H190.502V96.8375H195.864V97.4907H189.791H189.78ZM200.734 90.9477H208.114V91.6123H204.768V97.4907H204.058V91.6123H200.734V90.9477ZM212.961 97.4907V90.9591H219.034V91.6123H213.683V93.7895H218.908V94.4426H213.683V96.8375H219.034V97.4907H212.961ZM224.305 97.4792V90.9477H228.935C229.508 90.9477 229.966 91.0164 230.31 91.1539C230.665 91.28 230.929 91.4977 231.089 91.7956C231.249 92.0935 231.341 92.4832 231.341 92.9759C231.341 93.4572 231.261 93.8238 231.1 94.0874C230.928 94.3609 230.657 94.5578 230.344 94.6374C230 94.7406 229.542 94.7864 228.935 94.7864H225.016V97.4792H224.305ZM225.016 94.1332H229.141C229.531 94.1332 229.829 94.0989 230.035 94.0416C230.131 94.0192 230.221 93.9771 230.3 93.9179C230.379 93.8587 230.445 93.7838 230.493 93.6978C230.585 93.5374 230.631 93.2967 230.631 92.9644C230.631 92.4717 230.516 92.1165 230.31 91.9217C230.081 91.7154 229.725 91.6123 229.21 91.6123H225.016V94.1332ZM242.834 90.9477V91.6123H237.093V93.652H241.012C241.585 93.652 242.055 93.7207 242.41 93.8353C242.754 93.9499 243.006 94.1561 243.167 94.4426C243.327 94.7176 243.407 95.1072 243.407 95.5885C243.407 95.9323 243.373 96.2302 243.304 96.4708C243.235 96.7 243.109 96.8948 242.949 97.0438C242.777 97.2042 242.559 97.3073 242.284 97.3876C242.021 97.4563 241.677 97.4907 241.264 97.4907H236.383V90.9591H242.834V90.9477ZM237.093 96.8261H241.287C241.643 96.8261 241.918 96.7917 242.124 96.7344C242.319 96.6656 242.468 96.5396 242.559 96.3677C242.651 96.1844 242.697 95.9323 242.697 95.6114C242.697 95.2677 242.651 95.0156 242.559 94.8322C242.465 94.6435 242.301 94.4994 242.101 94.4312C241.816 94.3432 241.517 94.3045 241.219 94.3166H237.093V96.8375V96.8261ZM254.671 90.9477H255.519L252.574 95.6114C252.311 96.0354 252.082 96.3563 251.91 96.5969C251.726 96.8261 251.555 97.0209 251.383 97.1469C251.211 97.273 251.039 97.3646 250.833 97.4105C250.638 97.4678 250.386 97.4907 250.088 97.4907H249.847V96.8261H250.099C250.34 96.8261 250.546 96.8032 250.684 96.7573C250.833 96.7229 250.959 96.6427 251.062 96.5511C251.165 96.4365 251.291 96.2875 251.417 96.0698L247.934 90.9477H248.759L251.818 95.5312L254.66 90.9477H254.671ZM260.286 97.4792V90.9477H264.904C265.477 90.9477 265.936 91.0164 266.291 91.1539C266.634 91.28 266.898 91.4977 267.07 91.7956C267.23 92.0935 267.311 92.4832 267.311 92.9759C267.311 93.4572 267.23 93.8238 267.081 94.0874C266.909 94.3609 266.638 94.5578 266.325 94.6374C265.981 94.7406 265.523 94.7864 264.916 94.7864H260.997V97.4792H260.286ZM260.997 94.1332H265.122C265.512 94.1332 265.809 94.0989 266.016 94.0416C266.112 94.0199 266.203 93.9781 266.282 93.9188C266.361 93.8595 266.426 93.7842 266.474 93.6978C266.554 93.5374 266.6 93.2967 266.6 92.9644C266.6 92.4717 266.486 92.1165 266.279 91.9217C266.062 91.7154 265.706 91.6123 265.191 91.6123H260.997V94.1332ZM278.288 90.9477V91.6123H273.132V97.4907H272.421V90.9591H278.288V90.9477Z" fill="#6B7280"/>
<path d="M207.035 38.5016L196.608 34.491V54.4295H207.035V38.5016ZM177.231 40.2319V54.441H192.139V34.4681L177.242 40.2205L177.231 40.2319Z" fill="#6B7280"/>
<path d="M177.231 35.6255V26H207.035V33.9066L194.373 29.0251L177.231 35.6255Z" fill="#6B7280"/>
</g>
</g>
<defs>
<filter id="filter0_d_3515_18448" x="-15" y="-10" width="414" height="154" filterUnits="userSpaceOnUse" color-interpolation-filters="sRGB">
<feFlood flood-opacity="0" result="BackgroundImageFix"/>
<feColorMatrix in="SourceAlpha" type="matrix" values="0 0 0 0 0 0 0 0 0 0 0 0 0 0 0 0 0 0 127 0" result="hardAlpha"/>
<feOffset dy="5"/>
<feGaussianBlur stdDeviation="7.5"/>
<feComposite in2="hardAlpha" operator="out"/>
<feColorMatrix type="matrix" values="0 0 0 0 0 0 0 0 0 0 0 0 0 0 0 0 0 0 0.1 0"/>
<feBlend mode="normal" in2="BackgroundImageFix" result="effect1_dropShadow_3515_18448"/>
<feBlend mode="normal" in="SourceGraphic" in2="effect1_dropShadow_3515_18448" result="shape"/>
</filter>
<clipPath id="clip0_3515_18448">
<rect width="173.538" height="72" fill="white" transform="translate(105.231 26)"/>
</clipPath>
</defs>
</svg>
