<svg width="384" height="124" viewBox="0 0 384 124" fill="none" xmlns="http://www.w3.org/2000/svg">
<g filter="url(#filter0_d_3515_18435)">
<g clip-path="url(#clip0_3515_18435)">
<path d="M96.8707 67.3833L90.4615 80H100.688L109.846 62.4347L102.212 48.6154H92.5979L102.369 67.3833H96.8707Z" fill="#6B7280"/>
<path d="M88.5428 44L79.3846 62.0863L87.0191 76.3077H96.6328L86.862 56.983H92.3601L98.7692 44H88.5428Z" fill="#6B7280"/>
<path d="M241.046 49.9092H241.769C243.038 49.8468 243.867 50.6795 243.867 52.699C243.867 54.7184 243.867 55.0099 243.867 56.8628C243.867 58.7157 243.531 59.5276 242.031 59.5692C241.56 59.5692 241.465 59.5692 240.983 59.5692L241.046 49.9092ZM235.718 75.8185H240.962V64.2743H244.276C246.814 64.1807 249.164 61.6928 249.164 58.216V51.7413C249.289 47.0362 246.132 45.5477 243.489 45.4956H235.697L235.718 75.8185ZM250.401 51.2312C250.496 47.7337 252.992 44.9231 256.023 44.9231H258.215C261.362 44.9231 263.847 47.8482 263.847 51.4394V69.781C263.847 73.3722 261.309 76.3077 258.215 76.3077H256.044C253.233 76.3077 250.884 73.8719 250.485 70.7282L250.37 70.062L250.401 51.2312ZM256.946 49.8884C256.601 49.9177 256.281 50.0802 256.055 50.3411C255.83 50.602 255.717 50.9403 255.74 51.2833V69.9163C255.716 70.2604 255.829 70.5999 256.055 70.8625C256.28 71.125 256.6 71.2898 256.946 71.3216H257.093C257.441 71.2923 257.763 71.1287 257.991 70.8659C258.218 70.603 258.333 70.262 258.309 69.9163V51.2833C258.333 50.9386 258.218 50.5988 257.99 50.3377C257.762 50.0765 257.44 49.9151 257.093 49.8884H256.946ZM121.688 53.6046H122.097L124.51 75.8185H129.544L132.019 53.6046H132.491V75.8185H137.389V45.4644H129.471L127.53 65.1696H127.111L125.149 45.4956H117.231V75.8497H121.688V53.6046ZM145.203 49.8884H145.36C145.706 49.9177 146.025 50.0802 146.251 50.3411C146.477 50.602 146.59 50.9403 146.567 51.2833V69.9163C146.59 70.2604 146.477 70.5999 146.252 70.8625C146.026 71.125 145.707 71.2898 145.36 71.3216H145.203C144.857 71.2898 144.537 71.125 144.312 70.8625C144.087 70.5999 143.974 70.2604 143.997 69.9163V51.2833C143.974 50.9403 144.087 50.602 144.313 50.3411C144.538 50.0802 144.858 49.9177 145.203 49.8884ZM138.669 51.2312V70.062L138.774 70.7282C139.172 73.8511 141.522 76.2973 144.343 76.2973H146.535C149.619 76.2973 152.157 73.3722 152.157 69.781V51.4394C152.157 47.8482 149.619 44.9231 146.535 44.9231H144.343C141.302 44.9231 138.816 47.7337 138.711 51.2312H138.669ZM153.562 70.062L153.678 70.7282C154.076 73.8511 156.426 76.3077 159.237 76.3077H161.429C164.575 76.3077 167.05 73.3722 167.05 69.781V63.8059H161.471V69.9163C161.494 70.2609 161.379 70.6008 161.151 70.8619C160.923 71.1231 160.601 71.2845 160.254 71.3112H160.107C159.762 71.2819 159.442 71.1194 159.217 70.8585C158.991 70.5976 158.878 70.2593 158.901 69.9163V51.2833C158.878 50.9403 158.991 50.602 159.217 50.3411C159.442 50.0802 159.762 49.9177 160.107 49.8884H160.254C160.601 49.9151 160.923 50.0765 161.151 50.3377C161.379 50.5988 161.494 50.9386 161.471 51.2833V56.488H167.05V51.4811C167.05 47.8898 164.523 44.9647 161.429 44.9647H159.237C156.205 44.9647 153.72 47.7753 153.615 51.2729H153.562V70.062ZM173.113 61.089V45.4748H168.089V75.8289H173.658L177.035 59.9128V75.8289H181.891V45.4644H176.479L173.113 61.089ZM191.299 56.5401H188.635V45.4644H183.066V75.8185H188.635V61.4534H191.299V75.8185H196.869V45.4644H191.299V56.5401ZM203.193 45.4644H197.571L200.949 57.81V60.0793L197.729 75.8185H202.973L205.7 62.0467H206.015V75.8705H211.5V62.0467H211.846L214.489 75.8705H220.132L216.597 60.3187V58.0911L220.048 45.4644H214.636L211.699 57.5914V45.4644H206.015V57.6331L203.193 45.4644ZM226.446 75.8185V50.3673H228.911V75.8185H234.522V45.4644H220.887V75.8185H226.446ZM276.161 50.0029V45.4644H265.4V75.8185H276.161V71.0821H270.654V61.2244H276.161V56.488H270.654V50.0029H276.161ZM282.338 75.8185V61.4638H282.758L285.673 75.8289H291.096L287.509 59.3819V58.3409L291.337 45.4852H285.915L282.915 57.9766H282.412V45.4852H277.021V75.8393L282.338 75.8185ZM291.704 45.4644V50.3568H295.333V75.8185H300.986V50.284H304.615V45.4644H291.704Z" fill="#6B7280"/>
</g>
</g>
<defs>
<filter id="filter0_d_3515_18435" x="-15" y="-10" width="414" height="154" filterUnits="userSpaceOnUse" color-interpolation-filters="sRGB">
<feFlood flood-opacity="0" result="BackgroundImageFix"/>
<feColorMatrix in="SourceAlpha" type="matrix" values="0 0 0 0 0 0 0 0 0 0 0 0 0 0 0 0 0 0 127 0" result="hardAlpha"/>
<feOffset dy="5"/>
<feGaussianBlur stdDeviation="7.5"/>
<feComposite in2="hardAlpha" operator="out"/>
<feColorMatrix type="matrix" values="0 0 0 0 0 0 0 0 0 0 0 0 0 0 0 0 0 0 0.1 0"/>
<feBlend mode="normal" in2="BackgroundImageFix" result="effect1_dropShadow_3515_18435"/>
<feBlend mode="normal" in="SourceGraphic" in2="effect1_dropShadow_3515_18435" result="shape"/>
</filter>
<clipPath id="clip0_3515_18435">
<rect width="225.231" height="36" fill="white" transform="translate(79.3846 44)"/>
</clipPath>
</defs>
</svg>


