<svg width="384" height="124" viewBox="0 0 384 124" fill="none" xmlns="http://www.w3.org/2000/svg">
<g filter="url(#filter0_d_3515_18440)">
<g clip-path="url(#clip0_3515_18440)">
<path d="M156.793 52.1245V71.7687H161.198V56.0676H171.713V71.7687H176.154V52.1245H156.793ZM183.862 61.9643C183.862 57.9146 186.739 55.463 190.433 55.463C194.129 55.463 197.005 57.9146 197.005 61.9643C197.005 66.0139 194.129 68.465 190.433 68.465C186.739 68.465 183.862 66.0139 183.862 61.9643ZM201.445 61.9643C201.445 55.783 196.401 51.6623 190.433 51.6623C184.466 51.6623 179.422 55.783 179.422 61.9643C179.422 68.1455 184.466 72.2662 190.433 72.2662C196.401 72.2662 201.445 68.1455 201.445 61.9643ZM209.509 52.1245L206.881 66.1916C206.668 67.257 205.992 67.719 204.962 67.719H202.831V71.7687H205.175C208.408 71.7687 210.575 70.2411 211.214 66.7601L213.204 56.1025H220.734V71.7687H225.175V52.1245H209.509ZM229.438 52.1245V71.7687H233.808V63.4564H236.792C237.466 69.1045 241.977 72.2662 247.449 72.2662C253.381 72.2662 258.176 68.5361 258.176 61.9643C258.176 55.3926 253.381 51.6623 247.449 51.6623C242.299 51.6623 238 54.469 236.969 59.4772H233.808V52.1245H229.438ZM241.126 61.9643C241.126 57.9146 243.293 55.463 247.449 55.463C251.605 55.463 253.772 57.9146 253.772 61.9643C253.772 66.0139 251.605 68.465 247.449 68.465C243.293 68.465 241.126 66.0139 241.126 61.9643ZM281.764 56.9201C279.739 53.4739 276.401 51.6623 271.818 51.6623C265.636 51.6623 260.84 55.606 260.84 61.9643C260.84 68.3231 265.53 72.2662 271.818 72.2662C276.401 72.2662 279.739 70.4546 281.764 67.009L278.318 65.0195C276.826 67.151 274.873 68.3231 271.746 68.3231C267.91 68.3231 265.246 65.7654 265.246 61.9643C265.246 58.0921 267.803 55.606 271.746 55.606C274.873 55.606 276.826 56.7781 278.318 58.9091L281.764 56.9201Z" fill="#6B7280"/>
<path fill-rule="evenodd" clip-rule="evenodd" d="M125.091 43.5765L122.77 57.5271C122.715 57.8591 122.357 58.0085 122.045 57.8872L115.067 55.191C114.203 54.8572 113.914 54.2083 114.033 53.4913L115.519 44.5636C115.639 43.8481 116.121 43.3275 117.048 43.2914L124.523 43.0006C124.858 42.9883 125.147 43.2451 125.091 43.5765ZM105.057 53.6205L117.622 60.1124C117.92 60.2667 117.954 60.6528 117.742 60.9127L113.034 66.7266C112.451 67.446 111.745 67.522 111.1 67.1886L103.059 63.0344C102.414 62.7006 102.067 62.0813 102.317 61.1888L104.335 53.9849C104.425 53.6615 104.759 53.4662 105.057 53.6205ZM108.419 75.7219L118.489 65.7927C118.729 65.5565 119.106 65.6453 119.288 65.9269L123.353 72.2062C123.857 72.9843 123.71 73.6791 123.193 74.1894L116.748 80.5432C116.231 81.0531 115.534 81.1902 114.763 80.6755L108.542 76.5217C108.263 76.3358 108.18 75.958 108.419 75.7219ZM130.596 79.3239L124.19 66.7142C124.038 66.4145 124.237 66.0832 124.56 65.9948L131.778 64.027C132.672 63.7835 133.289 64.134 133.618 64.7819L137.716 72.8506C138.045 73.4986 137.965 74.2037 137.241 74.7825L131.394 79.45C131.132 79.6591 130.747 79.6231 130.596 79.3239ZM140.795 59.5237L126.808 61.6238C126.476 61.673 126.224 61.3797 126.242 61.0453L126.652 53.5751C126.703 52.6506 127.23 52.1754 127.949 52.0674L136.898 50.7242C137.617 50.6157 138.261 50.915 138.581 51.7843L141.166 58.8048C141.282 59.1194 141.127 59.4739 140.795 59.5237Z" fill="#6B7280"/>
</g>
</g>
<defs>
<filter id="filter0_d_3515_18440" x="-15" y="-10" width="414" height="154" filterUnits="userSpaceOnUse" color-interpolation-filters="sRGB">
<feFlood flood-opacity="0" result="BackgroundImageFix"/>
<feColorMatrix in="SourceAlpha" type="matrix" values="0 0 0 0 0 0 0 0 0 0 0 0 0 0 0 0 0 0 127 0" result="hardAlpha"/>
<feOffset dy="5"/>
<feGaussianBlur stdDeviation="7.5"/>
<feComposite in2="hardAlpha" operator="out"/>
<feColorMatrix type="matrix" values="0 0 0 0 0 0 0 0 0 0 0 0 0 0 0 0 0 0 0.1 0"/>
<feBlend mode="normal" in2="BackgroundImageFix" result="effect1_dropShadow_3515_18440"/>
<feBlend mode="normal" in="SourceGraphic" in2="effect1_dropShadow_3515_18440" result="shape"/>
</filter>
<clipPath id="clip0_3515_18440">
<rect width="179.529" height="38" fill="white" transform="translate(102.236 43)"/>
</clipPath>
</defs>
</svg>


