<svg width="201" height="120" viewBox="0 0 201 120" fill="none" xmlns="http://www.w3.org/2000/svg">
<g filter="url(#filter0_d_3575_23805)">
<g clip-path="url(#clip0_3575_23805)">
<path d="M66.8213 50.6444V69.2548H71.0056V54.38H80.9933V69.2548H85.2113V50.6444H66.8213ZM92.5328 59.9663C92.5328 56.1298 95.2659 53.8072 98.775 53.8072C102.285 53.8072 105.017 56.1298 105.017 59.9663C105.017 63.8028 102.285 66.1249 98.775 66.1249C95.2659 66.1249 92.5328 63.8028 92.5328 59.9663ZM109.235 59.9663C109.235 54.1103 104.443 50.2066 98.775 50.2066C93.1068 50.2066 88.3155 54.1103 88.3155 59.9663C88.3155 65.8222 93.1068 69.7261 98.775 69.7261C104.443 69.7261 109.235 65.8222 109.235 59.9663ZM116.894 50.6444L114.397 63.9711C114.195 64.9805 113.553 65.4181 112.575 65.4181H110.551V69.2548H112.777C115.848 69.2548 117.906 67.8076 118.514 64.5097L120.404 54.413H127.556V69.2548H131.775V50.6444H116.894ZM135.823 50.6444V69.2548H139.974V61.3799H142.809C143.449 66.7308 147.734 69.7261 152.931 69.7261C158.566 69.7261 163.121 66.1922 163.121 59.9663C163.121 53.7405 158.566 50.2066 152.931 50.2066C148.039 50.2066 143.956 52.8655 142.977 57.6102H139.974V50.6444H135.823ZM146.925 59.9663C146.925 56.1298 148.984 53.8072 152.931 53.8072C156.879 53.8072 158.937 56.1298 158.937 59.9663C158.937 63.8028 156.879 66.1249 152.931 66.1249C148.984 66.1249 146.925 63.8028 146.925 59.9663ZM185.525 55.1877C183.603 51.9228 180.432 50.2066 176.079 50.2066C170.206 50.2066 165.651 53.9427 165.651 59.9663C165.651 65.9905 170.106 69.7261 176.079 69.7261C180.432 69.7261 183.603 68.0098 185.525 64.7455L182.253 62.8607C180.835 64.88 178.981 65.9904 176.011 65.9904C172.367 65.9904 169.836 63.5674 169.836 59.9663C169.836 56.298 172.265 53.9427 176.011 53.9427C178.981 53.9427 180.835 55.0531 182.253 57.072L185.525 55.1877Z" fill="#6B7280"/>
<path fill-rule="evenodd" clip-rule="evenodd" d="M36.7097 42.5463L34.5042 55.7627C34.4522 56.0772 34.1126 56.2187 33.8162 56.1037L27.1875 53.5495C26.367 53.2333 26.0926 52.6185 26.2054 51.9393L27.6171 43.4814C27.7308 42.8036 28.1894 42.3104 29.0694 42.2762L36.1696 42.0007C36.4877 41.989 36.7626 42.2323 36.7097 42.5463ZM17.6804 52.0617L29.615 58.2119C29.8984 58.3581 29.9298 58.7238 29.7293 58.9701L25.2565 64.4779C24.7029 65.1595 24.0327 65.2315 23.4196 64.9157L15.7817 60.9801C15.1691 60.6639 14.8403 60.0771 15.0773 59.2316L16.9943 52.4069C17.0799 52.1005 17.397 51.9155 17.6804 52.0617ZM20.8732 72.9998L30.4388 63.5932C30.6665 63.3695 31.0243 63.4536 31.1976 63.7203L35.0587 69.6692C35.5369 70.4063 35.3974 71.0646 34.9065 71.548L28.7846 77.5674C28.2933 78.0504 27.632 78.1803 26.8995 77.6927L20.9898 73.7575C20.7247 73.5814 20.6465 73.2235 20.8732 72.9998ZM41.938 76.4122L35.854 64.4663C35.7093 64.1823 35.8985 63.8684 36.2053 63.7847L43.0606 61.9205C43.9098 61.6897 44.4961 62.0218 44.8085 62.6357L48.7015 70.2797C49.0139 70.8936 48.9375 71.5615 48.25 72.1099L42.6967 76.5317C42.4475 76.7298 42.0817 76.6957 41.938 76.4122ZM51.6255 57.6541L38.3405 59.6437C38.0248 59.6904 37.7855 59.4124 37.8029 59.0957L38.192 52.0187C38.2403 51.1428 38.7414 50.6926 39.4239 50.5903L47.9245 49.3177C48.6069 49.215 49.2185 49.4985 49.5229 50.3221L51.9785 56.9731C52.0882 57.2712 51.9411 57.607 51.6255 57.6541Z" fill="#6B7280"/>
</g>
</g>
<defs>
<filter id="filter0_d_3575_23805" x="-8" y="-10" width="216.526" height="150" filterUnits="userSpaceOnUse" color-interpolation-filters="sRGB">
<feFlood flood-opacity="0" result="BackgroundImageFix"/>
<feColorMatrix in="SourceAlpha" type="matrix" values="0 0 0 0 0 0 0 0 0 0 0 0 0 0 0 0 0 0 127 0" result="hardAlpha"/>
<feOffset dy="5"/>
<feGaussianBlur stdDeviation="7.5"/>
<feComposite in2="hardAlpha" operator="out"/>
<feColorMatrix type="matrix" values="0 0 0 0 0 0 0 0 0 0 0 0 0 0 0 0 0 0 0.1 0"/>
<feBlend mode="normal" in2="BackgroundImageFix" result="effect1_dropShadow_3575_23805"/>
<feBlend mode="normal" in="SourceGraphic" in2="effect1_dropShadow_3575_23805" result="shape"/>
</filter>
<clipPath id="clip0_3575_23805">
<rect width="170.526" height="36" fill="white" transform="translate(15 42)"/>
</clipPath>
</defs>
</svg>
