<svg width="1920" height="940" viewBox="0 0 1920 940" fill="none" xmlns="http://www.w3.org/2000/svg">
<mask id="path-1-inside-1_3474_17988" fill="white">
<path d="M360 -97H438V940H360V-97Z"/>
</mask>
<path d="M360 -97H438V940H360V-97Z" fill="#252526" fill-opacity="0.01"/>
<path d="M437 -97V940H439V-97H437ZM361 940V-97H359V940H361Z" fill="#E5E7EB" mask="url(#path-1-inside-1_3474_17988)"/>
<mask id="path-3-inside-2_3474_17988" fill="white">
<path d="M462 -97H540V940H462V-97Z"/>
</mask>
<path d="M462 -97H540V940H462V-97Z" fill="#252526" fill-opacity="0.01"/>
<path d="M539 -97V940H541V-97H539ZM463 940V-97H461V940H463Z" fill="#E5E7EB" mask="url(#path-3-inside-2_3474_17988)"/>
<mask id="path-5-inside-3_3474_17988" fill="white">
<path d="M564 -97H642V940H564V-97Z"/>
</mask>
<path d="M564 -97H642V940H564V-97Z" fill="#252526" fill-opacity="0.01"/>
<path d="M641 -97V940H643V-97H641ZM565 940V-97H563V940H565Z" fill="#E5E7EB" mask="url(#path-5-inside-3_3474_17988)"/>
<mask id="path-7-inside-4_3474_17988" fill="white">
<path d="M666 -97H744V940H666V-97Z"/>
</mask>
<path d="M666 -97H744V940H666V-97Z" fill="#252526" fill-opacity="0.01"/>
<path d="M743 -97V940H745V-97H743ZM667 940V-97H665V940H667Z" fill="#E5E7EB" mask="url(#path-7-inside-4_3474_17988)"/>
<mask id="path-9-inside-5_3474_17988" fill="white">
<path d="M768 -97H846V940H768V-97Z"/>
</mask>
<path d="M768 -97H846V940H768V-97Z" fill="#252526" fill-opacity="0.01"/>
<path d="M845 -97V940H847V-97H845ZM769 940V-97H767V940H769Z" fill="#E5E7EB" mask="url(#path-9-inside-5_3474_17988)"/>
<mask id="path-11-inside-6_3474_17988" fill="white">
<path d="M870 -97H948V940H870V-97Z"/>
</mask>
<path d="M870 -97H948V940H870V-97Z" fill="#252526" fill-opacity="0.01"/>
<path d="M947 -97V940H949V-97H947ZM871 940V-97H869V940H871Z" fill="#E5E7EB" mask="url(#path-11-inside-6_3474_17988)"/>
<mask id="path-13-inside-7_3474_17988" fill="white">
<path d="M972 -97H1050V940H972V-97Z"/>
</mask>
<path d="M972 -97H1050V940H972V-97Z" fill="#252526" fill-opacity="0.01"/>
<path d="M1049 -97V940H1051V-97H1049ZM973 940V-97H971V940H973Z" fill="#E5E7EB" mask="url(#path-13-inside-7_3474_17988)"/>
<mask id="path-15-inside-8_3474_17988" fill="white">
<path d="M1074 -97H1152V940H1074V-97Z"/>
</mask>
<path d="M1074 -97H1152V940H1074V-97Z" fill="#252526" fill-opacity="0.01"/>
<path d="M1151 -97V940H1153V-97H1151ZM1075 940V-97H1073V940H1075Z" fill="#E5E7EB" mask="url(#path-15-inside-8_3474_17988)"/>
<mask id="path-17-inside-9_3474_17988" fill="white">
<path d="M1176 -97H1254V940H1176V-97Z"/>
</mask>
<path d="M1176 -97H1254V940H1176V-97Z" fill="#252526" fill-opacity="0.01"/>
<path d="M1253 -97V940H1255V-97H1253ZM1177 940V-97H1175V940H1177Z" fill="#E5E7EB" mask="url(#path-17-inside-9_3474_17988)"/>
<mask id="path-19-inside-10_3474_17988" fill="white">
<path d="M1278 -97H1356V940H1278V-97Z"/>
</mask>
<path d="M1278 -97H1356V940H1278V-97Z" fill="#252526" fill-opacity="0.01"/>
<path d="M1355 -97V940H1357V-97H1355ZM1279 940V-97H1277V940H1279Z" fill="#E5E7EB" mask="url(#path-19-inside-10_3474_17988)"/>
<mask id="path-21-inside-11_3474_17988" fill="white">
<path d="M1380 -97H1458V940H1380V-97Z"/>
</mask>
<path d="M1380 -97H1458V940H1380V-97Z" fill="#252526" fill-opacity="0.01"/>
<path d="M1457 -97V940H1459V-97H1457ZM1381 940V-97H1379V940H1381Z" fill="#E5E7EB" mask="url(#path-21-inside-11_3474_17988)"/>
<mask id="path-23-inside-12_3474_17988" fill="white">
<path d="M1482 -97H1560V940H1482V-97Z"/>
</mask>
<path d="M1482 -97H1560V940H1482V-97Z" fill="#252526" fill-opacity="0.01"/>
<path d="M1559 -97V940H1561V-97H1559ZM1483 940V-97H1481V940H1483Z" fill="#E5E7EB" mask="url(#path-23-inside-12_3474_17988)"/>
<mask id="path-25-inside-13_3474_17988" fill="white">
<path d="M0 433.5H1920V515.6H0V433.5Z"/>
</mask>
<path d="M0 433.5H1920V515.6H0V433.5Z" fill="#252526" fill-opacity="0.01"/>
<path d="M0 434.5H1920V432.5H0V434.5ZM1920 514.6H0V516.6H1920V514.6Z" fill="#E5E7EB" mask="url(#path-25-inside-13_3474_17988)"/>
<mask id="path-27-inside-14_3474_17988" fill="white">
<path d="M0 539.6H1920V621.7H0V539.6Z"/>
</mask>
<path d="M0 539.6H1920V621.7H0V539.6Z" fill="#252526" fill-opacity="0.01"/>
<path d="M0 540.6H1920V538.6H0V540.6ZM1920 620.7H0V622.7H1920V620.7Z" fill="#E5E7EB" mask="url(#path-27-inside-14_3474_17988)"/>
<mask id="path-29-inside-15_3474_17988" fill="white">
<path d="M0 645.7H1920V727.8H0V645.7Z"/>
</mask>
<path d="M0 645.7H1920V727.8H0V645.7Z" fill="#252526" fill-opacity="0.01"/>
<path d="M0 646.7H1920V644.7H0V646.7ZM1920 726.8H0V728.8H1920V726.8Z" fill="#E5E7EB" mask="url(#path-29-inside-15_3474_17988)"/>
<mask id="path-31-inside-16_3474_17988" fill="white">
<path d="M0 751.8H1920V833.9H0V751.8Z"/>
</mask>
<path d="M0 751.8H1920V833.9H0V751.8Z" fill="#252526" fill-opacity="0.01"/>
<path d="M0 752.8H1920V750.8H0V752.8ZM1920 832.9H0V834.9H1920V832.9Z" fill="#E5E7EB" mask="url(#path-31-inside-16_3474_17988)"/>
<mask id="path-33-inside-17_3474_17988" fill="white">
<path d="M0 857.9H1920V940H0V857.9Z"/>
</mask>
<path d="M0 857.9H1920V940H0V857.9Z" fill="#252526" fill-opacity="0.01"/>
<path d="M0 858.9H1920V856.9H0V858.9ZM1920 939H0V941H1920V939Z" fill="#E5E7EB" mask="url(#path-33-inside-17_3474_17988)"/>
</svg>
