<svg width="57" height="57" viewBox="0 0 57 57" fill="none" xmlns="http://www.w3.org/2000/svg">
<rect width="57" height="57" rx="28.5" fill="#F97316"/>
<path d="M37.5 22.75C37.5 20.9551 36.0449 19.5 34.25 19.5H22.75C20.9551 19.5 19.5 20.9551 19.5 22.75V34.25C19.5 36.0449 20.9551 37.5 22.75 37.5H28.5218C28.2253 37.0368 27.9858 36.5335 27.8135 36H22.75C21.7835 36 21 35.2165 21 34.25V25H36V27.8135C36.5335 27.9858 37.0368 28.2253 37.5 28.5218V22.75ZM22.75 21H34.25C35.2165 21 36 21.7835 36 22.75V23.5H21V22.75C21 21.7835 21.7835 21 22.75 21ZM39.5 34C39.5 30.9624 37.0376 28.5 34 28.5C30.9624 28.5 28.5 30.9624 28.5 34C28.5 37.0376 30.9624 39.5 34 39.5C37.0376 39.5 39.5 37.0376 39.5 34ZM34 34H36C36.2761 34 36.5 34.2239 36.5 34.5C36.5 34.7762 36.2761 35 36 35H33.5C33.2268 35 33.0048 34.7809 33.0001 34.5089L33 34.4999V31.4999C33 31.2238 33.2239 30.9999 33.5 30.9999C33.7761 30.9999 34 31.2238 34 31.4999L34 34Z" fill="white"/>
</svg>

