<svg width="24" height="24" viewBox="0 0 24 24" fill="none" xmlns="http://www.w3.org/2000/svg">
<mask id="mask0_3454_11060" style="mask-type:alpha" maskUnits="userSpaceOnUse" x="0" y="0" width="24" height="24">
<path d="M0 2C0 0.89543 0.895431 0 2 0H22C23.1046 0 24 0.895431 24 2V22C24 23.1046 23.1046 24 22 24H2C0.89543 24 0 23.1046 0 22V2Z" fill="#D9D9D9"/>
</mask>
<g mask="url(#mask0_3454_11060)">
<path opacity="0.24" d="M24 23V2.41421C24 1.52331 22.9229 1.07714 22.2929 1.70711L1.70711 22.2929C1.07714 22.9229 1.52331 24 2.41421 24H23C23.5523 24 24 23.5523 24 23Z" fill="#111827"/>
</g>
<mask id="mask1_3454_11060" style="mask-type:alpha" maskUnits="userSpaceOnUse" x="0" y="0" width="24" height="24">
<path d="M0 2C0 0.89543 0.895431 0 2 0H22C23.1046 0 24 0.895431 24 2V22C24 23.1046 23.1046 24 22 24H2C0.89543 24 0 23.1046 0 22V2Z" fill="#D9D9D9"/>
</mask>
<g mask="url(#mask1_3454_11060)">
<path d="M0 23V2.41421C0 1.52331 1.07714 1.07714 1.70711 1.70711L24 24H1C0.447716 24 0 23.5523 0 23Z" fill="#111827"/>
</g>
</svg>

