<svg width="24" height="24" viewBox="0 0 24 24" fill="none" xmlns="http://www.w3.org/2000/svg">
<path d="M11.9976 3.25C12.3773 3.25 12.6912 3.53201 12.7409 3.89808L12.7478 3.99985L12.749 11.25H20.0021C20.4163 11.25 20.7521 11.5858 20.7521 12C20.7521 12.3797 20.4699 12.6935 20.1039 12.7432L20.0021 12.75H12.749L12.751 19.9991C12.7511 20.4133 12.4154 20.7493 12.0012 20.7493C11.6215 20.7493 11.3076 20.4673 11.2579 20.1012L11.251 19.9994L11.249 12.75H4C3.58579 12.75 3.25 12.4142 3.25 12C3.25 11.6203 3.53215 11.3065 3.89823 11.2568L4 11.25H11.249L11.2478 4.00015C11.2477 3.58594 11.5834 3.25 11.9976 3.25Z" fill="#6B7280"/>
</svg>
