<svg width="67" height="24" viewBox="0 0 67 24" fill="none" xmlns="http://www.w3.org/2000/svg">
<mask id="mask0_4348_36475" style="mask-type:alpha" maskUnits="userSpaceOnUse" x="0" y="0" width="24" height="24">
<path d="M0 2C0 0.89543 0.895431 0 2 0H22C23.1046 0 24 0.895431 24 2V22C24 23.1046 23.1046 24 22 24H2C0.89543 24 0 23.1046 0 22V2Z" fill="#D9D9D9"/>
</mask>
<g mask="url(#mask0_4348_36475)">
<path opacity="0.24" d="M24 23V2.41421C24 1.52331 22.9229 1.07714 22.2929 1.70711L1.70711 22.2929C1.07714 22.9229 1.52331 24 2.41421 24H23C23.5523 24 24 23.5523 24 23Z" fill="#111827"/>
</g>
<mask id="mask1_4348_36475" style="mask-type:alpha" maskUnits="userSpaceOnUse" x="0" y="0" width="24" height="24">
<path d="M0 2C0 0.89543 0.895431 0 2 0H22C23.1046 0 24 0.895431 24 2V22C24 23.1046 23.1046 24 22 24H2C0.89543 24 0 23.1046 0 22V2Z" fill="#D9D9D9"/>
</mask>
<g mask="url(#mask1_4348_36475)">
<path d="M0 23V2.41421C0 1.52331 1.07714 1.07714 1.70711 1.70711L24 24H1C0.447716 24 0 23.5523 0 23Z" fill="#111827"/>
</g>
<path d="M32 6.18253H34.5795L38.0341 14.6143H38.1705L41.625 6.18253H44.2045V17.8189H42.1818V9.82457H42.0739L38.858 17.7848H37.3466L34.1307 9.80753H34.0227V17.8189H32V6.18253Z" fill="#111827"/>
<path d="M46.3 17.8189V6.18253H50.6636C51.5576 6.18253 52.3076 6.3492 52.9136 6.68253C53.5235 7.01586 53.9837 7.4742 54.2943 8.05753C54.6087 8.63707 54.7659 9.29616 54.7659 10.0348C54.7659 10.781 54.6087 11.4439 54.2943 12.0234C53.9799 12.603 53.5159 13.0594 52.9023 13.3928C52.2886 13.7223 51.533 13.8871 50.6352 13.8871H47.7432V12.1541H50.3511C50.8739 12.1541 51.3019 12.0632 51.6352 11.8814C51.9686 11.6996 52.2148 11.4496 52.3739 11.1314C52.5367 10.8132 52.6182 10.4477 52.6182 10.0348C52.6182 9.62192 52.5367 9.25829 52.3739 8.94389C52.2148 8.6295 51.9667 8.38518 51.6295 8.21094C51.2962 8.03291 50.8663 7.94389 50.3398 7.94389H48.408V17.8189H46.3Z" fill="#111827"/>
<path d="M66.3571 10.1087H64.2321C64.1715 9.76018 64.0598 9.45147 63.8969 9.18253C63.734 8.9098 63.5313 8.67874 63.2889 8.48935C63.0465 8.29995 62.77 8.15791 62.4594 8.06321C62.1526 7.96473 61.8211 7.91548 61.4651 7.91548C60.8325 7.91548 60.2719 8.07457 59.7832 8.39276C59.2946 8.70715 58.912 9.16927 58.6355 9.77912C58.359 10.3852 58.2207 11.1257 58.2207 12.0007C58.2207 12.8909 58.359 13.6409 58.6355 14.2507C58.9158 14.8568 59.2984 15.3151 59.7832 15.6257C60.2719 15.9325 60.8306 16.0859 61.4594 16.0859C61.8079 16.0859 62.1336 16.0405 62.4366 15.9496C62.7435 15.8549 63.0181 15.7166 63.2605 15.5348C63.5067 15.353 63.7132 15.1295 63.8798 14.8643C64.0503 14.5992 64.1677 14.2962 64.2321 13.9553L66.3571 13.9666C66.2776 14.5196 66.1052 15.0386 65.8401 15.5234C65.5787 16.0083 65.2359 16.4363 64.8116 16.8075C64.3874 17.175 63.8912 17.4628 63.323 17.6712C62.7548 17.8757 62.1241 17.978 61.431 17.978C60.4082 17.978 59.4954 17.7412 58.6923 17.2678C57.8893 16.7943 57.2567 16.1106 56.7946 15.2166C56.3325 14.3227 56.1014 13.2507 56.1014 12.0007C56.1014 10.7469 56.3344 9.67495 56.8003 8.7848C57.2662 7.89086 57.9007 7.20715 58.7037 6.73366C59.5067 6.26018 60.4158 6.02344 61.431 6.02344C62.0787 6.02344 62.681 6.11435 63.2378 6.29616C63.7946 6.47798 64.2908 6.74503 64.7264 7.0973C65.162 7.44579 65.52 7.87382 65.8003 8.38139C66.0844 8.88518 66.27 9.46094 66.3571 10.1087Z" fill="#111827"/>
</svg>
