<svg width="33" height="32" viewBox="0 0 33 32" fill="none" xmlns="http://www.w3.org/2000/svg">
<mask id="mask0_4266_36108" style="mask-type:alpha" maskUnits="userSpaceOnUse" x="0" y="0" width="33" height="32">
<path d="M0.78125 2.88C0.78125 1.28942 2.07067 0 3.66125 0H29.9013C31.4918 0 32.7813 1.28942 32.7813 2.88V29.12C32.7813 30.7106 31.4918 32 29.9013 32H3.66125C2.07067 32 0.78125 30.7106 0.78125 29.12V2.88Z" fill="#D9D9D9"/>
</mask>
<g mask="url(#mask0_4266_36108)">
<path opacity="0.24" d="M32.7812 30.56V3.47647C32.7812 2.19356 31.2302 1.55108 30.323 2.45823L3.23948 29.5418C2.33233 30.4489 2.97481 32 4.25772 32H31.3412C32.1365 32 32.7812 31.3553 32.7812 30.56Z" fill="#111827"/>
</g>
<mask id="mask1_4266_36108" style="mask-type:alpha" maskUnits="userSpaceOnUse" x="0" y="0" width="33" height="32">
<path d="M0.78125 2.88C0.78125 1.28942 2.07067 0 3.66125 0H29.9013C31.4918 0 32.7812 1.28942 32.7812 2.88V29.12C32.7812 30.7106 31.4918 32 29.9013 32H3.66125C2.07067 32 0.78125 30.7106 0.78125 29.12V2.88Z" fill="#D9D9D9"/>
</mask>
<g mask="url(#mask1_4266_36108)">
<path d="M0.78125 30.56V3.47647C0.78125 2.19356 2.33233 1.55108 3.23948 2.45823L32.7812 32H2.22125C1.42596 32 0.78125 31.3553 0.78125 30.56Z" fill="#111827"/>
</g>
</svg>

