<svg width="40" height="40" viewBox="0 0 40 40" fill="none" xmlns="http://www.w3.org/2000/svg">
<rect x="0.5" y="0.5" width="39" height="39" rx="4.5" fill="#F9FAFB"/>
<path d="M25.0016 23.2441L25.0009 29.2451C25.0009 29.8528 24.3161 30.2082 23.8192 29.8584L20.0008 27.1706L16.1844 29.8583C15.6875 30.2082 15.0025 29.8529 15.0025 29.2451L15.0007 23.2459C16.3702 24.3435 18.1084 25 20 25C21.8926 25 23.6318 24.3428 25.0016 23.2441ZM20 10C23.866 10 27 13.134 27 17C27 20.866 23.866 24 20 24C16.134 24 13 20.866 13 17C13 13.134 16.134 10 20 10Z" fill="#6B7280"/>
<rect x="0.5" y="0.5" width="39" height="39" rx="4.5" stroke="#E5E7EB"/>
</svg>

