<svg width="40" height="40" viewBox="0 0 40 40" fill="none" xmlns="http://www.w3.org/2000/svg">
<rect x="0.5" y="0.5" width="39" height="39" rx="4.5" fill="#F9FAFB"/>
<path d="M18.5492 10.5332C19.3872 9.82618 20.6128 9.82618 21.4508 10.5332L28.2008 16.2277C28.7076 16.6552 29 17.2845 29 17.9475V27.7504C29 28.7169 28.2165 29.5004 27.25 29.5004H24.25C23.2835 29.5004 22.5 28.7169 22.5 27.7504V22.7504C22.5 22.3362 22.1642 22.0004 21.75 22.0004H18.25C17.8358 22.0004 17.5 22.3362 17.5 22.7504V27.7504C17.5 28.7169 16.7165 29.5004 15.75 29.5004H12.75C11.7835 29.5004 11 28.7169 11 27.7504V17.9475C11 17.2845 11.2924 16.6552 11.7992 16.2277L18.5492 10.5332Z" fill="#6B7280"/>
<rect x="0.5" y="0.5" width="39" height="39" rx="4.5" stroke="#E5E7EB"/>
</svg>
