<svg width="40" height="40" viewBox="0 0 40 40" fill="none" xmlns="http://www.w3.org/2000/svg">
<rect x="0.5" y="0.5" width="39" height="39" rx="4.5" fill="#F9FAFB"/>
<path d="M20.8354 11.1623C20.892 11.1194 20.9415 11.0693 20.9831 11.0137L23.5446 11.0137C23.5565 11.0137 23.5683 11.0134 23.5802 11.0129C23.7501 11.0048 23.9201 11.0048 24.0893 11.0129C24.1011 11.0134 24.113 11.0137 24.1248 11.0137H24.1631C24.7381 11.0137 25.2816 11.1398 25.7693 11.365C25.7822 11.371 25.7953 11.3766 25.8085 11.3818C26.7261 11.7439 27.5452 12.3608 28.1483 13.2043C29.0574 14.4756 29.341 16.0695 28.9532 17.5524L25.6715 14.3148C25.5312 14.1764 25.342 14.0987 25.1448 14.0987L20.4 14.0987C20.3898 14.0987 20.3796 14.0989 20.3694 14.0994C20.2167 14.1056 20.0693 14.1583 19.9471 14.2509L18.0625 15.6787C18.0094 15.719 17.9534 15.7529 17.8955 15.7806C17.4898 15.9748 16.9883 15.8654 16.7047 15.495C16.6644 15.4423 16.6305 15.3869 16.6027 15.3296C16.408 14.9284 16.5164 14.4345 16.8862 14.1544L20.8354 11.1623ZM15.8994 22.2357L15.8862 22.2487L14.9121 23.2166L14.8993 23.2294C14.5463 23.5663 13.9852 23.562 13.6375 23.2165C13.2854 22.8667 13.2854 22.2995 13.6375 21.9496L14.6115 20.9818C14.9636 20.6319 15.5345 20.6319 15.8866 20.9818C16.2344 21.3273 16.2386 21.885 15.8994 22.2357ZM15.6086 23.9344C15.2694 24.2852 15.2737 24.8428 15.6214 25.1883C15.9735 25.5382 16.5444 25.5382 16.8965 25.1883L17.8706 24.2205C18.2227 23.8706 18.2227 23.3034 17.8706 22.9536C17.8271 22.9104 17.7803 22.8725 17.731 22.84C17.3858 22.6123 16.9176 22.6459 16.6088 22.9407L16.596 22.9535L15.6219 23.9214L15.6086 23.9344ZM13.5015 19.4079C13.8536 19.7578 13.8536 20.325 13.5015 20.6748L12.5274 21.6427C12.1753 21.9925 11.6045 21.9925 11.2524 21.6427C10.9003 21.2928 10.9003 20.7256 11.2524 20.3758L12.2264 19.4079C12.5785 19.0581 13.1494 19.0581 13.5015 19.4079ZM19.8551 24.9253C20.2072 25.2752 20.2072 25.8424 19.8551 26.1922L18.881 27.1601C18.8088 27.2318 18.7273 27.2889 18.6405 27.3312C18.3039 27.4952 17.8858 27.4381 17.6059 27.1601C17.3261 26.882 17.2687 26.4666 17.4337 26.1322L17.435 26.1296C17.4774 26.0443 17.5344 25.9642 17.6059 25.8932L18.58 24.9253C18.9321 24.5755 19.503 24.5755 19.8551 24.9253ZM13.3448 12.8311C14.7405 11.4444 16.6387 10.8615 18.457 11.0824L15.9803 12.9588C14.8951 13.781 14.686 15.3256 15.5137 16.4067C16.3395 17.4856 17.8854 17.6948 18.9684 16.8743L20.652 15.5987L24.8371 15.5987L28.3436 19.0581C28.3547 19.0719 28.3667 19.0853 28.3795 19.0981L29.5295 20.2481C30.0913 20.8099 30.0913 21.7207 29.5295 22.2825C28.9997 22.8123 28.1594 22.8425 27.5943 22.3731L27.498 22.2768C27.479 22.2578 27.4589 22.2407 27.4379 22.2254L26.345 21.1326C26.1498 20.9373 25.8332 20.9373 25.6379 21.1326C25.4427 21.3278 25.4427 21.6444 25.6379 21.8397L26.7879 22.9896C26.8295 23.0312 26.8722 23.071 26.916 23.109L26.9598 23.1528C27.3578 23.5508 27.3578 24.196 26.9598 24.594C26.5618 24.992 25.9166 24.992 25.5186 24.594L25.3497 24.4251C25.1544 24.2298 24.8378 24.2298 24.6426 24.4251C24.5425 24.5252 24.4937 24.6572 24.4962 24.7884C24.4933 24.9201 24.5421 25.0527 24.6425 25.1532L24.8655 25.3762C25.2336 25.7443 25.2336 26.3411 24.8655 26.7092C24.4974 27.0773 23.9006 27.0773 23.5325 26.7092L23.5314 26.7081L23.5197 26.6962L23.3097 26.4862C23.2372 26.4137 23.148 26.3681 23.0545 26.3495C22.8961 26.3178 22.7252 26.3633 22.6024 26.4862C22.4072 26.6814 22.4072 26.998 22.6024 27.1933L22.8208 27.4117C23.1878 27.7876 23.1851 28.3898 22.8126 28.7623C22.4441 29.1308 21.8489 29.1384 21.4711 28.7793L20.0395 27.4187L20.5644 26.8971C21.3083 26.1579 21.3083 24.9596 20.5644 24.2205C20.1718 23.8303 19.6504 23.6461 19.1361 23.6679C19.158 23.1569 18.9726 22.6389 18.58 22.2487C18.1874 21.8587 17.6662 21.6745 17.1521 21.6961C17.174 21.1852 16.9886 20.6671 16.596 20.277C16.0964 19.7805 15.3883 19.6175 14.7517 19.7879C14.6981 19.3912 14.5178 19.008 14.2109 18.7031C13.5244 18.021 12.4444 17.9684 11.6972 18.5451C11.2355 16.5555 11.7847 14.3812 13.3448 12.8311Z" fill="#6B7280"/>
<rect x="0.5" y="0.5" width="39" height="39" rx="4.5" stroke="#E5E7EB"/>
</svg>
