<svg width="40" height="40" viewBox="0 0 40 40" fill="none" xmlns="http://www.w3.org/2000/svg">
<rect x="0.5" y="0.5" width="39" height="39" rx="4.5" fill="#F9FAFB"/>
<path d="M11 13.75V19C11 24.0012 13.9576 27.6757 19.7251 29.9478C19.9018 30.0174 20.0982 30.0174 20.2749 29.9478C26.0424 27.6757 29 24.0012 29 19V13.75C29 13.3358 28.6642 13 28.25 13C25.5866 13 22.992 12.0565 20.45 10.15C20.1833 9.95 19.8167 9.95 19.55 10.15C17.008 12.0565 14.4134 13 11.75 13C11.3358 13 11 13.3358 11 13.75ZM21.9951 19C21.9951 19.8374 21.4804 20.5545 20.75 20.8523L20.75 23.25C20.75 23.6642 20.4142 24 20 24C19.5858 24 19.25 23.6642 19.25 23.25L19.25 20.8559C18.515 20.5603 17.996 19.8408 17.996 19C17.996 17.8957 18.8913 17.0005 19.9956 17.0005C21.0999 17.0005 21.9951 17.8957 21.9951 19Z" fill="#6B7280"/>
<rect x="0.5" y="0.5" width="39" height="39" rx="4.5" stroke="#E5E7EB"/>
</svg>
