<svg width="40" height="40" viewBox="0 0 40 40" fill="none" xmlns="http://www.w3.org/2000/svg">
<rect x="0.5" y="0.5" width="39" height="39" rx="4.5" fill="#F9FAFB"/>
<path d="M14 12H13C11.3431 12 10 13.3431 10 15V19.25H14V12ZM10 20.75V25C10 26.6569 11.3431 28 13 28H14V20.75H10ZM15.5 28H27C28.6569 28 30 26.6569 30 25V20.75H15.5V28ZM19.25 24.25C19.25 24.8023 18.8023 25.25 18.25 25.25C17.6977 25.25 17.25 24.8023 17.25 24.25C17.25 23.6977 17.6977 23.25 18.25 23.25C18.8023 23.25 19.25 23.6977 19.25 24.25ZM22 24.25C22 24.8023 21.5523 25.25 21 25.25C20.4477 25.25 20 24.8023 20 24.25C20 23.6977 20.4477 23.25 21 23.25C21.5523 23.25 22 23.6977 22 24.25ZM25 24.25C25 24.8023 24.5523 25.25 24 25.25C23.4477 25.25 23 24.8023 23 24.25C23 23.6977 23.4477 23.25 24 23.25C24.5523 23.25 25 23.6977 25 24.25ZM28 24.25C28 24.8023 27.5523 25.25 27 25.25C26.4477 25.25 26 24.8023 26 24.25C26 23.6977 26.4477 23.25 27 23.25C27.5523 23.25 28 23.6977 28 24.25ZM30 19.25H15.5V12H27C28.6569 12 30 13.3431 30 15V19.25ZM18.25 16.75C18.8023 16.75 19.25 16.3023 19.25 15.75C19.25 15.1977 18.8023 14.75 18.25 14.75C17.6977 14.75 17.25 15.1977 17.25 15.75C17.25 16.3023 17.6977 16.75 18.25 16.75ZM22 15.75C22 15.1977 21.5523 14.75 21 14.75C20.4477 14.75 20 15.1977 20 15.75C20 16.3023 20.4477 16.75 21 16.75C21.5523 16.75 22 16.3023 22 15.75ZM25 15.75C25 15.1977 24.5523 14.75 24 14.75C23.4477 14.75 23 15.1977 23 15.75C23 16.3023 23.4477 16.75 24 16.75C24.5523 16.75 25 16.3023 25 15.75ZM28 15.75C28 15.1977 27.5523 14.75 27 14.75C26.4477 14.75 26 15.1977 26 15.75C26 16.3023 26.4477 16.75 27 16.75C27.5523 16.75 28 16.3023 28 15.75Z" fill="#6B7280"/>
<rect x="0.5" y="0.5" width="39" height="39" rx="4.5" stroke="#E5E7EB"/>
</svg>
