<svg width="40" height="40" viewBox="0 0 40 40" fill="none" xmlns="http://www.w3.org/2000/svg">
<rect x="0.5" y="0.5" width="39" height="39" rx="4.5" fill="#F9FAFB"/>
<path d="M17.8359 10.034C17.9484 10.0723 18.0583 10.1178 18.1649 10.1703L19.4477 10.8018C19.7958 10.9732 20.2038 10.9732 20.5519 10.8018L21.8347 10.1703C23.1972 9.49942 24.8457 10.0602 25.5165 11.4228L25.59 11.5851L25.6528 11.7518L26.1133 13.1054C26.2383 13.4728 26.5268 13.7613 26.8941 13.8863L28.2477 14.3467C29.6856 14.8359 30.4547 16.398 29.9656 17.8359C29.9273 17.9484 29.8818 18.0583 29.8293 18.1649L29.1977 19.4477C29.0263 19.7958 29.0263 20.2038 29.1977 20.5519L29.8293 21.8347C30.5002 23.1972 29.9394 24.8457 28.5768 25.5165C28.4702 25.569 28.3603 25.6146 28.2477 25.6528L26.8941 26.1133C26.5268 26.2383 26.2383 26.5268 26.1133 26.8941L25.6528 28.2477C25.1637 29.6856 23.6016 30.4547 22.1637 29.9656C22.0512 29.9273 21.9413 29.8818 21.8347 29.8293L20.5519 29.1977C20.2038 29.0263 19.7958 29.0263 19.4477 29.1977L18.1649 29.8293C16.8023 30.5002 15.1539 29.9394 14.483 28.5768C14.4305 28.4702 14.385 28.3603 14.3467 28.2477L13.8863 26.8941C13.7613 26.5268 13.4728 26.2383 13.1054 26.1133L11.7518 25.6528C10.314 25.1637 9.54486 23.6016 10.034 22.1637C10.0723 22.0512 10.1178 21.9413 10.1703 21.8347L10.8018 20.5519C10.9732 20.2038 10.9732 19.7958 10.8018 19.4477L10.1703 18.1649C9.49942 16.8023 10.0602 15.1539 11.4228 14.483C11.5294 14.4305 11.6393 14.385 11.7518 14.3467L13.1054 13.8863C13.4728 13.7613 13.7613 13.4728 13.8863 13.1054L14.3467 11.7518C14.8359 10.314 16.398 9.54486 17.8359 10.034ZM23.4695 16.9695L18.0502 22.3887L16.076 20.0197C15.8108 19.7014 15.3379 19.6584 15.0197 19.9236C14.7014 20.1888 14.6584 20.6617 14.9236 20.9799L17.4236 23.9799C17.706 24.3187 18.2183 24.342 18.5301 24.0301L24.5301 18.0301C24.823 17.7372 24.823 17.2624 24.5301 16.9695C24.2372 16.6766 23.7624 16.6766 23.4695 16.9695Z" fill="#6B7280"/>
<rect x="0.5" y="0.5" width="39" height="39" rx="4.5" stroke="#E5E7EB"/>
</svg>
