<svg width="79" height="120" viewBox="0 0 79 120" fill="none" xmlns="http://www.w3.org/2000/svg">
<g filter="url(#filter0_d_3575_23829)">
<g clip-path="url(#clip0_3575_23829)">
<path d="M60.2715 48.3C58.1753 49.7936 55.8129 50.873 53.3115 51.48V49.95C54.7065 49.65 55.8315 48.765 56.3115 47.475L54.8415 46.95C55.1164 46.1801 55.075 45.3327 54.7263 44.5933C54.3777 43.8539 53.7503 43.2828 52.9815 43.005C52.365 42.7827 51.6942 42.7601 51.0642 42.9405C50.4341 43.1209 49.8769 43.4951 49.4715 44.01L48.2415 44.58L48.7815 45.735C48.6716 46.7444 48.9644 47.7565 49.5964 48.5513C50.2283 49.3461 51.1483 49.8595 52.1565 49.98V51.78C49.8615 52.35 47.2665 52.77 44.4915 52.98V51.3C45.8865 51 47.0265 50.1 47.4915 48.825L46.0365 48.285C46.3114 47.5151 46.27 46.6677 45.9213 45.9283C45.5727 45.1889 44.9453 44.6178 44.1765 44.34C43.5563 44.1181 42.882 44.0973 42.2492 44.2804C41.6164 44.4635 41.0574 44.8412 40.6515 45.36L39.4215 45.93L39.9765 47.085C39.8666 48.0905 40.1578 49.0987 40.7869 49.8907C41.4161 50.6827 42.3323 51.1946 43.3365 51.315V53.055C39.2402 53.2971 35.13 53.1313 31.0665 52.56V49.815C32.7041 49.5552 34.1787 48.6747 35.1842 47.3563C36.1898 46.0379 36.649 44.383 36.4665 42.735L37.3965 40.785L35.3415 39.825C34.7721 39.1007 34.0221 38.5389 33.1669 38.1962C32.3116 37.8535 31.3813 37.7419 30.4692 37.8727C29.5572 38.0034 28.6956 38.3718 27.9711 38.941C27.2466 39.5101 26.6845 40.2599 26.3415 41.115C25.8828 42.2848 25.8722 43.5828 26.3115 44.76L23.8515 45.66C24.292 46.84 25.0646 47.8673 26.076 48.6179C27.0875 49.3685 28.2945 49.8103 29.5515 49.89V52.32C24.8265 51.45 21.0015 50.025 18.8265 48.255C16.6708 51.8862 15.5358 56.0322 15.5415 60.255C15.5265 73.35 26.2665 84 39.5265 84C52.7865 84 63.5265 73.365 63.5265 60.24C63.5265 55.89 62.3415 51.81 60.2715 48.315V48.3ZM43.8465 42.21C45.5865 42.21 46.9815 40.83 46.9815 39.12C46.9815 37.38 45.5715 36 43.8465 36C42.1215 36 40.7265 37.38 40.7265 39.105C40.7265 40.815 42.1215 42.195 43.8465 42.195V42.21Z" fill="#6B7280"/>
<path d="M28.0517 59.4601C27.8787 59.4615 27.7093 59.5097 27.5615 59.5995C27.4136 59.6892 27.2927 59.8173 27.2117 59.9701L22.5767 70.0651H24.8417L25.8467 67.8151H30.2717L31.2767 70.0651H33.5267L28.9367 60.0301C28.8607 59.8592 28.7365 59.7142 28.5793 59.613C28.422 59.5117 28.2387 59.4586 28.0517 59.4601ZM26.6117 66.0601L28.0517 62.7901L29.4917 66.0601H26.6267H26.6117ZM53.7767 59.4601C53.6267 59.4601 53.4767 59.5051 53.3267 59.5651L52.7267 59.8651L49.9967 61.3351L50.8667 62.9551L52.7267 62.0401V70.0651H54.8267V60.6151C54.8267 59.9851 54.3767 59.4751 53.7767 59.4751V59.4601ZM36.8267 59.4601C36.6767 59.4601 36.5267 59.5051 36.3767 59.5651L35.7767 59.8651L33.0467 61.3351L33.9317 62.9551L35.7917 62.0401V70.0651H37.8917V60.6151C37.8917 59.9851 37.4267 59.4751 36.8417 59.4751L36.8267 59.4601ZM44.7467 59.5051C43.8775 59.5109 43.0301 59.7769 42.3136 60.2689C41.5971 60.7608 41.0443 61.4561 40.7267 62.2651C40.3765 63.1005 40.2028 63.9993 40.2167 64.9051C40.2167 66.8101 40.9067 68.5051 42.3167 69.5251C43.0067 70.0501 43.8167 70.3051 44.7467 70.3051C46.1267 70.3051 47.2517 69.7651 48.0467 68.7151C48.8867 67.6651 49.2467 66.3901 49.2467 64.9051C49.2893 63.5335 48.8604 62.1888 48.0317 61.0951C47.6544 60.5832 47.1581 60.1709 46.5858 59.8939C46.0134 59.6169 45.3822 59.4834 44.7467 59.5051ZM46.4567 67.3201C46.2837 67.6197 46.0342 67.8679 45.7337 68.0392C45.4332 68.2105 45.0926 68.2989 44.7467 68.2951C44.0267 68.2951 43.4567 67.9801 43.0217 67.3201C42.5734 66.5962 42.349 65.7561 42.3767 64.9051C42.3767 63.9601 42.5867 63.1501 43.0217 62.5051C43.4717 61.8301 44.0267 61.5151 44.7467 61.5151C45.4667 61.5151 46.0367 61.8301 46.4567 62.5051C46.8917 63.1501 47.1017 63.9601 47.1017 64.9051C47.1017 65.8501 46.8917 66.6601 46.4567 67.3201ZM50.0867 45.9751C50.2383 46.1012 50.4336 46.1624 50.6301 46.1456C50.8267 46.1287 51.0086 46.0352 51.1367 45.8851C51.2567 45.7351 51.3167 45.5401 51.2867 45.3451C51.2738 45.1552 51.1877 44.9778 51.0467 44.8501C50.895 44.724 50.6997 44.6628 50.5032 44.6796C50.3067 44.6964 50.1247 44.79 49.9967 44.9401C49.8757 45.0871 49.8166 45.2753 49.8317 45.4651C49.8317 45.6601 49.9367 45.8401 50.0867 45.9751ZM41.2817 47.3251C41.5817 47.5801 42.0617 47.5501 42.3167 47.2351C42.3806 47.1621 42.4291 47.0769 42.4593 46.9847C42.4894 46.8925 42.5007 46.7951 42.4923 46.6984C42.4839 46.6017 42.456 46.5078 42.4104 46.4221C42.3647 46.3365 42.3022 46.261 42.2267 46.2001C42.075 46.074 41.8797 46.0128 41.6832 46.0296C41.4867 46.0464 41.3047 46.14 41.1767 46.2901C40.9217 46.6051 40.9667 47.0701 41.2817 47.3251ZM34.0217 43.0801C34.1477 43.0348 34.2637 42.9651 34.3628 42.875C34.4619 42.7849 34.5424 42.6762 34.5995 42.555C34.6566 42.4338 34.6893 42.3026 34.6956 42.1687C34.702 42.0349 34.682 41.9012 34.6367 41.7751C34.5391 41.5221 34.3461 41.3175 34.0993 41.2053C33.8524 41.0931 33.5714 41.0823 33.3167 41.1751C33.1796 41.2118 33.0517 41.2768 32.9412 41.3657C32.8306 41.4547 32.7399 41.5658 32.6747 41.6918C32.6095 41.8179 32.5714 41.9561 32.5627 42.0977C32.554 42.2394 32.5749 42.3813 32.6242 42.5143C32.6734 42.6474 32.7499 42.7687 32.8487 42.8706C32.9475 42.9724 33.0665 43.0525 33.198 43.1058C33.3295 43.159 33.4707 43.1842 33.6125 43.1798C33.7544 43.1754 33.8937 43.1414 34.0217 43.0801Z" fill="white"/>
</g>
</g>
<defs>
<filter id="filter0_d_3575_23829" x="-7.47363" y="-10" width="94" height="150" filterUnits="userSpaceOnUse" color-interpolation-filters="sRGB">
<feFlood flood-opacity="0" result="BackgroundImageFix"/>
<feColorMatrix in="SourceAlpha" type="matrix" values="0 0 0 0 0 0 0 0 0 0 0 0 0 0 0 0 0 0 127 0" result="hardAlpha"/>
<feOffset dy="5"/>
<feGaussianBlur stdDeviation="7.5"/>
<feComposite in2="hardAlpha" operator="out"/>
<feColorMatrix type="matrix" values="0 0 0 0 0 0 0 0 0 0 0 0 0 0 0 0 0 0 0.1 0"/>
<feBlend mode="normal" in2="BackgroundImageFix" result="effect1_dropShadow_3575_23829"/>
<feBlend mode="normal" in="SourceGraphic" in2="effect1_dropShadow_3575_23829" result="shape"/>
</filter>
<clipPath id="clip0_3575_23829">
<rect width="48" height="48" fill="white" transform="translate(15.5264 36)"/>
</clipPath>
</defs>
</svg>
