<svg width="277" height="120" viewBox="0 0 277 120" fill="none" xmlns="http://www.w3.org/2000/svg">
<g filter="url(#filter0_d_3575_23833)">
<g clip-path="url(#clip0_3575_23833)">
<path d="M31.893 68.343C33.755 68.4194 35.5866 67.842 37.083 66.7072C37.7832 66.113 38.3562 65.3778 38.7662 64.5476C39.1764 63.7172 39.415 62.8096 39.4672 61.881H35.713C35.4035 64.0956 33.9479 65.186 31.8469 65.186C29.0346 65.186 27.4539 63.1666 27.4539 59.552V59.3231C27.4539 55.7219 29.1532 53.6353 31.8206 53.6353C33.9677 53.6353 35.0742 54.7123 35.3574 56.8191H39.3092C39.2596 55.9083 39.0236 55.0183 38.6164 54.2067C38.209 53.395 37.6396 52.6798 36.9446 52.1073C35.2655 50.9638 33.259 50.4303 31.2474 50.5927C29.2359 50.755 27.3362 51.6038 25.8535 53.0025C25.0598 53.8481 24.4385 54.8465 24.0258 55.9397C23.6131 57.0328 23.4172 58.199 23.4495 59.3702V59.5587C23.4495 62.2512 24.1806 64.3984 25.6164 65.9264C27.0522 67.4544 29.1268 68.343 31.893 68.343ZM49.9392 68.343C52.475 68.343 54.4508 67.5756 55.7944 66.2294C56.499 65.4988 57.05 64.6286 57.4134 63.6726C57.777 62.7164 57.9454 61.6945 57.9086 60.6694V58.8385H50.2948V61.679H54.0952C54.1038 62.1509 54.021 62.6199 53.8514 63.059C53.682 63.498 53.429 63.8984 53.1072 64.2368C52.6928 64.619 52.2078 64.9124 51.6806 65.0998C51.1534 65.287 50.595 65.3644 50.038 65.3274C49.356 65.3814 48.6716 65.2614 48.0464 64.9782C47.421 64.695 46.8742 64.2576 46.4552 63.7052C45.655 62.5001 45.264 61.06 45.342 59.6058V59.4174C45.342 55.87 47.0414 53.6555 49.992 53.6555C52.0402 53.6555 53.285 54.5642 53.6472 56.597H57.4474C57.3922 55.6828 57.1392 54.7925 56.7064 53.9905C56.2736 53.1885 55.6718 52.4947 54.9448 51.9592C53.4528 50.9873 51.7074 50.5014 49.9392 50.5659C48.8054 50.5396 47.6776 50.7439 46.6216 51.1668C45.5656 51.5897 44.6024 52.2229 43.7878 53.0295C42.9836 53.8631 42.3536 54.8549 41.9358 55.9449C41.518 57.0349 41.3212 58.2002 41.3574 59.3702V59.5587C41.3064 60.7073 41.4772 61.8549 41.8604 62.936C42.2434 64.017 42.8312 65.0104 43.5902 65.8592C45.0326 67.4006 47.1862 68.343 49.9392 68.343ZM15.5264 43V75.9154H65.7658V43H15.5264ZM62.802 72.873H18.4901V46.0358H62.802V72.873Z" fill="#6B7280"/>
<path d="M84.2827 64.4439C81.5693 64.4439 80.0529 62.6497 80.0529 59.5114V59.3449C80.0529 56.2004 81.6889 54.3693 84.2561 54.3693C86.3309 54.3693 87.3951 55.3126 87.6743 57.1499H91.4451C91.4009 56.3518 91.1755 55.5712 90.7837 54.8594C90.3917 54.1475 89.8421 53.5204 89.1707 53.019C87.5549 52.0149 85.6209 51.5454 83.6815 51.6864C81.7423 51.8274 79.9109 52.5706 78.4835 53.7959C77.7215 54.5336 77.1243 55.4035 76.7261 56.3558C76.3277 57.308 76.1363 58.3238 76.1625 59.3449V59.5175C76.1625 61.8543 76.8675 63.7533 78.2573 65.0667C79.6473 66.3799 81.6691 67.1753 84.3293 67.1753C86.1263 67.2391 87.8929 66.7323 89.3369 65.7387C90.0089 65.2193 90.5587 64.5775 90.9521 63.8531C91.3457 63.1289 91.5745 62.3372 91.6247 61.5275H88.0069C87.7209 63.5005 86.3043 64.4439 84.2827 64.4439ZM98.0159 51.9154L92.6955 66.9841H96.1537L97.2643 63.6301H103.15L104.267 66.9841H108.111L102.818 51.9154H98.0159ZM98.0159 61.2069L100.177 54.696L102.352 61.1946L98.0159 61.2069ZM116.205 51.9154H110.599V66.9841H114.25V61.509H116.318C117.896 61.5925 119.458 61.1821 120.754 60.3437C121.314 59.9188 121.758 59.3761 122.047 58.7606C122.336 58.1451 122.463 57.4746 122.416 56.8047V56.7184C122.416 53.5061 120.189 51.9154 116.205 51.9154ZM118.865 56.8478C118.865 58.3707 117.961 59.1414 116.118 59.1414H114.25V54.5357H116.118C117.868 54.5357 118.865 55.1523 118.865 56.7677V56.8478ZM125.462 67.0087H129.18V51.9154H125.462V67.0087ZM144.749 51.94H132.279V54.5974H136.668V67.0087H140.373V54.5604H144.769L144.749 51.94ZM149.796 51.94L144.476 67.0087H147.934L149.045 63.6547H154.937L156.054 67.0087H159.892L154.618 51.9154L149.796 51.94ZM149.796 61.2316L151.958 54.7207L154.092 61.2316H149.796ZM166.077 51.9154H162.399V66.9841H172.7V64.3083H166.05L166.077 51.9154ZM188.229 61.398H191.894C191.901 62.2306 191.554 63.0323 190.929 63.6301C190.531 63.9643 190.065 64.2207 189.557 64.3839C189.05 64.5471 188.512 64.6137 187.976 64.5795C187.319 64.6275 186.659 64.5235 186.056 64.2771C185.452 64.0307 184.924 63.6495 184.518 63.1675C183.751 62.1134 183.377 60.8551 183.454 59.5854V59.4251C183.454 56.3423 185.09 54.3816 187.93 54.3816C189.925 54.3816 191.116 55.177 191.455 56.9526H195.119C195.065 56.1548 194.82 55.378 194.403 54.6785C193.985 53.979 193.405 53.3742 192.705 52.908C191.044 51.9674 189.1 51.5494 187.163 51.716C185.225 51.8827 183.397 52.6251 181.951 53.8329C181.178 54.5638 180.572 55.4321 180.169 56.3857C179.767 57.3393 179.577 58.3584 179.61 59.3819V59.5545C179.56 60.5573 179.725 61.5594 180.096 62.5026C180.467 63.4457 181.037 64.3109 181.772 65.0481C183.155 66.4291 185.223 67.2245 187.883 67.2245C189.953 67.3225 191.98 66.6575 193.523 65.3749C194.195 64.7365 194.719 63.9771 195.062 63.1435C195.406 62.31 195.561 61.42 195.518 60.5287V58.9256H188.203L188.229 61.398ZM209.604 59.2278C210.274 58.4838 210.616 57.5323 210.561 56.5642V56.4841C210.599 55.8233 210.463 55.1641 210.165 54.5628C209.867 53.9614 209.417 53.436 208.852 53.0313C207.762 52.2668 206.192 51.9154 204.277 51.9154H198.458V66.9841H202.109V61.1638H203.711L207.589 66.9779H211.506L207.216 60.5472C208.133 60.3235 208.961 59.8614 209.604 59.2154V59.2278ZM206.944 56.6752C206.944 58.1056 206.013 58.8517 204.17 58.8517H202.109V54.5357H204.184C205.979 54.5357 206.957 55.066 206.957 56.6012L206.944 56.6752ZM221.294 51.6996C220.194 51.6752 219.098 51.8528 218.07 52.222C217.044 52.5913 216.106 53.145 215.31 53.8514C214.52 54.5734 213.901 55.4392 213.49 56.3942C213.079 57.3492 212.886 58.3728 212.922 59.4004V59.573C212.874 60.5976 213.056 61.6203 213.459 62.5754C213.862 63.5307 214.476 64.3971 215.261 65.1195C216.046 65.8417 216.986 66.4037 218.018 66.7695C219.052 67.1351 220.156 67.2965 221.262 67.2431C222.378 67.2979 223.494 67.1349 224.538 66.7643C225.582 66.3939 226.53 65.8245 227.32 65.0927C228.112 64.3609 228.728 63.4831 229.13 62.5164C229.532 61.5496 229.71 60.5153 229.654 59.4805V59.3141C229.682 58.2982 229.488 57.2876 229.084 56.3427C228.682 55.3978 228.076 54.5379 227.306 53.8144C225.686 52.4056 223.536 51.6419 221.314 51.6872L221.294 51.6996ZM225.818 59.499C225.88 60.803 225.452 62.0865 224.606 63.1307C224.196 63.5583 223.692 63.9007 223.128 64.1351C222.564 64.3695 221.952 64.4905 221.334 64.4905C220.716 64.4905 220.106 64.3695 219.542 64.1351C218.978 63.9007 218.474 63.5583 218.062 63.1307C217.162 62.1126 216.7 60.8208 216.766 59.5052V59.3387C216.69 58.0333 217.12 56.7459 217.976 55.7072C218.404 55.2852 218.922 54.9498 219.496 54.722C220.07 54.4942 220.688 54.379 221.314 54.3836C221.938 54.3883 222.554 54.5126 223.124 54.7489C223.694 54.9852 224.206 55.3282 224.626 55.7565C225.446 56.7836 225.862 58.0381 225.81 59.3141L225.818 59.499ZM242.324 60.7692C242.324 63.5313 241.372 64.4685 239.184 64.4685C236.996 64.4685 236.166 63.3895 236.166 60.8616V51.9154H232.46V61.1021C232.46 65.1283 234.868 67.2183 239.164 67.2183C243.594 67.2183 246.028 65.1097 246.028 60.9788V51.9154H242.344L242.324 60.7692ZM255.312 51.9154H249.692V66.9841H253.356V61.509H255.424C257 61.5892 258.56 61.179 259.854 60.3437C260.414 59.9188 260.858 59.3761 261.148 58.7606C261.436 58.1451 261.562 57.4746 261.516 56.8047V56.7184C261.516 53.5061 259.302 51.9154 255.312 51.9154ZM257.972 56.8478C257.972 58.3707 257.06 59.1414 255.218 59.1414H253.356V54.5357H255.218C256.968 54.5357 257.972 55.1523 257.972 56.7677V56.8478Z" fill="#6B7280"/>
</g>
</g>
<defs>
<filter id="filter0_d_3575_23833" x="-7.47363" y="-10" width="292" height="150" filterUnits="userSpaceOnUse" color-interpolation-filters="sRGB">
<feFlood flood-opacity="0" result="BackgroundImageFix"/>
<feColorMatrix in="SourceAlpha" type="matrix" values="0 0 0 0 0 0 0 0 0 0 0 0 0 0 0 0 0 0 127 0" result="hardAlpha"/>
<feOffset dy="5"/>
<feGaussianBlur stdDeviation="7.5"/>
<feComposite in2="hardAlpha" operator="out"/>
<feColorMatrix type="matrix" values="0 0 0 0 0 0 0 0 0 0 0 0 0 0 0 0 0 0 0.1 0"/>
<feBlend mode="normal" in2="BackgroundImageFix" result="effect1_dropShadow_3575_23833"/>
<feBlend mode="normal" in="SourceGraphic" in2="effect1_dropShadow_3575_23833" result="shape"/>
</filter>
<clipPath id="clip0_3575_23833">
<rect width="246" height="34" fill="white" transform="translate(15.5264 43)"/>
</clipPath>
</defs>
</svg>
