<svg width="231" height="120" viewBox="0 0 231 120" fill="none" xmlns="http://www.w3.org/2000/svg">
<g filter="url(#filter0_d_3575_23824)">
<g clip-path="url(#clip0_3575_23824)">
<path d="M31.0535 64.7852L25.3623 76H34.4431L42.5754 60.3864L35.7962 48.1025H27.2594L35.9357 64.7852H31.0535Z" fill="#6B7280"/>
<path d="M23.6587 44L15.5264 60.0767L22.3056 72.7179H30.8424L22.1661 55.5405H27.0483L32.7395 44H23.6587Z" fill="#6B7280"/>
<path d="M159.078 49.2527H159.72C160.847 49.1972 161.583 49.9374 161.583 51.7325C161.583 53.5275 161.583 53.7866 161.583 55.4336C161.583 57.0806 161.285 57.8023 159.953 57.8394C159.534 57.8394 159.45 57.8394 159.022 57.8394L159.078 49.2527ZM154.346 72.2831H159.003V62.0217H161.946C164.2 61.9384 166.286 59.727 166.286 56.6365V50.8812C166.398 46.6989 163.595 45.3757 161.248 45.3295H154.328L154.346 72.2831ZM167.385 50.4278C167.469 47.3188 169.686 44.8206 172.377 44.8206H174.324C177.118 44.8206 179.325 47.4206 179.325 50.6129V66.9164C179.325 70.1087 177.071 72.718 174.324 72.718H172.396C169.9 72.718 167.814 70.5528 167.46 67.7584L167.357 67.1663L167.385 50.4278ZM173.197 49.2342C172.89 49.2602 172.606 49.4047 172.406 49.6365C172.206 49.8684 172.105 50.1692 172.126 50.4741V67.0367C172.105 67.3426 172.205 67.6444 172.405 67.8778C172.606 68.1111 172.89 68.2576 173.197 68.2859H173.327C173.636 68.2599 173.922 68.1144 174.124 67.8808C174.327 67.6472 174.428 67.3441 174.408 67.0367V50.4741C174.428 50.1677 174.326 49.8657 174.124 49.6335C173.922 49.4014 173.635 49.2579 173.327 49.2342H173.197ZM53.091 52.5375H53.4542L55.5963 72.2831H60.0668L62.2647 52.5375H62.6838V72.2831H67.0332V45.3017H60.0016L58.2786 62.8174H57.9061L56.1644 45.3295H49.1328V72.3109H53.091V52.5375ZM73.9717 49.2342H74.1114C74.4178 49.2602 74.7018 49.4047 74.9021 49.6365C75.1024 49.8684 75.2031 50.1692 75.1824 50.4741V67.0367C75.2032 67.3426 75.1028 67.6444 74.9027 67.8778C74.7026 68.1111 74.4186 68.2576 74.1114 68.2859H73.9717C73.6644 68.2576 73.3805 68.1111 73.1804 67.8778C72.9803 67.6444 72.8799 67.3426 72.9006 67.0367V50.4741C72.88 50.1692 72.9807 49.8684 73.181 49.6365C73.3813 49.4047 73.6652 49.2602 73.9717 49.2342ZM68.1694 50.4278V67.1663L68.2626 67.7584C68.6165 70.5343 70.7027 72.7087 73.208 72.7087H75.1545C77.8926 72.7087 80.1465 70.1087 80.1465 66.9164V50.6129C80.1465 47.4206 77.8926 44.8206 75.1545 44.8206H73.208C70.5071 44.8206 68.2998 47.3188 68.2067 50.4278H68.1694ZM81.3945 67.1663L81.4969 67.7584C81.8508 70.5343 83.937 72.718 86.433 72.718H88.3795C91.1736 72.718 93.3715 70.1087 93.3715 66.9164V61.6053H88.4168V67.0367C88.4373 67.3431 88.3354 67.6451 88.1331 67.8773C87.9309 68.1094 87.6446 68.2529 87.3364 68.2766H87.206C86.8996 68.2506 86.6157 68.1061 86.4153 67.8742C86.215 67.6424 86.1144 67.3416 86.135 67.0367V50.4741C86.1144 50.1692 86.215 49.8684 86.4153 49.6365C86.6157 49.4047 86.8996 49.2602 87.206 49.2342H87.3364C87.6446 49.2579 87.9309 49.4014 88.1331 49.6335C88.3354 49.8657 88.4373 50.1677 88.4168 50.4741V55.1005H93.3715V50.6499C93.3715 47.4576 91.127 44.8576 88.3795 44.8576H86.433C83.7415 44.8576 81.5342 47.3558 81.441 50.4648H81.3945V67.1663ZM98.7547 59.1903V45.311H94.2936V72.2924H99.239L102.238 58.1447V72.2924H106.55V45.3017H101.744L98.7547 59.1903ZM114.904 55.1468H112.539V45.3017H107.593V72.2831H112.539V59.5141H114.904V72.2831H119.85V45.3017H114.904V55.1468ZM125.466 45.3017H120.474L123.472 56.2756V58.2928L120.613 72.2831H125.27L127.691 60.0415H127.971V72.3294H132.842V60.0415H133.149L135.496 72.3294H140.507L137.368 58.5056V56.5254L140.432 45.3017H135.626L133.019 56.0813V45.3017H127.971V56.1183L125.466 45.3017ZM146.113 72.2831V49.6598H148.302V72.2831H153.285V45.3017H141.177V72.2831H146.113ZM190.259 49.336V45.3017H180.703V72.2831H190.259V68.073H185.369V59.3106H190.259V55.1005H185.369V49.336H190.259ZM195.745 72.2831V59.5234H196.117L198.706 72.2924H203.521L200.336 57.6728V56.7475L203.735 45.3202H198.92L196.257 56.4237H195.81V45.3202H191.023V72.3016L195.745 72.2831ZM204.061 45.3017V49.6506H207.284V72.2831H212.304V49.5858H215.526V45.3017H204.061Z" fill="#6B7280"/>
</g>
</g>
<defs>
<filter id="filter0_d_3575_23824" x="-7.47363" y="-10" width="246" height="150" filterUnits="userSpaceOnUse" color-interpolation-filters="sRGB">
<feFlood flood-opacity="0" result="BackgroundImageFix"/>
<feColorMatrix in="SourceAlpha" type="matrix" values="0 0 0 0 0 0 0 0 0 0 0 0 0 0 0 0 0 0 127 0" result="hardAlpha"/>
<feOffset dy="5"/>
<feGaussianBlur stdDeviation="7.5"/>
<feComposite in2="hardAlpha" operator="out"/>
<feColorMatrix type="matrix" values="0 0 0 0 0 0 0 0 0 0 0 0 0 0 0 0 0 0 0.1 0"/>
<feBlend mode="normal" in2="BackgroundImageFix" result="effect1_dropShadow_3575_23824"/>
<feBlend mode="normal" in="SourceGraphic" in2="effect1_dropShadow_3575_23824" result="shape"/>
</filter>
<clipPath id="clip0_3575_23824">
<rect width="200" height="32" fill="white" transform="translate(15.5264 44)"/>
</clipPath>
</defs>
</svg>
