<svg width="207" height="120" viewBox="0 0 207 120" fill="none" xmlns="http://www.w3.org/2000/svg">
<g filter="url(#filter0_d_3575_23813)">
<g clip-path="url(#clip0_3575_23813)">
<path d="M35.1224 31.4258C38.1961 39.5775 33.1812 44.8125 28.1933 50.0545C23.5424 55.4092 19.451 60.9822 27.6878 71.0011C24.6142 62.8493 29.6223 57.6144 34.6169 52.3724C39.261 47.0107 43.3525 41.4518 35.1224 31.4258Z" fill="#6B7280"/>
<path d="M27.6853 21C30.7589 29.1588 25.7441 34.3867 20.7562 39.6287C16.1121 44.9903 12.0139 50.5635 20.2507 60.5753C17.1771 52.4164 22.1851 47.1886 27.1797 41.9466C31.8306 36.5849 35.9153 31.0189 27.6853 21Z" fill="#6B7280"/>
<path d="M154.664 53.1162V69.9763H161.654V63.8044H169.433V60.1125H161.654V56.8081H177.091V69.9763H184.088V56.8081H190.444V53.1162H154.664Z" fill="#6B7280"/>
<path d="M139.839 65.9332V63.0093H149.067V59.3175H139.839V56.4217H151.675V52.7297H132.842V69.59H151.817V65.9332H139.839Z" fill="#6B7280"/>
<path d="M104.766 53.1162H85.6431V56.8081H91.8981V69.9763H98.8879V56.8081H104.766V53.1162Z" fill="#6B7280"/>
<path d="M65.3847 53.1162H45.8105V56.8081H52.0656V69.9763H59.0621V56.8081H65.3847V53.1162Z" fill="#6B7280"/>
<path d="M79.2196 53.1162H71.677L62.8877 69.9763H67.4643L68.9068 67.0807H78.7747L80.2172 69.9763H88.0091L79.2196 53.1162ZM70.6526 63.5931L73.9082 57.0618L77.0222 63.5931H70.6526Z" fill="#6B7280"/>
<path d="M123.884 53.1162V61.5427L112.62 53.1162H107.167V69.9763H111.98V60.6973L123.54 69.9763H128.696V53.1162H123.884Z" fill="#6B7280"/>
</g>
</g>
<defs>
<filter id="filter0_d_3575_23813" x="-7.47363" y="-10" width="222" height="150" filterUnits="userSpaceOnUse" color-interpolation-filters="sRGB">
<feFlood flood-opacity="0" result="BackgroundImageFix"/>
<feColorMatrix in="SourceAlpha" type="matrix" values="0 0 0 0 0 0 0 0 0 0 0 0 0 0 0 0 0 0 127 0" result="hardAlpha"/>
<feOffset dy="5"/>
<feGaussianBlur stdDeviation="7.5"/>
<feComposite in2="hardAlpha" operator="out"/>
<feColorMatrix type="matrix" values="0 0 0 0 0 0 0 0 0 0 0 0 0 0 0 0 0 0 0.1 0"/>
<feBlend mode="normal" in2="BackgroundImageFix" result="effect1_dropShadow_3575_23813"/>
<feBlend mode="normal" in="SourceGraphic" in2="effect1_dropShadow_3575_23813" result="shape"/>
</filter>
<clipPath id="clip0_3575_23813">
<rect width="176" height="50" fill="white" transform="translate(15.5264 21)"/>
</clipPath>
</defs>
</svg>
