<svg width="21" height="21" viewBox="0 0 21 21" fill="none" xmlns="http://www.w3.org/2000/svg">
<path d="M11.3371 3.13074C11.1332 2.94456 10.8169 2.95895 10.6307 3.16289C10.4446 3.36683 10.459 3.68309 10.6629 3.86927L16.8307 9.5H3C2.72386 9.5 2.5 9.72386 2.5 10C2.5 10.2761 2.72386 10.5 3 10.5H16.8279L10.6629 16.1281C10.459 16.3143 10.4446 16.6305 10.6307 16.8345C10.8169 17.0384 11.1332 17.0528 11.3371 16.8666L18.2535 10.5526C18.3934 10.4248 18.4732 10.2573 18.493 10.0841C18.4976 10.0568 18.5 10.0287 18.5 10C18.5 9.97313 18.4979 9.94675 18.4938 9.92103C18.4756 9.74512 18.3955 9.57446 18.2535 9.44478L11.3371 3.13074Z" fill="white"/>
</svg>
