<svg width="56" height="136" viewBox="0 0 56 136" fill="none" xmlns="http://www.w3.org/2000/svg">
<rect width="1" height="80" transform="translate(27.5)" fill="url(#paint0_linear_4496_35159)"/>
<rect y="80" width="56" height="56" rx="28" fill="#F97316"/>
<path d="M22 117.25C22 117.664 22.3358 118 22.75 118H33.25L33.3518 117.993C33.7178 117.943 34 117.63 34 117.25C34 116.836 33.6642 116.5 33.25 116.5L31.499 116.5V114.002L35.7488 114.002L35.9029 113.997C37.0737 113.918 37.9988 112.943 37.9988 111.752V109H33C32.4289 109 31.8938 108.722 31.5663 108.254L31.3744 107.98L29.5066 111.141C29.1673 111.715 28.5311 112.046 27.8661 111.995C27.2011 111.944 26.6229 111.519 26.3752 110.9L24.9071 107.23L24.5763 107.967C24.294 108.596 23.669 109 22.9798 109H18V111.752L18.0052 111.906C18.0844 113.077 19.0591 114.002 20.25 114.002L24.499 114.002V116.5L22.75 116.5L22.6482 116.507C22.2822 116.557 22 116.87 22 117.25ZM25.998 114.002H29.998L29.999 116.5H25.999L25.998 114.002ZM37.9988 101.25V105.5H33.9112L32.6837 103.747C32.3425 103.259 31.7771 102.979 31.1826 103.002C30.5882 103.025 30.046 103.348 29.7434 103.86L28.3034 106.297L26.6248 102.1C26.364 101.448 25.7385 101.015 25.0363 101.001C24.334 100.986 23.6912 101.393 23.4035 102.034L21.8472 105.5H18V101.25C18 100.059 18.9252 99.0844 20.096 99.0052L20.25 99H35.7488C36.9397 99 37.9145 99.9251 37.9936 101.096L37.9988 101.25ZM25.6964 102.472C25.5846 102.192 25.3165 102.007 25.0155 102.001C24.7146 101.994 24.4391 102.169 24.3158 102.443L22.4944 106.5H18.75C18.3358 106.5 18 106.836 18 107.25C18 107.665 18.3358 108 18.75 108H22.9798C23.2752 108 23.543 107.827 23.664 107.558L24.9602 104.67L27.3036 110.529C27.4098 110.794 27.6576 110.976 27.9426 110.998C28.2276 111.02 28.5003 110.878 28.6457 110.632L31.3033 106.134L32.3856 107.68C32.5259 107.881 32.7553 108 33 108H37.25C37.6642 108 38 107.665 38 107.25C38 106.836 37.6642 106.5 37.25 106.5H33.3905L31.8644 104.32C31.7182 104.111 31.4759 103.991 31.2211 104.001C30.9664 104.011 30.734 104.149 30.6043 104.369L28.13 108.556L25.6964 102.472Z" fill="white"/>
<defs>
<linearGradient id="paint0_linear_4496_35159" x1="0.5" y1="78.1921" x2="0.500021" y2="1.3712e-07" gradientUnits="userSpaceOnUse">
<stop stop-color="#F97316"/>
<stop offset="1" stop-color="#F97316" stop-opacity="0"/>
</linearGradient>
</defs>
</svg>
