<svg width="86" height="156" viewBox="0 0 86 156" fill="none" xmlns="http://www.w3.org/2000/svg">
<rect width="1" height="80" transform="translate(42.5)" fill="url(#paint0_linear_4020_34736)"/>
<g filter="url(#filter0_d_4020_34736)">
<rect x="15" y="80" width="56" height="56" rx="28" fill="#F97316"/>
<path d="M37 117.25C37 117.664 37.3358 118 37.75 118H48.25L48.3518 117.993C48.7178 117.943 49 117.63 49 117.25C49 116.836 48.6642 116.5 48.25 116.5L46.499 116.5V114.002L50.7488 114.002L50.9029 113.997C52.0737 113.918 52.9988 112.943 52.9988 111.752V109H48C47.4289 109 46.8938 108.722 46.5663 108.254L46.3744 107.98L44.5066 111.141C44.1673 111.715 43.5311 112.046 42.8661 111.995C42.2011 111.944 41.6229 111.519 41.3752 110.9L39.9071 107.23L39.5763 107.967C39.294 108.596 38.669 109 37.9798 109H33V111.752L33.0052 111.906C33.0844 113.077 34.0591 114.002 35.25 114.002L39.499 114.002V116.5L37.75 116.5L37.6482 116.507C37.2822 116.557 37 116.87 37 117.25ZM40.998 114.002H44.998L44.999 116.5H40.999L40.998 114.002ZM52.9988 101.25V105.5H48.9112L47.6837 103.747C47.3425 103.259 46.7771 102.979 46.1826 103.002C45.5882 103.025 45.046 103.348 44.7434 103.86L43.3034 106.297L41.6248 102.1C41.364 101.448 40.7385 101.015 40.0363 101.001C39.334 100.986 38.6912 101.393 38.4035 102.034L36.8472 105.5H33V101.25C33 100.059 33.9252 99.0844 35.096 99.0052L35.25 99H50.7488C51.9397 99 52.9145 99.9251 52.9936 101.096L52.9988 101.25ZM40.6964 102.472C40.5846 102.192 40.3165 102.007 40.0155 102.001C39.7146 101.994 39.4391 102.169 39.3158 102.443L37.4944 106.5H33.75C33.3358 106.5 33 106.836 33 107.25C33 107.665 33.3358 108 33.75 108H37.9798C38.2752 108 38.543 107.827 38.664 107.558L39.9602 104.67L42.3036 110.529C42.4098 110.794 42.6576 110.976 42.9426 110.998C43.2276 111.02 43.5003 110.878 43.6457 110.632L46.3033 106.134L47.3856 107.68C47.5259 107.881 47.7553 108 48 108H52.25C52.6642 108 53 107.665 53 107.25C53 106.836 52.6642 106.5 52.25 106.5H48.3905L46.8644 104.32C46.7182 104.111 46.4759 103.991 46.2211 104.001C45.9664 104.011 45.734 104.149 45.6043 104.369L43.13 108.556L40.6964 102.472Z" fill="white"/>
</g>
<defs>
<filter id="filter0_d_4020_34736" x="0" y="70" width="86" height="86" filterUnits="userSpaceOnUse" color-interpolation-filters="sRGB">
<feFlood flood-opacity="0" result="BackgroundImageFix"/>
<feColorMatrix in="SourceAlpha" type="matrix" values="0 0 0 0 0 0 0 0 0 0 0 0 0 0 0 0 0 0 127 0" result="hardAlpha"/>
<feOffset dy="5"/>
<feGaussianBlur stdDeviation="7.5"/>
<feComposite in2="hardAlpha" operator="out"/>
<feColorMatrix type="matrix" values="0 0 0 0 0 0 0 0 0 0 0 0 0 0 0 0 0 0 0.1 0"/>
<feBlend mode="normal" in2="BackgroundImageFix" result="effect1_dropShadow_4020_34736"/>
<feBlend mode="normal" in="SourceGraphic" in2="effect1_dropShadow_4020_34736" result="shape"/>
</filter>
<linearGradient id="paint0_linear_4020_34736" x1="0.5" y1="78.1921" x2="0.500021" y2="1.3712e-07" gradientUnits="userSpaceOnUse">
<stop stop-color="#F97316"/>
<stop offset="1" stop-color="#F97316" stop-opacity="0"/>
</linearGradient>
</defs>
</svg>
