<svg width="86" height="86" viewBox="0 0 86 86" fill="none" xmlns="http://www.w3.org/2000/svg">
<g filter="url(#filter0_d_4020_34975)">
<rect x="15" y="10" width="56" height="56" rx="28" fill="#F97316"/>
<path d="M42.0015 42.5008H39.9058L39.9639 42.7953C40.601 45.9051 41.8046 47.999 43.0016 47.999C43.4968 47.999 43.9932 47.6406 44.4501 47H44.0015C42.8969 47 42.0015 46.1046 42.0015 45V42.5008ZM42.0015 41.0009H39.6755C39.5625 40.0551 39.5 39.0476 39.5 38.0005C39.5 37.4862 39.5151 36.9814 39.5438 36.4887L39.577 36.0002H46.4261C46.4763 36.6457 46.5031 37.3144 46.5031 38H44.0015C42.8969 38 42.0015 38.8954 42.0015 40V41.0009ZM53.0031 38L53.0015 38H48.0031C48.0031 37.5458 47.9925 37.0976 47.9717 36.6567L47.933 36.0008L52.803 36.0002C52.9342 36.6464 53.0031 37.3151 53.0031 38ZM38.373 42.5008L34.0674 42.501L34.2137 42.7799C35.4687 45.0825 37.6023 46.8373 40.1652 47.5942C39.356 46.3545 38.7378 44.583 38.373 42.5008ZM38.0701 36.0008L33.2001 36.0002C33.0689 36.6465 33 37.3155 33 38.0005C33 39.0458 33.1604 40.0537 33.4578 41.0009H38.1605L38.1033 40.4207C38.0353 39.6396 38 38.8299 38 38.0005C38 37.319 38.0238 36.6508 38.0701 36.0008ZM45.8379 28.4068L45.9458 28.5771C46.8261 30.0078 47.4671 32.0835 47.7826 34.5005L52.3735 34.5002C51.2803 31.5744 48.8562 29.2978 45.8379 28.4068ZM40.1651 28.4069L40.0433 28.4437C37.0817 29.3594 34.7081 31.6139 33.6296 34.5002L38.2205 34.5005L38.2821 34.0606C38.6297 31.736 39.2843 29.7564 40.1651 28.4069ZM46.2155 34.1854C45.6471 30.5437 44.3203 28.002 43.0016 28.002C41.6451 28.002 40.2801 30.691 39.7407 34.5002H46.2624L46.2155 34.1854ZM43.0015 40C43.0015 39.4477 43.4492 39 44.0015 39H53.0015C53.5537 39 54.0015 39.4477 54.0015 40V45C54.0015 45.5523 53.5537 46 53.0015 46H50.0015V48H50.5015C50.7776 48 51.0015 48.2239 51.0015 48.5C51.0015 48.7761 50.7776 49 50.5015 49H46.5015C46.2253 49 46.0015 48.7761 46.0015 48.5C46.0015 48.2239 46.2253 48 46.5015 48H47.0015V46H44.0015C43.4492 46 43.0015 45.5523 43.0015 45V40Z" fill="white"/>
</g>
<defs>
<filter id="filter0_d_4020_34975" x="0" y="0" width="86" height="86" filterUnits="userSpaceOnUse" color-interpolation-filters="sRGB">
<feFlood flood-opacity="0" result="BackgroundImageFix"/>
<feColorMatrix in="SourceAlpha" type="matrix" values="0 0 0 0 0 0 0 0 0 0 0 0 0 0 0 0 0 0 127 0" result="hardAlpha"/>
<feOffset dy="5"/>
<feGaussianBlur stdDeviation="7.5"/>
<feComposite in2="hardAlpha" operator="out"/>
<feColorMatrix type="matrix" values="0 0 0 0 0 0 0 0 0 0 0 0 0 0 0 0 0 0 0.1 0"/>
<feBlend mode="normal" in2="BackgroundImageFix" result="effect1_dropShadow_4020_34975"/>
<feBlend mode="normal" in="SourceGraphic" in2="effect1_dropShadow_4020_34975" result="shape"/>
</filter>
</defs>
</svg>
