<svg width="56" height="56" viewBox="0 0 56 56" fill="none" xmlns="http://www.w3.org/2000/svg">
<rect width="56" height="56" rx="28" fill="#F97316"/>
<path d="M27.0015 32.5008H24.9058L24.9639 32.7953C25.601 35.9051 26.8046 37.999 28.0016 37.999C28.4968 37.999 28.9932 37.6406 29.4501 37H29.0015C27.8969 37 27.0015 36.1046 27.0015 35V32.5008ZM27.0015 31.0009H24.6755C24.5625 30.0551 24.5 29.0476 24.5 28.0005C24.5 27.4862 24.5151 26.9814 24.5438 26.4887L24.577 26.0002H31.4261C31.4763 26.6457 31.5031 27.3144 31.5031 28H29.0015C27.8969 28 27.0015 28.8954 27.0015 30V31.0009ZM38.0031 28L38.0015 28H33.0031C33.0031 27.5458 32.9925 27.0976 32.9717 26.6567L32.933 26.0008L37.803 26.0002C37.9342 26.6464 38.0031 27.3151 38.0031 28ZM23.373 32.5008L19.0674 32.501L19.2137 32.7799C20.4687 35.0825 22.6023 36.8373 25.1652 37.5942C24.356 36.3545 23.7378 34.583 23.373 32.5008ZM23.0701 26.0008L18.2001 26.0002C18.0689 26.6465 18 27.3155 18 28.0005C18 29.0458 18.1604 30.0537 18.4578 31.0009H23.1605L23.1033 30.4207C23.0353 29.6396 23 28.8299 23 28.0005C23 27.319 23.0238 26.6508 23.0701 26.0008ZM30.8379 18.4068L30.9458 18.5771C31.8261 20.0078 32.4671 22.0835 32.7826 24.5005L37.3735 24.5002C36.2803 21.5744 33.8562 19.2978 30.8379 18.4068ZM25.1651 18.4069L25.0433 18.4437C22.0817 19.3594 19.7081 21.6139 18.6296 24.5002L23.2205 24.5005L23.2821 24.0606C23.6297 21.736 24.2843 19.7564 25.1651 18.4069ZM31.2155 24.1854C30.6471 20.5437 29.3203 18.002 28.0016 18.002C26.6451 18.002 25.2801 20.691 24.7407 24.5002H31.2624L31.2155 24.1854ZM28.0015 30C28.0015 29.4477 28.4492 29 29.0015 29H38.0015C38.5537 29 39.0015 29.4477 39.0015 30V35C39.0015 35.5523 38.5537 36 38.0015 36H35.0015V38H35.5015C35.7776 38 36.0015 38.2239 36.0015 38.5C36.0015 38.7761 35.7776 39 35.5015 39H31.5015C31.2253 39 31.0015 38.7761 31.0015 38.5C31.0015 38.2239 31.2253 38 31.5015 38H32.0015V36H29.0015C28.4492 36 28.0015 35.5523 28.0015 35V30Z" fill="white"/>
</svg>
