<svg width="56" height="136" viewBox="0 0 56 136" fill="none" xmlns="http://www.w3.org/2000/svg">
<rect width="1" height="80" transform="translate(27.5)" fill="url(#paint0_linear_4496_35164)"/>
<rect y="80" width="56" height="56" rx="28" fill="#F97316"/>
<path d="M24.0855 114.611L30.0817 100.607C30.2991 100.099 30.8868 99.8636 31.3946 100.081C31.866 100.283 32.1026 100.804 31.96 101.284L31.9202 101.394L25.9241 115.398C25.7067 115.906 25.1189 116.141 24.6112 115.924C24.1398 115.722 23.9032 115.201 24.0458 114.721L24.0855 114.611L30.0817 100.607L24.0855 114.611ZM18.2929 107.293L22.2929 103.293C22.6834 102.903 23.3166 102.903 23.7071 103.293C24.0676 103.654 24.0953 104.221 23.7903 104.613L23.7071 104.707L20.4142 108L23.7071 111.293C24.0976 111.684 24.0976 112.317 23.7071 112.707C23.3466 113.068 22.7794 113.096 22.3871 112.791L22.2929 112.707L18.2929 108.707C17.9324 108.347 17.9047 107.78 18.2097 107.387L18.2929 107.293L22.2929 103.293L18.2929 107.293ZM32.2921 103.292C32.6526 102.931 33.2198 102.904 33.6121 103.209L33.7063 103.292L37.7071 107.293C38.0678 107.654 38.0953 108.221 37.7899 108.614L37.7066 108.708L33.7058 112.703C33.315 113.094 32.6818 113.093 32.2916 112.702C31.9313 112.342 31.904 111.774 32.2093 111.382L32.2925 111.288L35.5854 108L32.292 104.706C31.9015 104.316 31.9015 103.682 32.2921 103.292Z" fill="white"/>
<defs>
<linearGradient id="paint0_linear_4496_35164" x1="0.5" y1="78.1921" x2="0.500021" y2="1.3712e-07" gradientUnits="userSpaceOnUse">
<stop stop-color="#F97316"/>
<stop offset="1" stop-color="#F97316" stop-opacity="0"/>
</linearGradient>
</defs>
</svg>
