<svg width="544" height="64" viewBox="0 0 544 64" fill="none" xmlns="http://www.w3.org/2000/svg">
<g clip-path="url(#clip0_3982_35320)">
<path fill-rule="evenodd" clip-rule="evenodd" d="M2 7C2 4.23858 4.23858 2 7 2H57C59.7614 2 62 4.23858 62 7V57C62 59.7614 59.7614 62 57 62H7C4.23858 62 2 59.7614 2 57V7ZM47.8667 52.299C46.2105 52.299 44.983 51.7846 44.0057 50.9517C42.8651 49.9796 41.27 49.4764 39.9742 50.2292C38.7103 50.9635 38.2101 52.592 39.1754 53.6895C41.0681 55.8414 43.9899 57.3029 47.9971 57.3029C53.3524 57.3029 57.34 54.5219 57.34 49.4457C57.34 44.7371 54.6352 42.6429 49.8448 40.5886L48.4352 39.9848C46.0162 38.9371 44.9686 38.2524 44.9686 36.561C44.9686 35.1924 46.0152 34.1448 47.6667 34.1448C48.3579 34.1448 48.9441 34.2692 49.4642 34.5468C50.7838 35.251 52.359 35.8779 53.6176 35.0698C54.7774 34.3251 55.19 32.7606 54.2465 31.756C52.5558 29.9558 50.4053 29.2276 47.6667 29.2276C42.6314 29.2276 39.4095 32.4467 39.4095 36.6752C39.4095 41.2657 42.1124 43.4371 46.181 45.1705L47.5905 45.7752C50.1619 46.9 51.6952 47.5848 51.6952 49.5181C51.6952 51.1314 50.2029 52.299 47.8667 52.299ZM26.0162 52.2638C25.2039 52.2638 24.5906 52.0302 24.0869 51.6431C22.845 50.6886 21.2788 50.0351 19.939 50.8463C18.7226 51.5827 18.2212 53.1611 19.1394 54.2468C20.6489 56.0316 22.9398 57.2924 26.2562 57.2924C31.2524 57.2924 34.6752 54.6352 34.6752 48.7971V32.3686C34.6752 30.8117 33.4131 29.5495 31.8562 29.5495C30.2993 29.5495 29.0371 30.8117 29.0371 32.3686V48.721C29.0371 51.5391 27.8686 52.2638 26.0162 52.2638Z" fill="#9CA3AF"/>
<mask id="mask0_3982_35320" style="mask-type:luminance" maskUnits="userSpaceOnUse" x="120" y="0" width="64" height="64">
<path d="M120 0H184V64H120V0Z" fill="white"/>
</mask>
<g mask="url(#mask0_3982_35320)">
<path d="M182.207 29.1763L154.525 1.25724C154.146 0.874755 153.696 0.571343 153.201 0.364335C152.705 0.157328 152.174 0.0507812 151.638 0.0507813C151.102 0.0507812 150.571 0.157328 150.076 0.364335C149.58 0.571343 149.13 0.874755 148.751 1.25724L143.003 7.0545L150.293 14.4109C151.151 14.1162 152.072 14.0696 152.954 14.2765C153.836 14.4833 154.643 14.9354 155.283 15.5813C155.927 16.2313 156.376 17.0507 156.58 17.9459C156.783 18.841 156.733 19.776 156.435 20.6439L163.463 27.7343C164.323 27.4327 165.25 27.3817 166.138 27.5874C167.026 27.793 167.838 28.2469 168.481 28.897C168.933 29.3517 169.291 29.8917 169.536 30.4862C169.78 31.0807 169.906 31.718 169.906 32.3615C169.906 33.0051 169.78 33.6424 169.536 34.2369C169.291 34.8314 168.933 35.3714 168.481 35.8261C168.03 36.2817 167.495 36.6432 166.905 36.8898C166.315 37.1364 165.683 37.2633 165.045 37.2633C164.407 37.2633 163.775 37.1364 163.185 36.8898C162.596 36.6432 162.06 36.2817 161.609 35.8261C160.932 35.142 160.47 34.2711 160.282 33.323C160.094 32.3749 160.188 31.3918 160.552 30.4975L153.998 23.8863V41.283C154.474 41.5189 154.908 41.8318 155.283 42.2092C156.195 43.1287 156.706 44.3755 156.706 45.6755C156.706 46.9755 156.195 48.2223 155.283 49.1418C153.384 51.0546 150.307 51.0546 148.414 49.1418C147.962 48.6869 147.604 48.1466 147.359 47.5518C147.114 46.957 146.989 46.3194 146.989 45.6755C146.989 45.0316 147.114 44.394 147.359 43.7992C147.604 43.2045 147.962 42.6642 148.414 42.2092C148.867 41.7491 149.408 41.3857 150.003 41.1406V23.5818C149.408 23.3367 148.867 22.9733 148.414 22.5132C147.732 21.8256 147.268 20.949 147.081 19.9948C146.894 19.0406 146.993 18.0519 147.365 17.1544L140.177 9.90191L121.196 29.0472C120.817 29.4295 120.516 29.8836 120.311 30.3833C120.106 30.883 120 31.4186 120 31.9595C120 32.5004 120.106 33.036 120.311 33.5357C120.516 34.0354 120.817 34.4894 121.196 34.8718L148.879 62.7937C149.258 63.1761 149.708 63.4795 150.203 63.6866C150.698 63.8936 151.229 64.0001 151.765 64.0001C152.302 64.0001 152.833 63.8936 153.328 63.6866C153.823 63.4795 154.273 63.1761 154.652 62.7937L182.207 35.0037C182.973 34.2309 183.404 33.1828 183.404 32.09C183.404 30.9972 182.973 29.9491 182.207 29.1763Z" fill="#9CA3AF"/>
</g>
<g clip-path="url(#clip1_3982_35320)">
<mask id="mask1_3982_35320" style="mask-type:alpha" maskUnits="userSpaceOnUse" x="240" y="0" width="64" height="64">
<path fill-rule="evenodd" clip-rule="evenodd" d="M285.384 63.563C286.392 63.9557 287.541 63.9305 288.558 63.4409L301.735 57.1006C303.119 56.4344 304 55.0331 304 53.4958V10.5045C304 8.96723 303.12 7.56595 301.735 6.89971L288.558 0.559203C287.223 -0.083283 285.661 0.074086 284.489 0.926048C284.321 1.04775 284.162 1.18363 284.012 1.33338L258.787 24.3466L247.8 16.0061C246.777 15.2298 245.346 15.2934 244.396 16.1575L240.872 19.3631C239.71 20.4201 239.709 22.2481 240.869 23.3069L250.398 32.0001L240.869 40.6932C239.709 41.7519 239.71 43.58 240.872 44.637L244.396 47.8426C245.346 48.7068 246.777 48.7704 247.8 47.9939L258.787 39.6536L284.012 62.6667C284.411 63.066 284.88 63.3667 285.384 63.563ZM288.01 17.4713L268.87 32.0001L288.01 46.5288V17.4713Z" fill="white"/>
</mask>
<g mask="url(#mask1_3982_35320)">
<path d="M301.735 6.91002L288.548 0.560796C287.022 -0.174125 285.198 0.13588 284 1.33378L240.831 40.6937C239.67 41.7523 239.671 43.5804 240.834 44.6374L244.36 47.843C245.311 48.7071 246.742 48.7708 247.765 47.9944L299.751 8.55719C301.495 7.23411 304 8.47802 304 10.6671V10.514C304 8.97741 303.12 7.57664 301.735 6.91002Z" fill="#9CA3AF"/>
<g filter="url(#filter0_d_3982_35320)">
<path d="M301.735 57.0904L288.548 63.4396C287.022 64.1747 285.198 63.8645 284 62.6666L240.831 23.3068C239.67 22.2481 239.671 20.42 240.834 19.363L244.36 16.1574C245.311 15.2933 246.742 15.2296 247.765 16.006L299.751 55.4432C301.495 56.7663 304 55.5224 304 53.3333V53.4864C304 55.023 303.12 56.4237 301.735 57.0904Z" fill="#9CA3AF"/>
</g>
<g filter="url(#filter1_d_3982_35320)">
<path d="M288.549 63.4409C287.022 64.1754 285.198 63.8647 284 62.6667C285.476 64.1428 288 63.0974 288 61.0099V2.99024C288 0.902728 285.476 -0.142709 284 1.33338C285.198 0.135376 287.022 -0.175068 288.549 0.559204L301.734 6.89973C303.119 7.56597 304 8.96725 304 10.5045V53.4958C304 55.0331 303.119 56.4344 301.734 57.1006L288.549 63.4409Z" fill="#9CA3AF"/>
</g>
<g style="mix-blend-mode:overlay" opacity="0.25">
<path fill-rule="evenodd" clip-rule="evenodd" d="M285.345 63.563C286.353 63.9556 287.502 63.9305 288.519 63.4409L301.696 57.1006C303.08 56.4344 303.961 55.0331 303.961 53.4958V10.5046C303.961 8.96721 303.08 7.56593 301.696 6.89969L288.519 0.559204C287.184 -0.0832826 285.621 0.0740864 284.45 0.926042C284.282 1.04775 284.123 1.18364 283.973 1.33338L258.748 24.3465L247.761 16.0062C246.738 15.2297 245.307 15.2934 244.357 16.1575L240.833 19.3631C239.671 20.4201 239.67 22.2482 240.83 23.3069L250.359 32L240.83 40.6933C239.67 41.752 239.671 43.58 240.833 44.637L244.357 47.8426C245.307 48.7067 246.738 48.7703 247.761 47.994L258.748 39.6535L283.973 62.6667C284.372 63.066 284.841 63.3667 285.345 63.563ZM287.971 17.4713L268.831 32L287.971 46.5288V17.4713Z" fill="#9CA3AF"/>
</g>
</g>
</g>
<path d="M401.165 39.9592C400.062 39.9257 398.987 40.3082 398.153 41.0307C397.32 41.7533 396.788 42.763 396.665 43.8592C396.659 43.8805 396.659 43.9027 396.663 43.9241C396.668 43.9456 396.677 43.9657 396.691 43.9828C396.705 43.9999 396.722 44.0136 396.742 44.0228C396.762 44.032 396.784 44.0364 396.806 44.0357H405.541C405.561 44.0359 405.581 44.0317 405.6 44.0236C405.618 44.0154 405.634 44.0034 405.648 43.9883C405.661 43.9733 405.671 43.9556 405.677 43.9364C405.683 43.9171 405.685 43.8969 405.682 43.8769C405.596 42.7608 405.074 41.7235 404.228 40.9901C403.383 40.2567 402.282 39.8863 401.165 39.9592Z" fill="#9CA3AF"/>
<path d="M419.889 10.6647L401.36 31.4706C401.307 31.5278 401.243 31.5734 401.171 31.6047C401.1 31.6359 401.023 31.652 400.945 31.652C400.867 31.652 400.79 31.6359 400.719 31.6047C400.647 31.5734 400.583 31.5278 400.53 31.4706L391.071 21.7118C390.991 21.6116 390.947 21.4871 390.947 21.3588C390.947 21.2305 390.991 21.106 391.071 21.0059L394.195 17C394.247 16.9271 394.316 16.8678 394.396 16.8268C394.476 16.7859 394.564 16.7645 394.654 16.7645C394.743 16.7645 394.832 16.7859 394.912 16.8268C394.991 16.8678 395.06 16.9271 395.113 17L400.407 22.8588C400.46 22.9219 400.526 22.9726 400.6 23.0074C400.675 23.0422 400.757 23.0603 400.839 23.0603C400.921 23.0603 401.003 23.0422 401.077 23.0074C401.152 22.9726 401.218 22.9219 401.271 22.8588L416.024 2.63529C416.065 2.57553 416.09 2.50586 416.095 2.43353C416.1 2.36121 416.085 2.28886 416.053 2.22401C416.02 2.15917 415.971 2.10419 415.91 2.06479C415.849 2.0254 415.779 2.00303 415.707 2H363.754C363.637 2 363.524 2.04648 363.442 2.12922C363.359 2.21195 363.312 2.32417 363.312 2.44118V61.5588C363.312 61.6758 363.359 61.788 363.442 61.8708C363.524 61.9535 363.637 62 363.754 62H420.224C420.341 62 420.453 61.9535 420.536 61.8708C420.619 61.788 420.665 61.6758 420.665 61.5588V10.9294C420.701 10.8264 420.693 10.7138 420.645 10.6161C420.597 10.5185 420.513 10.4439 420.41 10.4088C420.307 10.3737 420.194 10.381 420.096 10.4289C419.999 10.4769 419.924 10.5617 419.889 10.6647ZM379.301 55.4176C375.594 55.6045 371.96 54.3383 369.171 51.8882C369.083 51.7883 369.035 51.6597 369.035 51.5265C369.035 51.3933 369.083 51.2646 369.171 51.1647L371.377 48.0765C371.414 48.0132 371.462 47.9579 371.52 47.9138C371.579 47.8696 371.645 47.8376 371.716 47.8195C371.786 47.8014 371.86 47.7976 371.932 47.8084C372.004 47.8192 372.074 47.8444 372.136 47.8824C374.151 49.7506 376.8 50.7849 379.548 50.7765C382.442 50.7765 383.854 49.4353 383.854 48.0235C383.854 43.6471 369.595 46.6471 369.595 37.3294C369.595 33.2176 373.124 29.7941 378.983 29.7941C382.345 29.6746 385.637 30.778 388.248 32.9C388.346 33.0019 388.401 33.1379 388.401 33.2794C388.401 33.4209 388.346 33.5569 388.248 33.6588L386.077 36.6765C386.032 36.7365 385.976 36.7867 385.911 36.8239C385.846 36.8611 385.774 36.8846 385.699 36.8929C385.625 36.9011 385.549 36.894 385.478 36.872C385.406 36.8499 385.34 36.8134 385.283 36.7647C383.358 35.2346 380.966 34.4123 378.507 34.4353C376.248 34.4353 374.977 35.4412 374.977 36.9235C374.977 40.8588 389.201 38.2294 389.201 47.5118C389.201 51.9941 385.971 55.4176 379.283 55.4176H379.301ZM410.395 46.8235C410.397 46.8891 410.386 46.9544 410.362 47.0155C410.338 47.0766 410.302 47.132 410.256 47.1784C410.209 47.2248 410.154 47.2611 410.093 47.2851C410.032 47.309 409.966 47.3201 409.901 47.3176H396.842C396.821 47.3198 396.801 47.3262 396.782 47.3362C396.764 47.3463 396.748 47.36 396.734 47.3764C396.721 47.3928 396.712 47.4117 396.706 47.4319C396.7 47.4521 396.698 47.4732 396.701 47.4941C396.913 48.7144 397.573 49.8113 398.553 50.5689C399.533 51.3266 400.761 51.6902 401.995 51.5882C403.615 51.5539 405.187 51.0379 406.513 50.1059C406.564 50.0625 406.625 50.0307 406.69 50.0124C406.754 49.9941 406.823 49.9898 406.889 49.9998C406.956 50.0098 407.02 50.0339 407.077 50.0704C407.133 50.107 407.182 50.1551 407.218 50.2118L408.807 52.5235C408.873 52.6262 408.899 52.7498 408.879 52.8703C408.859 52.9909 408.796 53.1 408.701 53.1765C406.604 54.7066 404.06 55.5007 401.465 55.4353C400.169 55.5076 398.872 55.3082 397.657 54.85C396.443 54.3917 395.337 53.6846 394.412 52.7741C393.486 51.8636 392.761 50.7698 392.283 49.5627C391.805 48.3556 391.585 47.062 391.636 45.7647C391.6 44.4986 391.821 43.2383 392.286 42.06C392.751 40.8817 393.45 39.8099 394.34 38.9093C395.231 38.0087 396.295 37.298 397.468 36.8202C398.641 36.3424 399.899 36.1074 401.165 36.1294C406.654 36.1294 410.377 40.2412 410.377 46.2588L410.395 46.8235Z" fill="#9CA3AF"/>
<path fill-rule="evenodd" clip-rule="evenodd" d="M532.579 36.1344C535.139 36.1344 537.221 34.0516 537.221 31.4917C537.221 28.9319 535.139 26.8494 532.579 26.8494C530.019 26.8494 527.936 28.9319 527.936 31.4917C527.936 34.0516 530.019 36.1344 532.579 36.1344ZM530.798 24.0607L538.277 2H506.609L514.063 23.9968C514.401 24.064 514.731 24.1548 515.051 24.2652L522.461 9.28091L529.85 24.3544C530.157 24.2365 530.473 24.1385 530.798 24.0607ZM517.211 31.4917C517.211 28.9319 515.128 26.8494 512.568 26.8494C510.009 26.8494 507.926 28.9319 507.926 31.4917C507.926 34.0516 510.009 36.1344 512.568 36.1344C515.128 36.1344 517.211 34.0516 517.211 31.4917ZM497.125 31.5359C497.125 28.976 495.042 26.8935 492.482 26.8935C489.922 26.8935 487.84 28.976 487.84 31.5359C487.84 34.0957 489.922 36.1785 492.482 36.1785C495.042 36.1785 497.125 34.0957 497.125 31.5359ZM533.364 49.7091C535.715 48.3478 537.322 46.0746 537.774 43.4725C538.116 41.5018 537.796 39.5233 536.937 37.765C535.7 38.6272 534.198 39.1347 532.579 39.1347C528.402 39.1347 524.997 35.7667 524.937 31.6035L520.211 31.5351C520.188 35.7298 516.768 39.1347 512.568 39.1347C512.179 39.1347 511.797 39.105 511.424 39.0488C510.179 41.0139 508.665 42.853 506.903 44.5151C504.177 47.0867 501.104 48.9927 497.769 50.1804L497.157 50.3981L496.58 50.1015C492.362 47.9342 490.352 43.3481 491.63 39.13C490.939 39.053 490.277 38.8833 489.654 38.6342C489.447 39.0686 489.236 39.5058 489.019 39.9521C487.764 42.5311 486.465 45.1979 485.985 48.0934C485.467 51.2188 485.262 56.9223 489.709 60.0048C495.781 64.213 502.221 61.0148 509.677 57.3112C513.403 55.4604 517.256 53.5467 521.234 52.5659C522.738 52.1947 524.279 51.9725 525.768 51.7578C528.548 51.357 531.173 50.9782 533.364 49.7091Z" fill="#9CA3AF"/>
</g>
<defs>
<filter id="filter0_d_3982_35320" x="231.628" y="7.13053" width="80.7057" height="65.0368" filterUnits="userSpaceOnUse" color-interpolation-filters="sRGB">
<feFlood flood-opacity="0" result="BackgroundImageFix"/>
<feColorMatrix in="SourceAlpha" type="matrix" values="0 0 0 0 0 0 0 0 0 0 0 0 0 0 0 0 0 0 127 0" result="hardAlpha"/>
<feOffset/>
<feGaussianBlur stdDeviation="4.16667"/>
<feColorMatrix type="matrix" values="0 0 0 0 0 0 0 0 0 0 0 0 0 0 0 0 0 0 0.25 0"/>
<feBlend mode="overlay" in2="BackgroundImageFix" result="effect1_dropShadow_3982_35320"/>
<feBlend mode="normal" in="SourceGraphic" in2="effect1_dropShadow_3982_35320" result="shape"/>
</filter>
<filter id="filter1_d_3982_35320" x="275.667" y="-8.1683" width="36.6667" height="80.3366" filterUnits="userSpaceOnUse" color-interpolation-filters="sRGB">
<feFlood flood-opacity="0" result="BackgroundImageFix"/>
<feColorMatrix in="SourceAlpha" type="matrix" values="0 0 0 0 0 0 0 0 0 0 0 0 0 0 0 0 0 0 127 0" result="hardAlpha"/>
<feOffset/>
<feGaussianBlur stdDeviation="4.16667"/>
<feColorMatrix type="matrix" values="0 0 0 0 0 0 0 0 0 0 0 0 0 0 0 0 0 0 0.25 0"/>
<feBlend mode="overlay" in2="BackgroundImageFix" result="effect1_dropShadow_3982_35320"/>
<feBlend mode="normal" in="SourceGraphic" in2="effect1_dropShadow_3982_35320" result="shape"/>
</filter>
<clipPath id="clip0_3982_35320">
<rect width="544" height="64" fill="white"/>
</clipPath>
<clipPath id="clip1_3982_35320">
<rect width="64" height="64" fill="white" transform="translate(240)"/>
</clipPath>
</defs>
</svg>
