<svg width="600" height="408" viewBox="0 0 600 408" fill="none" xmlns="http://www.w3.org/2000/svg">
<path opacity="0.8" d="M581 361C581 324.361 573.745 288.081 559.648 254.231C545.552 220.381 524.89 189.625 498.843 163.717C472.797 137.81 441.875 117.259 407.843 103.238C373.811 89.2165 337.336 82 300.5 82C263.664 82 227.189 89.2166 193.157 103.238C159.125 117.259 128.203 137.81 102.157 163.717C76.1097 189.625 55.4482 220.382 41.3518 254.231C27.2553 288.081 20 324.361 20 361L300.5 361H581Z" fill="url(#paint0_angular_3491_17562)"/>
<path fill-rule="evenodd" clip-rule="evenodd" d="M582 357.8C581.758 321.812 574.485 286.204 560.578 252.944C546.431 219.111 525.695 188.37 499.555 162.476C473.415 136.581 442.382 116.041 408.228 102.027C374.074 88.0127 337.468 80.7998 300.5 80.7998C263.532 80.7998 226.926 88.0127 192.772 102.027C158.618 116.041 127.585 136.581 101.445 162.476C75.3047 188.37 54.5691 219.111 40.4221 252.944C26.5145 286.204 19.2422 321.812 19 357.8H20.8768C21.1189 322.056 28.3427 286.69 42.156 253.656C56.2087 220.048 76.806 189.512 102.772 163.79C128.738 138.068 159.564 117.665 193.49 103.744C227.417 89.8237 263.779 82.6589 300.5 82.6589C337.221 82.6589 373.583 89.8237 407.51 103.744C441.436 117.665 472.262 138.068 498.228 163.79C524.194 189.512 544.791 220.048 558.844 253.656C572.657 286.69 579.881 322.056 580.123 357.8H582Z" fill="url(#paint1_radial_3491_17562)"/>
<path d="M500 361.5C500 335.301 494.827 309.359 484.776 285.155C474.725 260.95 459.993 238.957 441.421 220.432C422.85 201.907 400.802 187.212 376.537 177.186C352.272 167.16 326.264 162 300 162C273.736 162 247.728 167.16 223.463 177.186C199.198 187.212 177.15 201.907 158.579 220.432C140.007 238.957 125.275 260.95 115.224 285.155C105.173 309.359 100 335.301 100 361.5L300 361.5H500Z" fill="url(#paint2_linear_3491_17562)"/>
<path opacity="0.9" fill-rule="evenodd" clip-rule="evenodd" d="M500.905 362C500.732 336.016 495.54 310.306 485.612 286.292C475.513 261.864 460.711 239.668 442.05 220.972C423.39 202.275 401.236 187.445 376.855 177.326C352.474 167.208 326.342 162 299.952 162C273.562 162 247.431 167.208 223.05 177.326C198.668 187.445 176.515 202.275 157.854 220.972C139.194 239.668 124.391 261.864 114.292 286.292C104.364 310.306 99.1729 336.016 99 362H100.34C100.513 336.192 105.669 310.657 115.53 286.806C125.562 262.54 140.266 240.493 158.802 221.921C177.338 203.349 199.344 188.617 223.562 178.566C247.781 168.515 273.738 163.342 299.952 163.342C326.166 163.342 352.124 168.515 376.343 178.566C400.561 188.617 422.567 203.349 441.103 221.921C459.639 240.493 474.343 262.54 484.375 286.806C494.235 310.657 499.392 336.192 499.565 362H500.905Z" fill="url(#paint3_radial_3491_17562)"/>
<path d="M420.5 362C420.5 346.11 417.37 330.376 411.289 315.695C405.209 301.015 396.296 287.676 385.06 276.44C373.824 265.204 360.485 256.291 345.805 250.211C331.124 244.13 315.39 241 299.5 241C283.61 241 267.876 244.13 253.195 250.211C238.515 256.291 225.176 265.204 213.94 276.44C202.704 287.676 193.791 301.015 187.711 315.695C181.63 330.376 178.5 346.11 178.5 362L299.5 362H420.5Z" fill="url(#paint4_linear_3491_17562)"/>
<path fill-rule="evenodd" clip-rule="evenodd" d="M421.152 362C421.048 346.28 417.907 330.725 411.9 316.197C405.791 301.418 396.835 287.989 385.545 276.678C374.256 265.367 360.853 256.394 346.102 250.272C331.352 244.151 315.542 241 299.576 241C283.61 241 267.801 244.151 253.05 250.272C238.299 256.394 224.897 265.367 213.607 276.678C202.317 287.989 193.362 301.418 187.252 316.197C181.245 330.725 178.105 346.28 178 362H178.811C178.915 346.386 182.035 330.938 188.001 316.507C194.07 301.827 202.966 288.488 214.18 277.252C225.394 266.016 238.708 257.103 253.36 251.023C268.012 244.942 283.717 241.812 299.576 241.812C315.436 241.812 331.14 244.942 345.792 251.023C360.445 257.103 373.758 266.016 384.972 277.252C396.187 288.488 405.082 301.827 411.152 316.507C417.117 330.938 420.237 346.386 420.342 362H421.152Z" fill="url(#paint5_radial_3491_17562)"/>
<rect width="1" height="281" transform="translate(299.5 81)" fill="url(#paint6_linear_3491_17562)"/>
<rect width="1" height="279.25" transform="translate(439.918 119.578) rotate(30)" fill="url(#paint7_linear_3491_17562)"/>
<rect width="1" height="280.288" transform="matrix(-0.866025 0.5 0.5 0.866025 160.258 118.624)" fill="url(#paint8_linear_3491_17562)"/>
<rect width="1" height="279.402" transform="translate(543.32 221.299) rotate(60)" fill="url(#paint9_linear_3491_17562)"/>
<rect width="1" height="279.242" transform="matrix(-0.5 0.866025 0.866025 0.5 57.543 221.379)" fill="url(#paint10_linear_3491_17562)"/>
<path d="M23.3431 361C23.3089 360.885 23.2687 360.772 23.2226 360.661C23.0467 360.236 22.7889 359.85 22.4639 359.525C22.1389 359.2 21.7531 358.942 21.3284 358.766C20.9038 358.591 20.4487 358.5 19.989 358.5C19.5294 358.5 19.0743 358.591 18.6497 358.766C18.225 358.942 17.8392 359.2 17.5142 359.525C17.1892 359.85 16.9314 360.236 16.7555 360.661C16.7094 360.772 16.6692 360.885 16.6349 361L23.3431 361Z" fill="#F9FAFB"/>
<path d="M23.2226 360.661C23.2687 360.772 23.3089 360.885 23.3431 361H24.3765C24.3204 360.754 24.2436 360.512 24.1465 360.278C23.9204 359.732 23.5889 359.236 23.171 358.818C22.7532 358.4 22.2571 358.069 21.7111 357.843C21.1652 357.616 20.58 357.5 19.989 357.5C19.3981 357.5 18.8129 357.616 18.267 357.843C17.721 358.069 17.2249 358.4 16.8071 358.818C16.3892 359.236 16.0577 359.732 15.8316 360.278C15.7345 360.512 15.6577 360.754 15.6016 361L16.6349 361C16.6692 360.885 16.7094 360.772 16.7555 360.661C16.9314 360.236 17.1892 359.85 17.5142 359.525C17.8392 359.2 18.225 358.942 18.6497 358.766C19.0743 358.591 19.5294 358.5 19.989 358.5C20.4487 358.5 20.9038 358.591 21.3284 358.766C21.7531 358.942 22.1389 359.2 22.4639 359.525C22.7889 359.85 23.0467 360.236 23.2226 360.661Z" fill="url(#paint11_linear_3491_17562)"/>
<path d="M584.441 361C584.407 360.885 584.366 360.772 584.32 360.661C584.144 360.236 583.887 359.85 583.562 359.525C583.237 359.2 582.851 358.942 582.426 358.766C582.001 358.591 581.546 358.5 581.087 358.5C580.627 358.5 580.172 358.591 579.747 358.766C579.323 358.942 578.937 359.2 578.612 359.525C578.287 359.85 578.029 360.236 577.853 360.661C577.807 360.772 577.767 360.885 577.733 361L584.441 361Z" fill="#F9FAFB"/>
<path d="M584.32 360.661C584.366 360.772 584.407 360.885 584.441 361H585.474C585.418 360.754 585.341 360.512 585.244 360.278C585.018 359.732 584.687 359.236 584.269 358.818C583.851 358.4 583.355 358.069 582.809 357.843C582.263 357.616 581.678 357.5 581.087 357.5C580.496 357.5 579.911 357.616 579.365 357.843C578.819 358.069 578.323 358.4 577.905 358.818C577.487 359.236 577.155 359.732 576.929 360.278C576.832 360.512 576.755 360.754 576.699 361L577.733 361C577.767 360.885 577.807 360.772 577.853 360.661C578.029 360.236 578.287 359.85 578.612 359.525C578.937 359.2 579.323 358.942 579.747 358.766C580.172 358.591 580.627 358.5 581.087 358.5C581.546 358.5 582.001 358.591 582.426 358.766C582.851 358.942 583.237 359.2 583.562 359.525C583.887 359.85 584.144 360.236 584.32 360.661Z" fill="url(#paint12_linear_3491_17562)"/>
<path d="M103.042 361C103.008 360.885 102.968 360.772 102.922 360.661C102.746 360.236 102.488 359.85 102.163 359.525C101.838 359.2 101.452 358.942 101.028 358.766C100.603 358.591 100.148 358.5 99.6883 358.5C99.2286 358.5 98.7735 358.591 98.3489 358.766C97.9242 358.942 97.5384 359.2 97.2134 359.525C96.8884 359.85 96.6306 360.236 96.4547 360.661C96.4086 360.772 96.3684 360.885 96.3342 361L103.042 361Z" fill="#F9FAFB"/>
<path d="M102.922 360.661C102.968 360.772 103.008 360.885 103.042 361H104.076C104.02 360.754 103.943 360.512 103.846 360.278C103.62 359.732 103.288 359.236 102.87 358.818C102.452 358.4 101.956 358.069 101.41 357.843C100.864 357.616 100.279 357.5 99.6883 357.5C99.0973 357.5 98.5122 357.616 97.9662 357.843C97.4202 358.069 96.9241 358.4 96.5063 358.818C96.0884 359.236 95.757 359.732 95.5308 360.278C95.4337 360.512 95.3569 360.754 95.3008 361L96.3342 361C96.3684 360.885 96.4086 360.772 96.4547 360.661C96.6306 360.236 96.8884 359.85 97.2134 359.525C97.5384 359.2 97.9242 358.942 98.3489 358.766C98.7735 358.591 99.2286 358.5 99.6883 358.5C100.148 358.5 100.603 358.591 101.028 358.766C101.452 358.942 101.838 359.2 102.163 359.525C102.488 359.85 102.746 360.236 102.922 360.661Z" fill="url(#paint13_linear_3491_17562)"/>
<path d="M503.542 361C503.508 360.885 503.468 360.772 503.422 360.661C503.246 360.236 502.988 359.85 502.663 359.525C502.338 359.2 501.952 358.942 501.528 358.766C501.103 358.591 500.648 358.5 500.188 358.5C499.729 358.5 499.274 358.591 498.849 358.766C498.424 358.942 498.038 359.2 497.713 359.525C497.388 359.85 497.131 360.236 496.955 360.661C496.909 360.772 496.868 360.885 496.834 361L503.542 361Z" fill="#F9FAFB"/>
<path d="M503.422 360.661C503.468 360.772 503.508 360.885 503.542 361H504.576C504.52 360.754 504.443 360.512 504.346 360.278C504.12 359.732 503.788 359.236 503.37 358.818C502.952 358.4 502.456 358.069 501.91 357.843C501.364 357.616 500.779 357.5 500.188 357.5C499.597 357.5 499.012 357.616 498.466 357.843C497.92 358.069 497.424 358.4 497.006 358.818C496.588 359.236 496.257 359.732 496.031 360.278C495.934 360.512 495.857 360.754 495.801 361L496.834 361C496.868 360.885 496.909 360.772 496.955 360.661C497.131 360.236 497.388 359.85 497.713 359.525C498.038 359.2 498.424 358.942 498.849 358.766C499.274 358.591 499.729 358.5 500.188 358.5C500.648 358.5 501.103 358.591 501.528 358.766C501.952 358.942 502.338 359.2 502.663 359.525C502.988 359.85 503.246 360.236 503.422 360.661Z" fill="url(#paint14_linear_3491_17562)"/>
<path d="M181.843 361C181.809 360.885 181.769 360.772 181.723 360.661C181.547 360.236 181.289 359.85 180.964 359.525C180.639 359.2 180.253 358.942 179.828 358.766C179.404 358.591 178.949 358.5 178.489 358.5C178.029 358.5 177.574 358.591 177.15 358.766C176.725 358.942 176.339 359.2 176.014 359.525C175.689 359.85 175.431 360.236 175.255 360.661C175.209 360.772 175.169 360.885 175.135 361L181.843 361Z" fill="#F9FAFB"/>
<path d="M181.723 360.661C181.769 360.772 181.809 360.885 181.843 361H182.877C182.82 360.754 182.744 360.512 182.647 360.278C182.42 359.732 182.089 359.236 181.671 358.818C181.253 358.4 180.757 358.069 180.211 357.843C179.665 357.616 179.08 357.5 178.489 357.5C177.898 357.5 177.313 357.616 176.767 357.843C176.221 358.069 175.725 358.4 175.307 358.818C174.889 359.236 174.558 359.732 174.332 360.278C174.235 360.512 174.158 360.754 174.102 361L175.135 361C175.169 360.885 175.209 360.772 175.255 360.661C175.431 360.236 175.689 359.85 176.014 359.525C176.339 359.2 176.725 358.942 177.15 358.766C177.574 358.591 178.029 358.5 178.489 358.5C178.949 358.5 179.404 358.591 179.828 358.766C180.253 358.942 180.639 359.2 180.964 359.525C181.289 359.85 181.547 360.236 181.723 360.661Z" fill="url(#paint15_linear_3491_17562)"/>
<path d="M424.242 361C424.207 360.885 424.167 360.772 424.121 360.661C423.945 360.236 423.687 359.85 423.362 359.525C423.037 359.2 422.652 358.942 422.227 358.766C421.802 358.591 421.347 358.5 420.887 358.5C420.428 358.5 419.973 358.591 419.548 358.766C419.123 358.942 418.738 359.2 418.413 359.525C418.088 359.85 417.83 360.236 417.654 360.661C417.608 360.772 417.568 360.885 417.533 361L424.242 361Z" fill="#F9FAFB"/>
<path d="M424.121 360.661C424.167 360.772 424.207 360.885 424.242 361H425.275C425.219 360.754 425.142 360.512 425.045 360.278C424.819 359.732 424.487 359.236 424.069 358.818C423.652 358.4 423.156 358.069 422.61 357.843C422.064 357.616 421.478 357.5 420.887 357.5C420.297 357.5 419.711 357.616 419.165 357.843C418.619 358.069 418.123 358.4 417.706 358.818C417.288 359.236 416.956 359.732 416.73 360.278C416.633 360.512 416.556 360.754 416.5 361L417.533 361C417.568 360.885 417.608 360.772 417.654 360.661C417.83 360.236 418.088 359.85 418.413 359.525C418.738 359.2 419.123 358.942 419.548 358.766C419.973 358.591 420.428 358.5 420.887 358.5C421.347 358.5 421.802 358.591 422.227 358.766C422.652 358.942 423.037 359.2 423.362 359.525C423.687 359.85 423.945 360.236 424.121 360.661Z" fill="url(#paint16_linear_3491_17562)"/>
<g opacity="0.1" filter="url(#filter0_f_3491_17562)">
<circle cx="473" cy="262" r="28" fill="#FDBA74"/>
</g>
<g opacity="0.1" filter="url(#filter1_f_3491_17562)">
<circle cx="473" cy="262" r="12" fill="#FDBA74"/>
</g>
<g opacity="0.3" filter="url(#filter2_f_3491_17562)">
<circle cx="473" cy="262" r="7" fill="#FDBA74"/>
</g>
<circle cx="473" cy="262" r="4" fill="#F97316"/>
<g opacity="0.1" filter="url(#filter3_f_3491_17562)">
<circle cx="361" cy="258.5" r="28" fill="#FDBA74"/>
</g>
<g opacity="0.1" filter="url(#filter4_f_3491_17562)">
<circle cx="361" cy="258.5" r="12" fill="#FDBA74"/>
</g>
<g opacity="0.3" filter="url(#filter5_f_3491_17562)">
<circle cx="361" cy="258.5" r="7" fill="#FDBA74"/>
</g>
<circle cx="361" cy="258.5" r="3.5" fill="#F97316" stroke="#F97316"/>
<g opacity="0.1" filter="url(#filter6_f_3491_17562)">
<circle cx="200.5" cy="189" r="28" fill="#FDBA74"/>
</g>
<g opacity="0.1" filter="url(#filter7_f_3491_17562)">
<circle cx="200.5" cy="189" r="12" fill="#FDBA74"/>
</g>
<g opacity="0.3" filter="url(#filter8_f_3491_17562)">
<circle cx="200.5" cy="189" r="7" fill="#FDBA74"/>
</g>
<circle cx="200.5" cy="189" r="4" fill="#F97316"/>
<rect width="1" height="300" transform="matrix(0 -1 1 0 0 362)" fill="url(#paint17_linear_3491_17562)"/>
<rect width="1" height="300" transform="matrix(0 1 -1 0 600 361)" fill="url(#paint18_linear_3491_17562)"/>
<rect width="1" height="362" transform="translate(299.5)" fill="url(#paint19_linear_3491_17562)"/>
<circle cx="300" cy="241.5" r="3" fill="#F9FAFB" stroke="#F97316"/>
<circle cx="300" cy="162.5" r="3" fill="#F9FAFB" stroke="#F97316"/>
<path d="M303.242 82.7002C303.207 82.8151 303.167 82.9284 303.121 83.0396C302.945 83.4642 302.687 83.8501 302.362 84.1751C302.037 84.5001 301.652 84.7579 301.227 84.9338C300.802 85.1097 300.347 85.2002 299.887 85.2002C299.428 85.2002 298.973 85.1097 298.548 84.9338C298.123 84.7579 297.738 84.5001 297.413 84.1751C297.088 83.8501 296.83 83.4642 296.654 83.0396C296.608 82.9284 296.568 82.8151 296.533 82.7002L303.242 82.7002Z" fill="#F9FAFB"/>
<path d="M303.121 83.0396C303.167 82.9284 303.207 82.8151 303.242 82.7002H304.275C304.219 82.9463 304.142 83.1879 304.045 83.4223C303.819 83.9682 303.487 84.4643 303.069 84.8822C302.652 85.3 302.156 85.6315 301.61 85.8577C301.064 86.0838 300.478 86.2002 299.887 86.2002C299.297 86.2002 298.711 86.0838 298.165 85.8577C297.619 85.6315 297.123 85.3 296.706 84.8822C296.288 84.4643 295.956 83.9682 295.73 83.4223C295.633 83.1879 295.556 82.9463 295.5 82.7002L296.533 82.7002C296.568 82.8151 296.608 82.9284 296.654 83.0396C296.83 83.4642 297.088 83.8501 297.413 84.1751C297.738 84.5001 298.123 84.7579 298.548 84.9338C298.973 85.1097 299.428 85.2002 299.887 85.2002C300.347 85.2002 300.802 85.1097 301.227 84.9338C301.652 84.7579 302.037 84.5001 302.362 84.1751C302.687 83.8501 302.945 83.4642 303.121 83.0396Z" fill="url(#paint20_linear_3491_17562)"/>
<g filter="url(#filter9_d_3491_17562)">
<rect x="272" y="332" width="56" height="56" rx="28" fill="#F97316"/>
<path d="M299.001 364.501H296.906L296.964 364.795C297.601 367.905 298.805 369.999 300.002 369.999C300.497 369.999 300.993 369.641 301.45 369H301.001C299.897 369 299.001 368.105 299.001 367V364.501ZM299.001 363.001H296.676C296.562 362.055 296.5 361.048 296.5 360C296.5 359.486 296.515 358.981 296.544 358.489L296.577 358H303.426C303.476 358.646 303.503 359.314 303.503 360H301.001C299.897 360 299.001 360.895 299.001 362V363.001ZM310.003 360L310.001 360H305.003C305.003 359.546 304.992 359.098 304.972 358.657L304.933 358.001L309.803 358C309.934 358.646 310.003 359.315 310.003 360ZM295.373 364.501L291.067 364.501L291.214 364.78C292.469 367.083 294.602 368.837 297.165 369.594C296.356 368.355 295.738 366.583 295.373 364.501ZM295.07 358.001L290.2 358C290.069 358.647 290 359.315 290 360C290 361.046 290.16 362.054 290.458 363.001H295.16L295.103 362.421C295.035 361.64 295 360.83 295 360C295 359.319 295.024 358.651 295.07 358.001ZM302.838 350.407L302.946 350.577C303.826 352.008 304.467 354.084 304.783 356.5L309.373 356.5C308.28 353.574 305.856 351.298 302.838 350.407ZM297.165 350.407L297.043 350.444C294.082 351.359 291.708 353.614 290.63 356.5L295.221 356.5L295.282 356.061C295.63 353.736 296.284 351.756 297.165 350.407ZM303.216 356.185C302.647 352.544 301.32 350.002 300.002 350.002C298.645 350.002 297.28 352.691 296.741 356.5H303.262L303.216 356.185ZM300.001 362C300.001 361.448 300.449 361 301.001 361H310.001C310.554 361 311.001 361.448 311.001 362V367C311.001 367.552 310.554 368 310.001 368H307.001V370H307.501C307.778 370 308.001 370.224 308.001 370.5C308.001 370.776 307.778 371 307.501 371H303.501C303.225 371 303.001 370.776 303.001 370.5C303.001 370.224 303.225 370 303.501 370H304.001V368H301.001C300.449 368 300.001 367.552 300.001 367V362Z" fill="white"/>
</g>
<defs>
<filter id="filter0_f_3491_17562" x="433" y="222" width="80" height="80" filterUnits="userSpaceOnUse" color-interpolation-filters="sRGB">
<feFlood flood-opacity="0" result="BackgroundImageFix"/>
<feBlend mode="normal" in="SourceGraphic" in2="BackgroundImageFix" result="shape"/>
<feGaussianBlur stdDeviation="6" result="effect1_foregroundBlur_3491_17562"/>
</filter>
<filter id="filter1_f_3491_17562" x="453" y="242" width="40" height="40" filterUnits="userSpaceOnUse" color-interpolation-filters="sRGB">
<feFlood flood-opacity="0" result="BackgroundImageFix"/>
<feBlend mode="normal" in="SourceGraphic" in2="BackgroundImageFix" result="shape"/>
<feGaussianBlur stdDeviation="4" result="effect1_foregroundBlur_3491_17562"/>
</filter>
<filter id="filter2_f_3491_17562" x="462" y="251" width="22" height="22" filterUnits="userSpaceOnUse" color-interpolation-filters="sRGB">
<feFlood flood-opacity="0" result="BackgroundImageFix"/>
<feBlend mode="normal" in="SourceGraphic" in2="BackgroundImageFix" result="shape"/>
<feGaussianBlur stdDeviation="2" result="effect1_foregroundBlur_3491_17562"/>
</filter>
<filter id="filter3_f_3491_17562" x="321" y="218.5" width="80" height="80" filterUnits="userSpaceOnUse" color-interpolation-filters="sRGB">
<feFlood flood-opacity="0" result="BackgroundImageFix"/>
<feBlend mode="normal" in="SourceGraphic" in2="BackgroundImageFix" result="shape"/>
<feGaussianBlur stdDeviation="6" result="effect1_foregroundBlur_3491_17562"/>
</filter>
<filter id="filter4_f_3491_17562" x="341" y="238.5" width="40" height="40" filterUnits="userSpaceOnUse" color-interpolation-filters="sRGB">
<feFlood flood-opacity="0" result="BackgroundImageFix"/>
<feBlend mode="normal" in="SourceGraphic" in2="BackgroundImageFix" result="shape"/>
<feGaussianBlur stdDeviation="4" result="effect1_foregroundBlur_3491_17562"/>
</filter>
<filter id="filter5_f_3491_17562" x="350" y="247.5" width="22" height="22" filterUnits="userSpaceOnUse" color-interpolation-filters="sRGB">
<feFlood flood-opacity="0" result="BackgroundImageFix"/>
<feBlend mode="normal" in="SourceGraphic" in2="BackgroundImageFix" result="shape"/>
<feGaussianBlur stdDeviation="2" result="effect1_foregroundBlur_3491_17562"/>
</filter>
<filter id="filter6_f_3491_17562" x="160.5" y="149" width="80" height="80" filterUnits="userSpaceOnUse" color-interpolation-filters="sRGB">
<feFlood flood-opacity="0" result="BackgroundImageFix"/>
<feBlend mode="normal" in="SourceGraphic" in2="BackgroundImageFix" result="shape"/>
<feGaussianBlur stdDeviation="6" result="effect1_foregroundBlur_3491_17562"/>
</filter>
<filter id="filter7_f_3491_17562" x="180.5" y="169" width="40" height="40" filterUnits="userSpaceOnUse" color-interpolation-filters="sRGB">
<feFlood flood-opacity="0" result="BackgroundImageFix"/>
<feBlend mode="normal" in="SourceGraphic" in2="BackgroundImageFix" result="shape"/>
<feGaussianBlur stdDeviation="4" result="effect1_foregroundBlur_3491_17562"/>
</filter>
<filter id="filter8_f_3491_17562" x="189.5" y="178" width="22" height="22" filterUnits="userSpaceOnUse" color-interpolation-filters="sRGB">
<feFlood flood-opacity="0" result="BackgroundImageFix"/>
<feBlend mode="normal" in="SourceGraphic" in2="BackgroundImageFix" result="shape"/>
<feGaussianBlur stdDeviation="2" result="effect1_foregroundBlur_3491_17562"/>
</filter>
<filter id="filter9_d_3491_17562" x="257" y="322" width="86" height="86" filterUnits="userSpaceOnUse" color-interpolation-filters="sRGB">
<feFlood flood-opacity="0" result="BackgroundImageFix"/>
<feColorMatrix in="SourceAlpha" type="matrix" values="0 0 0 0 0 0 0 0 0 0 0 0 0 0 0 0 0 0 127 0" result="hardAlpha"/>
<feOffset dy="5"/>
<feGaussianBlur stdDeviation="7.5"/>
<feComposite in2="hardAlpha" operator="out"/>
<feColorMatrix type="matrix" values="0 0 0 0 0 0 0 0 0 0 0 0 0 0 0 0 0 0 0.1 0"/>
<feBlend mode="normal" in2="BackgroundImageFix" result="effect1_dropShadow_3491_17562"/>
<feBlend mode="normal" in="SourceGraphic" in2="effect1_dropShadow_3491_17562" result="shape"/>
</filter>
<radialGradient id="paint0_angular_3491_17562" cx="0" cy="0" r="1" gradientUnits="userSpaceOnUse" gradientTransform="translate(403 184.5) rotate(119.466) scale(207.358 209.413)">
<stop stop-color="#D1D5DB" stop-opacity="0.2"/>
<stop offset="1" stop-color="#D1D5DB" stop-opacity="0"/>
</radialGradient>
<radialGradient id="paint1_radial_3491_17562" cx="0" cy="0" r="1" gradientUnits="userSpaceOnUse" gradientTransform="translate(300.5 80.7998) rotate(90) scale(354.2 719.909)">
<stop stop-color="#F97316"/>
<stop offset="1" stop-color="#D1D5DB" stop-opacity="0"/>
</radialGradient>
<linearGradient id="paint2_linear_3491_17562" x1="300" y1="162" x2="300" y2="362" gradientUnits="userSpaceOnUse">
<stop stop-color="#D1D5DB" stop-opacity="0.1"/>
<stop offset="1" stop-color="#D1D5DB" stop-opacity="0"/>
</linearGradient>
<radialGradient id="paint3_radial_3491_17562" cx="0" cy="0" r="1" gradientUnits="userSpaceOnUse" gradientTransform="translate(299.952 162) rotate(90) scale(275 552.619)">
<stop stop-color="#F97316"/>
<stop offset="1" stop-color="#D1D5DB" stop-opacity="0"/>
</radialGradient>
<linearGradient id="paint4_linear_3491_17562" x1="299.5" y1="241" x2="300" y2="362" gradientUnits="userSpaceOnUse">
<stop stop-color="#D1D5DB" stop-opacity="0.15"/>
<stop offset="1" stop-color="#D1D5DB" stop-opacity="0"/>
</linearGradient>
<radialGradient id="paint5_radial_3491_17562" cx="0" cy="0" r="1" gradientUnits="userSpaceOnUse" gradientTransform="translate(299.576 241) rotate(90) scale(158.5 318.51)">
<stop stop-color="#F97316"/>
<stop offset="1" stop-color="#D1D5DB" stop-opacity="0"/>
</radialGradient>
<linearGradient id="paint6_linear_3491_17562" x1="0.5" y1="274.65" x2="0.500265" y2="4.81867e-07" gradientUnits="userSpaceOnUse">
<stop stop-color="#D1D5DB"/>
<stop offset="1" stop-color="#D1D5DB" stop-opacity="0"/>
</linearGradient>
<linearGradient id="paint7_linear_3491_17562" x1="0.5" y1="272.939" x2="0.500261" y2="4.78862e-07" gradientUnits="userSpaceOnUse">
<stop stop-color="#D1D5DB"/>
<stop offset="0.815625" stop-color="#D1D5DB" stop-opacity="0.3"/>
<stop offset="1" stop-color="#D1D5DB" stop-opacity="0"/>
</linearGradient>
<linearGradient id="paint8_linear_3491_17562" x1="0.5" y1="273.954" x2="0.500263" y2="4.80645e-07" gradientUnits="userSpaceOnUse">
<stop stop-color="#D1D5DB"/>
<stop offset="1" stop-color="#D1D5DB" stop-opacity="0"/>
</linearGradient>
<linearGradient id="paint9_linear_3491_17562" x1="0.5" y1="273.088" x2="0.500262" y2="4.79124e-07" gradientUnits="userSpaceOnUse">
<stop stop-color="#D1D5DB"/>
<stop offset="1" stop-color="#D1D5DB" stop-opacity="0"/>
</linearGradient>
<linearGradient id="paint10_linear_3491_17562" x1="0.5" y1="272.932" x2="0.500261" y2="4.78849e-07" gradientUnits="userSpaceOnUse">
<stop stop-color="#D1D5DB"/>
<stop offset="1" stop-color="#D1D5DB" stop-opacity="0"/>
</linearGradient>
<linearGradient id="paint11_linear_3491_17562" x1="19.989" y1="357.5" x2="20" y2="361" gradientUnits="userSpaceOnUse">
<stop stop-color="#D1D5DB" stop-opacity="0.35"/>
<stop offset="1" stop-color="#D1D5DB" stop-opacity="0"/>
</linearGradient>
<linearGradient id="paint12_linear_3491_17562" x1="581.087" y1="357.5" x2="581.098" y2="361" gradientUnits="userSpaceOnUse">
<stop stop-color="#D1D5DB" stop-opacity="0.35"/>
<stop offset="1" stop-color="#D1D5DB" stop-opacity="0"/>
</linearGradient>
<linearGradient id="paint13_linear_3491_17562" x1="99.6883" y1="357.5" x2="99.6992" y2="361" gradientUnits="userSpaceOnUse">
<stop stop-color="#D1D5DB" stop-opacity="0.35"/>
<stop offset="1" stop-color="#D1D5DB" stop-opacity="0"/>
</linearGradient>
<linearGradient id="paint14_linear_3491_17562" x1="500.188" y1="357.5" x2="500.199" y2="361" gradientUnits="userSpaceOnUse">
<stop stop-color="#D1D5DB" stop-opacity="0.35"/>
<stop offset="1" stop-color="#D1D5DB" stop-opacity="0"/>
</linearGradient>
<linearGradient id="paint15_linear_3491_17562" x1="178.489" y1="357.5" x2="178.5" y2="361" gradientUnits="userSpaceOnUse">
<stop stop-color="#D1D5DB" stop-opacity="0.35"/>
<stop offset="1" stop-color="#D1D5DB" stop-opacity="0"/>
</linearGradient>
<linearGradient id="paint16_linear_3491_17562" x1="420.887" y1="357.5" x2="420.898" y2="361" gradientUnits="userSpaceOnUse">
<stop stop-color="#D1D5DB" stop-opacity="0.35"/>
<stop offset="1" stop-color="#D1D5DB" stop-opacity="0"/>
</linearGradient>
<linearGradient id="paint17_linear_3491_17562" x1="0.5" y1="293.22" x2="0.500302" y2="5.14486e-07" gradientUnits="userSpaceOnUse">
<stop stop-color="#F97316"/>
<stop offset="1" stop-color="#D1D5DB" stop-opacity="0"/>
</linearGradient>
<linearGradient id="paint18_linear_3491_17562" x1="0.5" y1="293.22" x2="0.500302" y2="5.14486e-07" gradientUnits="userSpaceOnUse">
<stop stop-color="#F97316"/>
<stop offset="1" stop-color="#D1D5DB" stop-opacity="0"/>
</linearGradient>
<linearGradient id="paint19_linear_3491_17562" x1="0.5" y1="353.819" x2="0.500439" y2="6.20984e-07" gradientUnits="userSpaceOnUse">
<stop stop-color="#F97316"/>
<stop offset="0.684817" stop-color="#F97316" stop-opacity="0.6"/>
<stop offset="1" stop-color="#F97316" stop-opacity="0"/>
</linearGradient>
<linearGradient id="paint20_linear_3491_17562" x1="299.887" y1="86.2002" x2="299.887" y2="82" gradientUnits="userSpaceOnUse">
<stop stop-color="#D1D5DB" stop-opacity="0.4"/>
<stop offset="1" stop-color="#D1D5DB" stop-opacity="0"/>
</linearGradient>
</defs>
</svg>
