<svg width="86" height="156" viewBox="0 0 86 156" fill="none" xmlns="http://www.w3.org/2000/svg">
<rect width="1" height="80" transform="translate(42.5)" fill="url(#paint0_linear_4496_35154)"/>
<g filter="url(#filter0_d_4496_35154)">
<rect x="15" y="80" width="56" height="56" rx="28" fill="#F97316"/>
<path d="M50 109.5C50 108.818 50.2726 108.201 50.7146 107.75H44C43.0335 107.75 42.25 106.966 42.25 106V98.0029C37.1188 98.1355 33 102.337 33 107.5C33 112.579 36.9857 116.727 42 116.987V115.5C42 114.119 43.1193 113 44.5 113C45.0628 113 45.5822 113.186 46 113.5V112.5C46 111.119 47.1193 110 48.5 110C49.0628 110 49.5822 110.186 50 110.5V109.5ZM43.75 98.0812V106C43.75 106.138 43.8619 106.25 44 106.25H51.9185C51.3603 102.003 47.9969 98.6394 43.75 98.0812ZM52.5 108C51.6716 108 51 108.672 51 109.5V117.5C51 118.328 51.6716 119 52.5 119C53.3284 119 54 118.328 54 117.5V109.5C54 108.672 53.3284 108 52.5 108ZM44.5 114C43.6716 114 43 114.672 43 115.5V117.5C43 118.328 43.6716 119 44.5 119C45.3284 119 46 118.328 46 117.5V115.5C46 114.672 45.3284 114 44.5 114ZM47 112.5C47 111.672 47.6716 111 48.5 111C49.3284 111 50 111.672 50 112.5V117.5C50 118.328 49.3284 119 48.5 119C47.6716 119 47 118.328 47 117.5V112.5Z" fill="white"/>
</g>
<defs>
<filter id="filter0_d_4496_35154" x="0" y="70" width="86" height="86" filterUnits="userSpaceOnUse" color-interpolation-filters="sRGB">
<feFlood flood-opacity="0" result="BackgroundImageFix"/>
<feColorMatrix in="SourceAlpha" type="matrix" values="0 0 0 0 0 0 0 0 0 0 0 0 0 0 0 0 0 0 127 0" result="hardAlpha"/>
<feOffset dy="5"/>
<feGaussianBlur stdDeviation="7.5"/>
<feComposite in2="hardAlpha" operator="out"/>
<feColorMatrix type="matrix" values="0 0 0 0 0 0 0 0 0 0 0 0 0 0 0 0 0 0 0.1 0"/>
<feBlend mode="normal" in2="BackgroundImageFix" result="effect1_dropShadow_4496_35154"/>
<feBlend mode="normal" in="SourceGraphic" in2="effect1_dropShadow_4496_35154" result="shape"/>
</filter>
<linearGradient id="paint0_linear_4496_35154" x1="0.5" y1="78.1921" x2="0.500021" y2="1.3712e-07" gradientUnits="userSpaceOnUse">
<stop stop-color="#F97316"/>
<stop offset="1" stop-color="#F97316" stop-opacity="0"/>
</linearGradient>
</defs>
</svg>
