<svg width="56" height="136" viewBox="0 0 56 136" fill="none" xmlns="http://www.w3.org/2000/svg">
<rect width="1" height="80" transform="translate(27.5)" fill="url(#paint0_linear_4496_35154)"/>
<rect y="80" width="56" height="56" rx="28" fill="#F97316"/>
<path d="M35 109.5C35 108.818 35.2726 108.201 35.7146 107.75H29C28.0335 107.75 27.25 106.966 27.25 106V98.0029C22.1188 98.1355 18 102.337 18 107.5C18 112.579 21.9857 116.727 27 116.987V115.5C27 114.119 28.1193 113 29.5 113C30.0628 113 30.5822 113.186 31 113.5V112.5C31 111.119 32.1193 110 33.5 110C34.0628 110 34.5822 110.186 35 110.5V109.5ZM28.75 98.0812V106C28.75 106.138 28.8619 106.25 29 106.25H36.9185C36.3603 102.003 32.9969 98.6394 28.75 98.0812ZM37.5 108C36.6716 108 36 108.672 36 109.5V117.5C36 118.328 36.6716 119 37.5 119C38.3284 119 39 118.328 39 117.5V109.5C39 108.672 38.3284 108 37.5 108ZM29.5 114C28.6716 114 28 114.672 28 115.5V117.5C28 118.328 28.6716 119 29.5 119C30.3284 119 31 118.328 31 117.5V115.5C31 114.672 30.3284 114 29.5 114ZM32 112.5C32 111.672 32.6716 111 33.5 111C34.3284 111 35 111.672 35 112.5V117.5C35 118.328 34.3284 119 33.5 119C32.6716 119 32 118.328 32 117.5V112.5Z" fill="white"/>
<defs>
<linearGradient id="paint0_linear_4496_35154" x1="0.5" y1="78.1921" x2="0.500021" y2="1.3712e-07" gradientUnits="userSpaceOnUse">
<stop stop-color="#F97316"/>
<stop offset="1" stop-color="#F97316" stop-opacity="0"/>
</linearGradient>
</defs>
</svg>
