<svg width="177" height="32" viewBox="0 0 177 32" fill="none" xmlns="http://www.w3.org/2000/svg">
<mask id="mask0_4348_36487" style="mask-type:alpha" maskUnits="userSpaceOnUse" x="0" y="0" width="33" height="32">
<path d="M0.78125 2.88C0.78125 1.28942 2.07067 0 3.66125 0H29.9013C31.4918 0 32.7813 1.28942 32.7813 2.88V29.12C32.7813 30.7106 31.4918 32 29.9013 32H3.66125C2.07067 32 0.78125 30.7106 0.78125 29.12V2.88Z" fill="#D9D9D9"/>
</mask>
<g mask="url(#mask0_4348_36487)">
<path opacity="0.24" d="M32.7812 30.56V3.47647C32.7812 2.19356 31.2302 1.55108 30.323 2.45823L3.23948 29.5418C2.33233 30.4489 2.97481 32 4.25772 32H31.3412C32.1365 32 32.7812 31.3553 32.7812 30.56Z" fill="#111827"/>
</g>
<mask id="mask1_4348_36487" style="mask-type:alpha" maskUnits="userSpaceOnUse" x="0" y="0" width="33" height="32">
<path d="M0.78125 2.88C0.78125 1.28942 2.07067 0 3.66125 0H29.9013C31.4918 0 32.7812 1.28942 32.7812 2.88V29.12C32.7812 30.7106 31.4918 32 29.9013 32H3.66125C2.07067 32 0.78125 30.7106 0.78125 29.12V2.88Z" fill="#D9D9D9"/>
</mask>
<g mask="url(#mask1_4348_36487)">
<path d="M0.78125 30.56V3.47647C0.78125 2.19356 2.33233 1.55108 3.23948 2.45823L32.7812 32H2.22125C1.42596 32 0.78125 31.3553 0.78125 30.56Z" fill="#111827"/>
</g>
<path d="M58.2099 8V25.4545H55.0735V10.625H47.4371V25.4545H44.3008V8H58.2099Z" fill="#111827"/>
<path d="M60.6641 25.4545L60.647 22.9148H61.0987C61.4396 22.9148 61.7266 22.8381 61.9595 22.6847C62.1925 22.5313 62.3856 22.2756 62.5391 21.9176C62.6925 21.554 62.8118 21.0653 62.897 20.4517C62.9822 19.8381 63.0419 19.0739 63.076 18.1591L63.3061 12.3636H72.8516V25.4545H69.8686V14.8949H66.1101L65.9055 19.1136C65.8544 20.2045 65.7322 21.1506 65.5391 21.9517C65.3516 22.7472 65.0845 23.4034 64.7379 23.9205C64.397 24.4375 63.968 24.8239 63.451 25.0795C62.9339 25.3295 62.3232 25.4545 61.6186 25.4545H60.6641Z" fill="#111827"/>
<path d="M79.4371 25.7188C78.6076 25.7188 77.8604 25.571 77.1957 25.2756C76.5366 24.9744 76.0138 24.5313 75.6275 23.946C75.2468 23.3608 75.0565 22.6392 75.0565 21.7812C75.0565 21.0426 75.1928 20.4318 75.4655 19.9489C75.7383 19.4659 76.1104 19.0795 76.582 18.7898C77.0536 18.5 77.5849 18.2813 78.1758 18.1335C78.7724 17.9801 79.3888 17.8693 80.0252 17.8011C80.7923 17.7216 81.4144 17.6506 81.8917 17.5881C82.369 17.5199 82.7155 17.4176 82.9315 17.2812C83.153 17.1392 83.2638 16.9205 83.2638 16.625V16.5739C83.2638 15.9318 83.0735 15.4347 82.6928 15.0824C82.3121 14.7301 81.7638 14.554 81.0479 14.554C80.2923 14.554 79.6928 14.7188 79.2496 15.0483C78.8121 15.3778 78.5167 15.767 78.3633 16.2159L75.4826 15.8068C75.7099 15.0114 76.0849 14.3466 76.6076 13.8125C77.1303 13.2727 77.7695 12.8693 78.5252 12.6023C79.2809 12.3295 80.1161 12.1932 81.0309 12.1932C81.6616 12.1932 82.2894 12.267 82.9144 12.4148C83.5394 12.5625 84.1104 12.8068 84.6275 13.1477C85.1445 13.483 85.5593 13.9403 85.8718 14.5199C86.19 15.0994 86.3491 15.8239 86.3491 16.6932V25.4545H83.3832V23.6562H83.2809C83.0934 24.0199 82.8292 24.3608 82.4883 24.679C82.153 24.9915 81.7298 25.2443 81.2184 25.4375C80.7127 25.625 80.119 25.7188 79.4371 25.7188ZM80.2383 23.4517C80.8576 23.4517 81.3945 23.3295 81.8491 23.0852C82.3036 22.8352 82.653 22.5057 82.8974 22.0966C83.1474 21.6875 83.2724 21.2415 83.2724 20.7585V19.2159C83.1758 19.2955 83.011 19.3693 82.778 19.4375C82.5508 19.5057 82.2951 19.5653 82.011 19.6165C81.7269 19.6676 81.4457 19.7131 81.1673 19.7528C80.8888 19.7926 80.6474 19.8267 80.4428 19.8551C79.9826 19.9176 79.5707 20.0199 79.207 20.1619C78.8434 20.304 78.5565 20.5028 78.3462 20.7585C78.136 21.0085 78.0309 21.3324 78.0309 21.7301C78.0309 22.2983 78.2383 22.7273 78.653 23.017C79.0678 23.3068 79.5962 23.4517 80.2383 23.4517Z" fill="#111827"/>
<path d="M87.6974 14.8949V12.3636H99.152V14.8949H94.9162V25.4545H91.9332V14.8949H87.6974Z" fill="#111827"/>
<path d="M106.722 29.9034V8H109.816V29.9034H106.722ZM106.722 25.7102C105.762 25.7102 104.884 25.5483 104.088 25.2244C103.293 24.9006 102.605 24.4403 102.026 23.8438C101.452 23.2472 101.006 22.5369 100.688 21.7131C100.375 20.8835 100.219 19.9659 100.219 18.9602C100.219 17.9545 100.375 17.0369 100.688 16.2074C101.006 15.3778 101.452 14.6648 102.026 14.0682C102.605 13.4659 103.293 13.0028 104.088 12.679C104.884 12.3551 105.762 12.1932 106.722 12.1932H107.378V25.7102H106.722ZM106.722 23.2216H107.105V14.6818H106.722C106.176 14.6818 105.694 14.7955 105.273 15.0227C104.858 15.2443 104.509 15.554 104.225 15.9517C103.946 16.3438 103.733 16.7983 103.586 17.3153C103.444 17.8267 103.373 18.375 103.373 18.9602C103.373 19.7386 103.5 20.4517 103.756 21.0994C104.012 21.7415 104.387 22.2557 104.881 22.642C105.381 23.0284 105.995 23.2216 106.722 23.2216ZM109.816 25.7102H109.159V12.1932H109.816C110.776 12.1932 111.654 12.3551 112.449 12.679C113.245 13.0028 113.929 13.4659 114.503 14.0682C115.083 14.6648 115.529 15.3778 115.841 16.2074C116.159 17.0369 116.319 17.9545 116.319 18.9602C116.319 19.9659 116.159 20.8835 115.841 21.7131C115.529 22.5369 115.083 23.2472 114.503 23.8438C113.929 24.4403 113.245 24.9006 112.449 25.2244C111.654 25.5483 110.776 25.7102 109.816 25.7102ZM109.816 23.2216C110.367 23.2216 110.85 23.1108 111.265 22.8892C111.679 22.6676 112.026 22.3608 112.304 21.9688C112.588 21.5767 112.801 21.125 112.944 20.6136C113.086 20.0966 113.157 19.5455 113.157 18.9602C113.157 18.1818 113.032 17.4688 112.782 16.821C112.532 16.1733 112.157 15.6562 111.657 15.2699C111.162 14.8778 110.549 14.6818 109.816 14.6818H109.432V23.2216H109.816Z" fill="#111827"/>
<path d="M124.344 25.7102C123.066 25.7102 121.958 25.429 121.021 24.8665C120.083 24.304 119.356 23.517 118.839 22.5057C118.327 21.4943 118.072 20.3125 118.072 18.9602C118.072 17.608 118.327 16.4233 118.839 15.4062C119.356 14.3892 120.083 13.5994 121.021 13.0369C121.958 12.4744 123.066 12.1932 124.344 12.1932C125.623 12.1932 126.731 12.4744 127.668 13.0369C128.606 13.5994 129.33 14.3892 129.842 15.4062C130.359 16.4233 130.617 17.608 130.617 18.9602C130.617 20.3125 130.359 21.4943 129.842 22.5057C129.33 23.517 128.606 24.304 127.668 24.8665C126.731 25.429 125.623 25.7102 124.344 25.7102ZM124.361 23.2386C125.055 23.2386 125.634 23.0483 126.1 22.6676C126.566 22.2813 126.913 21.7642 127.14 21.1165C127.373 20.4688 127.489 19.7472 127.489 18.9517C127.489 18.1506 127.373 17.4261 127.14 16.7784C126.913 16.125 126.566 15.6051 126.1 15.2188C125.634 14.8324 125.055 14.6392 124.361 14.6392C123.651 14.6392 123.06 14.8324 122.589 15.2188C122.123 15.6051 121.773 16.125 121.54 16.7784C121.313 17.4261 121.2 18.1506 121.2 18.9517C121.2 19.7472 121.313 20.4688 121.54 21.1165C121.773 21.7642 122.123 22.2813 122.589 22.6676C123.06 23.0483 123.651 23.2386 124.361 23.2386Z" fill="#111827"/>
<path d="M132.948 30.3636V12.3636H135.982V14.5284H136.161C136.32 14.2102 136.544 13.8722 136.834 13.5142C137.124 13.1506 137.516 12.8409 138.01 12.5852C138.505 12.3239 139.135 12.1932 139.902 12.1932C140.914 12.1932 141.826 12.4517 142.638 12.9688C143.456 13.4801 144.104 14.2386 144.581 15.2443C145.064 16.2443 145.306 17.4716 145.306 18.9261C145.306 20.3636 145.07 21.5852 144.598 22.5909C144.127 23.5966 143.485 24.3636 142.672 24.892C141.86 25.4205 140.939 25.6847 139.911 25.6847C139.161 25.6847 138.539 25.5597 138.044 25.3097C137.55 25.0597 137.152 24.7585 136.851 24.4062C136.556 24.0483 136.326 23.7102 136.161 23.392H136.033V30.3636H132.948ZM135.973 18.9091C135.973 19.7557 136.093 20.4972 136.331 21.1335C136.576 21.7699 136.925 22.267 137.38 22.625C137.84 22.9773 138.397 23.1534 139.05 23.1534C139.732 23.1534 140.303 22.9716 140.763 22.608C141.223 22.2386 141.57 21.7358 141.803 21.0994C142.042 20.4574 142.161 19.7273 142.161 18.9091C142.161 18.0966 142.044 17.375 141.811 16.7443C141.578 16.1136 141.232 15.6193 140.772 15.2614C140.311 14.9034 139.738 14.7244 139.05 14.7244C138.391 14.7244 137.831 14.8977 137.371 15.2443C136.911 15.5909 136.561 16.0767 136.323 16.7017C136.09 17.3267 135.973 18.0625 135.973 18.9091Z" fill="#111827"/>
<path d="M155.194 21.8665L159.08 12.3636H161.569L156.276 25.4545H154.12L148.947 12.3636H151.41L155.194 21.8665ZM150.634 12.3636V25.4545H147.66V12.3636H150.634ZM159.881 25.4545V12.3636H162.83V25.4545H159.881Z" fill="#111827"/>
<path d="M169.42 25.7188C168.591 25.7188 167.843 25.571 167.179 25.2756C166.52 24.9744 165.997 24.5313 165.61 23.946C165.23 23.3608 165.039 22.6392 165.039 21.7812C165.039 21.0426 165.176 20.4318 165.448 19.9489C165.721 19.4659 166.093 19.0795 166.565 18.7898C167.037 18.5 167.568 18.2813 168.159 18.1335C168.755 17.9801 169.372 17.8693 170.008 17.8011C170.775 17.7216 171.397 17.6506 171.875 17.5881C172.352 17.5199 172.698 17.4176 172.914 17.2812C173.136 17.1392 173.247 16.9205 173.247 16.625V16.5739C173.247 15.9318 173.056 15.4347 172.676 15.0824C172.295 14.7301 171.747 14.554 171.031 14.554C170.275 14.554 169.676 14.7188 169.233 15.0483C168.795 15.3778 168.5 15.767 168.346 16.2159L165.466 15.8068C165.693 15.0114 166.068 14.3466 166.591 13.8125C167.113 13.2727 167.752 12.8693 168.508 12.6023C169.264 12.3295 170.099 12.1932 171.014 12.1932C171.645 12.1932 172.272 12.267 172.897 12.4148C173.522 12.5625 174.093 12.8068 174.61 13.1477C175.127 13.483 175.542 13.9403 175.855 14.5199C176.173 15.0994 176.332 15.8239 176.332 16.6932V25.4545H173.366V23.6562H173.264C173.076 24.0199 172.812 24.3608 172.471 24.679C172.136 24.9915 171.713 25.2443 171.201 25.4375C170.696 25.625 170.102 25.7188 169.42 25.7188ZM170.221 23.4517C170.841 23.4517 171.377 23.3295 171.832 23.0852C172.287 22.8352 172.636 22.5057 172.88 22.0966C173.13 21.6875 173.255 21.2415 173.255 20.7585V19.2159C173.159 19.2955 172.994 19.3693 172.761 19.4375C172.534 19.5057 172.278 19.5653 171.994 19.6165C171.71 19.6676 171.429 19.7131 171.15 19.7528C170.872 19.7926 170.63 19.8267 170.426 19.8551C169.966 19.9176 169.554 20.0199 169.19 20.1619C168.826 20.304 168.539 20.5028 168.329 20.7585C168.119 21.0085 168.014 21.3324 168.014 21.7301C168.014 22.2983 168.221 22.7273 168.636 23.017C169.051 23.3068 169.579 23.4517 170.221 23.4517Z" fill="#111827"/>
</svg>
