<svg width="127" height="24" viewBox="0 0 127 24" fill="none" xmlns="http://www.w3.org/2000/svg">
<mask id="mask0_4375_36566" style="mask-type:alpha" maskUnits="userSpaceOnUse" x="0" y="0" width="24" height="24">
<path d="M0 2.88C0 1.28942 1.28942 0 2.88 0H21.12C22.7106 0 24 1.28942 24 2.88V21.12C24 22.7106 22.7106 24 21.12 24H2.88C1.28942 24 0 22.7106 0 21.12V2.88Z" fill="#D9D9D9"/>
</mask>
<g mask="url(#mask0_4375_36566)">
<path opacity="0.24" d="M24 22.56V3.47647C24 2.19356 22.4489 1.55108 21.5418 2.45823L2.45823 21.5418C1.55108 22.4489 2.19357 24 3.47647 24H22.56C23.3553 24 24 23.3553 24 22.56Z" fill="#111827"/>
</g>
<mask id="mask1_4375_36566" style="mask-type:alpha" maskUnits="userSpaceOnUse" x="0" y="0" width="24" height="24">
<path d="M0 2.88C0 1.28942 1.28942 0 2.88 0H21.12C22.7106 0 24 1.28942 24 2.88V21.12C24 22.7106 22.7106 24 21.12 24H2.88C1.28942 24 0 22.7106 0 21.12V2.88Z" fill="#D9D9D9"/>
</mask>
<g mask="url(#mask1_4375_36566)">
<path d="M0 22.56V3.47647C0 2.19356 1.55108 1.55108 2.45823 2.45823L24 24H1.44C0.644711 24 0 23.3553 0 22.56Z" fill="#111827"/>
</g>
<path d="M41.9512 6V18.4878H39.7073V7.87805H34.2439V18.4878H32V6H41.9512Z" fill="#111827"/>
<path d="M43.7071 18.4878L43.6949 16.6707H44.018C44.2619 16.6707 44.4672 16.6159 44.6339 16.5061C44.8006 16.3963 44.9388 16.2134 45.0485 15.9573C45.1583 15.6972 45.2436 15.3476 45.3046 14.9085C45.3656 14.4695 45.4083 13.9228 45.4327 13.2683L45.5973 9.12195H52.4266V18.4878H50.2924V10.9329H47.6034L47.4571 13.9512C47.4205 14.7317 47.3331 15.4085 47.1949 15.9817C47.0607 16.5508 46.8697 17.0203 46.6217 17.3902C46.3778 17.7602 46.0709 18.0366 45.701 18.2195C45.331 18.3984 44.8941 18.4878 44.39 18.4878H43.7071Z" fill="#111827"/>
<path d="M57.1382 18.6768C56.5447 18.6768 56.0102 18.5711 55.5345 18.3598C55.063 18.1443 54.689 17.8272 54.4126 17.4085C54.1402 16.9898 54.0041 16.4736 54.0041 15.8598C54.0041 15.3313 54.1016 14.8943 54.2967 14.5488C54.4919 14.2033 54.7581 13.9268 55.0955 13.7195C55.4329 13.5122 55.813 13.3557 56.2358 13.25C56.6626 13.1402 57.1037 13.061 57.5589 13.0122C58.1077 12.9553 58.5528 12.9045 58.8943 12.8598C59.2358 12.811 59.4837 12.7378 59.6382 12.6402C59.7967 12.5386 59.876 12.3821 59.876 12.1707V12.1341C59.876 11.6748 59.7398 11.3191 59.4675 11.0671C59.1951 10.815 58.8028 10.689 58.2906 10.689C57.75 10.689 57.3211 10.8069 57.0041 11.0427C56.6911 11.2785 56.4797 11.5569 56.3699 11.878L54.3089 11.5854C54.4715 11.0163 54.7398 10.5407 55.1138 10.1585C55.4878 9.77236 55.9451 9.48374 56.4858 9.29268C57.0264 9.09756 57.624 9 58.2784 9C58.7297 9 59.1789 9.05285 59.626 9.15854C60.0732 9.26423 60.4817 9.43902 60.8516 9.68293C61.2215 9.92276 61.5183 10.25 61.7419 10.6646C61.9695 11.0793 62.0833 11.5976 62.0833 12.2195V18.4878H59.9614V17.2012H59.8882C59.7541 17.4614 59.565 17.7053 59.3211 17.9329C59.0813 18.1565 58.7784 18.3374 58.4126 18.4756C58.0508 18.6098 57.626 18.6768 57.1382 18.6768ZM57.7114 17.0549C58.1545 17.0549 58.5386 16.9675 58.8638 16.7927C59.189 16.6138 59.439 16.378 59.6138 16.0854C59.7927 15.7927 59.8821 15.4736 59.8821 15.128V14.0244C59.813 14.0813 59.6951 14.1341 59.5284 14.1829C59.3658 14.2317 59.1829 14.2744 58.9797 14.311C58.7764 14.3476 58.5752 14.3801 58.376 14.4085C58.1768 14.437 58.0041 14.4614 57.8577 14.4817C57.5285 14.5264 57.2337 14.5996 56.9736 14.7012C56.7134 14.8028 56.5081 14.9451 56.3577 15.128C56.2073 15.3069 56.1321 15.5386 56.1321 15.8232C56.1321 16.2297 56.2805 16.5366 56.5772 16.7439C56.874 16.9512 57.252 17.0549 57.7114 17.0549Z" fill="#111827"/>
<path d="M63.048 10.9329V9.12195H71.2431V10.9329H68.2126V18.4878H66.0785V10.9329H63.048Z" fill="#111827"/>
<path d="M76.659 21.6707V6H78.8724V21.6707H76.659ZM76.659 18.6707C75.972 18.6707 75.344 18.5549 74.7749 18.3232C74.2058 18.0915 73.7139 17.7622 73.2993 17.3354C72.8887 16.9085 72.5696 16.4004 72.342 15.811C72.1184 15.2175 72.0066 14.561 72.0066 13.8415C72.0066 13.122 72.1184 12.4654 72.342 11.872C72.5696 11.2785 72.8887 10.7683 73.2993 10.3415C73.7139 9.91057 74.2058 9.57927 74.7749 9.34756C75.344 9.11585 75.972 9 76.659 9H77.1285V18.6707H76.659ZM76.659 16.8902H76.9334V10.7805H76.659C76.2688 10.7805 75.9233 10.8618 75.6224 11.0244C75.3257 11.1829 75.0757 11.4045 74.8724 11.689C74.6733 11.9695 74.5208 12.2947 74.4151 12.6646C74.3135 13.0305 74.2627 13.4228 74.2627 13.8415C74.2627 14.3984 74.3542 14.9085 74.5371 15.372C74.72 15.8313 74.9883 16.1992 75.342 16.4756C75.6997 16.752 76.1387 16.8902 76.659 16.8902ZM78.8724 18.6707H78.4029V9H78.8724C79.5594 9 80.1875 9.11585 80.7566 9.34756C81.3257 9.57927 81.8155 9.91057 82.2261 10.3415C82.6407 10.7683 82.9598 11.2785 83.1834 11.872C83.4111 12.4654 83.5249 13.122 83.5249 13.8415C83.5249 14.561 83.4111 15.2175 83.1834 15.811C82.9598 16.4004 82.6407 16.9085 82.2261 17.3354C81.8155 17.7622 81.3257 18.0915 80.7566 18.3232C80.1875 18.5549 79.5594 18.6707 78.8724 18.6707ZM78.8724 16.8902C79.2668 16.8902 79.6123 16.811 79.909 16.6524C80.2058 16.4939 80.4538 16.2744 80.6529 15.9939C80.8562 15.7134 81.0086 15.3902 81.1103 15.0244C81.2119 14.6545 81.2627 14.2602 81.2627 13.8415C81.2627 13.2846 81.1733 12.7744 80.9944 12.311C80.8155 11.8476 80.5472 11.4776 80.1895 11.2012C79.8359 10.9207 79.3968 10.7805 78.8724 10.7805H78.5981V16.8902H78.8724Z" fill="#111827"/>
<path d="M89.267 18.6707C88.3524 18.6707 87.5597 18.4695 86.889 18.0671C86.2182 17.6646 85.6979 17.1016 85.328 16.378C84.9621 15.6545 84.7792 14.8089 84.7792 13.8415C84.7792 12.874 84.9621 12.0264 85.328 11.2988C85.6979 10.5711 86.2182 10.0061 86.889 9.60366C87.5597 9.20122 88.3524 9 89.267 9C90.1816 9 90.9743 9.20122 91.6451 9.60366C92.3158 10.0061 92.8341 10.5711 93.1999 11.2988C93.5699 12.0264 93.7548 12.874 93.7548 13.8415C93.7548 14.8089 93.5699 15.6545 93.1999 16.378C92.8341 17.1016 92.3158 17.6646 91.6451 18.0671C90.9743 18.4695 90.1816 18.6707 89.267 18.6707ZM89.2792 16.9024C89.7751 16.9024 90.1898 16.7663 90.5231 16.4939C90.8564 16.2175 91.1044 15.8476 91.267 15.3841C91.4337 14.9207 91.517 14.4045 91.517 13.8354C91.517 13.2622 91.4337 12.7439 91.267 12.2805C91.1044 11.813 90.8564 11.4411 90.5231 11.1646C90.1898 10.8882 89.7751 10.75 89.2792 10.75C88.7711 10.75 88.3483 10.8882 88.0109 11.1646C87.6776 11.4411 87.4276 11.813 87.2609 12.2805C87.0983 12.7439 87.017 13.2622 87.017 13.8354C87.017 14.4045 87.0983 14.9207 87.2609 15.3841C87.4276 15.8476 87.6776 16.2175 88.0109 16.4939C88.3483 16.7663 88.7711 16.9024 89.2792 16.9024Z" fill="#111827"/>
<path d="M95.4222 22V9.12195H97.593V10.6707H97.721C97.8348 10.4431 97.9954 10.2012 98.2027 9.94512C98.41 9.68496 98.6905 9.46341 99.0442 9.28049C99.3979 9.0935 99.8491 9 100.398 9C101.121 9 101.774 9.18496 102.355 9.55488C102.941 9.92073 103.404 10.4634 103.745 11.1829C104.091 11.8984 104.264 12.7764 104.264 13.8171C104.264 14.8455 104.095 15.7195 103.758 16.439C103.42 17.1585 102.961 17.7073 102.38 18.0854C101.798 18.4634 101.14 18.6524 100.404 18.6524C99.8674 18.6524 99.4222 18.563 99.0686 18.3841C98.7149 18.2053 98.4304 17.9898 98.2149 17.7378C98.0035 17.4817 97.8389 17.2398 97.721 17.0122H97.6296V22H95.4222ZM97.5869 13.8049C97.5869 14.4106 97.6722 14.9411 97.843 15.3963C98.0178 15.8516 98.2678 16.2073 98.593 16.4634C98.9222 16.7154 99.3206 16.8415 99.7881 16.8415C100.276 16.8415 100.684 16.7114 101.014 16.4512C101.343 16.187 101.591 15.8272 101.758 15.372C101.928 14.9126 102.014 14.3902 102.014 13.8049C102.014 13.2236 101.93 12.7073 101.764 12.2561C101.597 11.8049 101.349 11.4512 101.02 11.1951C100.691 10.939 100.28 10.811 99.7881 10.811C99.3166 10.811 98.9161 10.935 98.5869 11.1829C98.2576 11.4309 98.0076 11.7785 97.8369 12.2256C97.6702 12.6728 97.5869 13.1992 97.5869 13.8049Z" fill="#111827"/>
<path d="M111.338 15.9207L114.119 9.12195H115.899L112.113 18.4878H110.57L106.869 9.12195H108.631L111.338 15.9207ZM108.076 9.12195V18.4878H105.948V9.12195H108.076ZM114.692 18.4878V9.12195H116.802V18.4878H114.692Z" fill="#111827"/>
<path d="M121.516 18.6768C120.923 18.6768 120.388 18.5711 119.913 18.3598C119.441 18.1443 119.067 17.8272 118.791 17.4085C118.518 16.9898 118.382 16.4736 118.382 15.8598C118.382 15.3313 118.48 14.8943 118.675 14.5488C118.87 14.2033 119.136 13.9268 119.474 13.7195C119.811 13.5122 120.191 13.3557 120.614 13.25C121.041 13.1402 121.482 13.061 121.937 13.0122C122.486 12.9553 122.931 12.9045 123.272 12.8598C123.614 12.811 123.862 12.7378 124.016 12.6402C124.175 12.5386 124.254 12.3821 124.254 12.1707V12.1341C124.254 11.6748 124.118 11.3191 123.846 11.0671C123.573 10.815 123.181 10.689 122.669 10.689C122.128 10.689 121.699 10.8069 121.382 11.0427C121.069 11.2785 120.858 11.5569 120.748 11.878L118.687 11.5854C118.85 11.0163 119.118 10.5407 119.492 10.1585C119.866 9.77236 120.323 9.48374 120.864 9.29268C121.404 9.09756 122.002 9 122.656 9C123.108 9 123.557 9.05285 124.004 9.15854C124.451 9.26423 124.86 9.43902 125.23 9.68293C125.6 9.92276 125.896 10.25 126.12 10.6646C126.348 11.0793 126.461 11.5976 126.461 12.2195V18.4878H124.339V17.2012H124.266C124.132 17.4614 123.943 17.7053 123.699 17.9329C123.459 18.1565 123.156 18.3374 122.791 18.4756C122.429 18.6098 122.004 18.6768 121.516 18.6768ZM122.089 17.0549C122.533 17.0549 122.917 16.9675 123.242 16.7927C123.567 16.6138 123.817 16.378 123.992 16.0854C124.171 15.7927 124.26 15.4736 124.26 15.128V14.0244C124.191 14.0813 124.073 14.1341 123.906 14.1829C123.744 14.2317 123.561 14.2744 123.358 14.311C123.154 14.3476 122.953 14.3801 122.754 14.4085C122.555 14.437 122.382 14.4614 122.236 14.4817C121.906 14.5264 121.612 14.5996 121.352 14.7012C121.091 14.8028 120.886 14.9451 120.736 15.128C120.585 15.3069 120.51 15.5386 120.51 15.8232C120.51 16.2297 120.659 16.5366 120.955 16.7439C121.252 16.9512 121.63 17.0549 122.089 17.0549Z" fill="#111827"/>
</svg>
