<svg width="128" height="24" viewBox="0 0 128 24" fill="none" xmlns="http://www.w3.org/2000/svg">
<mask id="mask0_4348_36505" style="mask-type:alpha" maskUnits="userSpaceOnUse" x="0" y="0" width="24" height="24">
<path d="M0 2.15999C0 0.96706 0.96706 0 2.15999 0H21.84C23.0329 0 24 0.96706 24 2.15999V21.84C24 23.0329 23.0329 24 21.84 24H2.15999C0.96706 24 0 23.0329 0 21.84V2.15999Z" fill="#D9D9D9"/>
</mask>
<g mask="url(#mask0_4348_36505)">
<path opacity="0.24" d="M24 22.92V2.60734C24 1.64516 22.8367 1.16331 22.1563 1.84366L1.84367 22.1563C1.16331 22.8367 1.64516 24 2.60734 24H22.92C23.5165 24 24 23.5165 24 22.92Z" fill="#111827"/>
</g>
<mask id="mask1_4348_36505" style="mask-type:alpha" maskUnits="userSpaceOnUse" x="0" y="0" width="24" height="24">
<path d="M0 2.15999C0 0.96706 0.96706 0 2.15999 0H21.84C23.0329 0 24 0.96706 24 2.15999V21.84C24 23.0329 23.0329 24 21.84 24H2.15999C0.96706 24 0 23.0329 0 21.84V2.15999Z" fill="#D9D9D9"/>
</mask>
<g mask="url(#mask1_4348_36505)">
<path d="M0 22.92V2.60734C0 1.64516 1.16331 1.16331 1.84366 1.84366L24 24H1.07999C0.48353 24 0 23.5165 0 22.92Z" fill="#111827"/>
</g>
<path d="M42.6551 3.94922V16.5164H40.3969V5.83921H34.8988V16.5164H32.6406V3.94922H42.6551Z" fill="#111827"/>
<path d="M44.4135 16.5164L44.4012 14.6878H44.7264C44.9719 14.6878 45.1785 14.6326 45.3462 14.5221C45.5139 14.4117 45.653 14.2276 45.7635 13.9698C45.8739 13.708 45.9598 13.3562 46.0212 12.9144C46.0826 12.4726 46.1255 11.9224 46.1501 11.2637L46.3157 7.09102H53.1884V16.5164H51.0407V8.91351H48.3346L48.1873 11.951C48.1505 12.7364 48.0626 13.4176 47.9235 13.9944C47.7885 14.5671 47.5962 15.0396 47.3466 15.4119C47.1012 15.7842 46.7923 16.0623 46.4201 16.2464C46.0478 16.4264 45.608 16.5164 45.1007 16.5164H44.4135Z" fill="#111827"/>
<path d="M57.9214 16.7066C57.3241 16.7066 56.7862 16.6003 56.3075 16.3876C55.833 16.1707 55.4566 15.8517 55.1784 15.4303C54.9044 15.0089 54.7673 14.4894 54.7673 13.8717C54.7673 13.3398 54.8655 12.9001 55.0619 12.5524C55.2582 12.2046 55.5262 11.9264 55.8657 11.7178C56.2053 11.5092 56.5878 11.3517 57.0132 11.2453C57.4427 11.1349 57.8866 11.0551 58.3448 11.006C58.8971 10.9487 59.345 10.8976 59.6886 10.8526C60.0323 10.8035 60.2818 10.7299 60.4373 10.6317C60.5968 10.5294 60.6766 10.3719 60.6766 10.1592V10.1224C60.6766 9.6601 60.5395 9.30214 60.2655 9.04851C59.9914 8.79487 59.5966 8.66806 59.0811 8.66806C58.5371 8.66806 58.1055 8.78669 57.7864 9.02396C57.4714 9.26123 57.2587 9.54146 57.1482 9.86464L55.0741 9.5701C55.2378 8.99737 55.5078 8.51874 55.8841 8.1342C56.2605 7.74556 56.7207 7.45511 57.2648 7.26284C57.8089 7.06647 58.4102 6.96829 59.0689 6.96829C59.523 6.96829 59.975 7.02147 60.425 7.12784C60.875 7.2342 61.2861 7.41011 61.6584 7.65556C62.0307 7.89692 62.3293 8.22624 62.5543 8.64351C62.7834 9.06078 62.8979 9.58237 62.8979 10.2083V16.5164H60.7625V15.2217H60.6889C60.5539 15.4835 60.3636 15.7289 60.1182 15.958C59.8768 16.183 59.5721 16.3651 59.2039 16.5042C58.8398 16.6391 58.4123 16.7066 57.9214 16.7066ZM58.4982 15.0744C58.9441 15.0744 59.3307 14.9864 59.658 14.8105C59.9852 14.6305 60.2368 14.3933 60.4127 14.0987C60.5927 13.8042 60.6827 13.483 60.6827 13.1353V12.0246C60.6132 12.0819 60.4945 12.1351 60.3268 12.1842C60.1632 12.2333 59.9791 12.2762 59.7746 12.313C59.57 12.3499 59.3675 12.3826 59.1671 12.4112C58.9666 12.4399 58.7927 12.4644 58.6455 12.4849C58.3141 12.5299 58.0175 12.6035 57.7557 12.7058C57.4939 12.808 57.2873 12.9512 57.1359 13.1353C56.9846 13.3153 56.9089 13.5485 56.9089 13.8348C56.9089 14.2439 57.0582 14.5528 57.3568 14.7614C57.6555 14.9701 58.0359 15.0744 58.4982 15.0744Z" fill="#111827"/>
<path d="M63.8601 8.91351V7.09102H72.1073V8.91351H69.0576V16.5164H66.9099V8.91351H63.8601Z" fill="#111827"/>
<path d="M77.549 19.7196V3.94922H79.7765V19.7196H77.549ZM77.549 16.7005C76.8577 16.7005 76.2256 16.5839 75.6529 16.3507C75.0802 16.1176 74.5852 15.7862 74.1679 15.3567C73.7547 14.9271 73.4336 14.4158 73.2045 13.8226C72.9795 13.2253 72.867 12.5646 72.867 11.8405C72.867 11.1165 72.9795 10.4558 73.2045 9.8585C73.4336 9.26123 73.7547 8.74783 74.1679 8.31829C74.5852 7.88465 75.0802 7.55124 75.6529 7.31806C76.2256 7.08488 76.8577 6.96829 77.549 6.96829H78.0215V16.7005H77.549ZM77.549 14.9087H77.8252V8.7601H77.549C77.1563 8.7601 76.8086 8.84192 76.5059 9.00555C76.2072 9.1651 75.9556 9.38805 75.7511 9.67441C75.5506 9.95669 75.3972 10.284 75.2909 10.6562C75.1886 11.0244 75.1375 11.4192 75.1375 11.8405C75.1375 12.401 75.2295 12.9144 75.4136 13.3808C75.5977 13.843 75.8677 14.2133 76.2236 14.4914C76.5836 14.7696 77.0254 14.9087 77.549 14.9087ZM79.7765 16.7005H79.304V6.96829H79.7765C80.4679 6.96829 81.0999 7.08488 81.6727 7.31806C82.2454 7.55124 82.7383 7.88465 83.1515 8.31829C83.5688 8.74783 83.8899 9.26123 84.1149 9.8585C84.344 10.4558 84.4585 11.1165 84.4585 11.8405C84.4585 12.5646 84.344 13.2253 84.1149 13.8226C83.8899 14.4158 83.5688 14.9271 83.1515 15.3567C82.7383 15.7862 82.2454 16.1176 81.6727 16.3507C81.0999 16.5839 80.4679 16.7005 79.7765 16.7005ZM79.7765 14.9087C80.1733 14.9087 80.5211 14.8289 80.8197 14.6694C81.1183 14.5098 81.3679 14.2889 81.5683 14.0067C81.7729 13.7244 81.9263 13.3992 82.0286 13.031C82.1308 12.6587 82.182 12.2619 82.182 11.8405C82.182 11.2801 82.092 10.7667 81.912 10.3003C81.732 9.83396 81.462 9.46169 81.102 9.18351C80.7461 8.90124 80.3043 8.7601 79.7765 8.7601H79.5004V14.9087H79.7765Z" fill="#111827"/>
<path d="M90.2285 16.7005C89.3081 16.7005 88.5104 16.498 87.8354 16.093C87.1604 15.688 86.6367 15.1214 86.2645 14.3933C85.8963 13.6651 85.7122 12.8142 85.7122 11.8405C85.7122 10.8669 85.8963 10.014 86.2645 9.28169C86.6367 8.54942 87.1604 7.98079 87.8354 7.57579C88.5104 7.17079 89.3081 6.96829 90.2285 6.96829C91.149 6.96829 91.9467 7.17079 92.6217 7.57579C93.2967 7.98079 93.8183 8.54942 94.1865 9.28169C94.5587 10.014 94.7449 10.8669 94.7449 11.8405C94.7449 12.8142 94.5587 13.6651 94.1865 14.3933C93.8183 15.1214 93.2967 15.688 92.6217 16.093C91.9467 16.498 91.149 16.7005 90.2285 16.7005ZM90.2408 14.921C90.7399 14.921 91.1572 14.7839 91.4926 14.5098C91.8281 14.2317 92.0776 13.8594 92.2413 13.393C92.409 12.9267 92.4928 12.4071 92.4928 11.8344C92.4928 11.2576 92.409 10.736 92.2413 10.2696C92.0776 9.79919 91.8281 9.42487 91.4926 9.14669C91.1572 8.86851 90.7399 8.72942 90.2408 8.72942C89.7295 8.72942 89.304 8.86851 88.9645 9.14669C88.629 9.42487 88.3774 9.79919 88.2097 10.2696C88.0461 10.736 87.9642 11.2576 87.9642 11.8344C87.9642 12.4071 88.0461 12.9267 88.2097 13.393C88.3774 13.8594 88.629 14.2317 88.9645 14.5098C89.304 14.7839 89.7295 14.921 90.2408 14.921Z" fill="#111827"/>
<path d="M96.4143 20.0509V7.09102H98.5988V8.64965H98.7277C98.8422 8.42056 99.0038 8.17715 99.2124 7.91942C99.4211 7.65761 99.7033 7.43465 100.059 7.25056C100.415 7.06238 100.869 6.96829 101.422 6.96829C102.15 6.96829 102.806 7.15443 103.391 7.5267C103.98 7.89488 104.447 8.44101 104.79 9.1651C105.138 9.88509 105.312 10.7687 105.312 11.816C105.312 12.851 105.142 13.7305 104.803 14.4546C104.463 15.1787 104.001 15.731 103.416 16.1114C102.831 16.4919 102.168 16.6821 101.428 16.6821C100.888 16.6821 100.44 16.5921 100.084 16.4121C99.7279 16.2321 99.4415 16.0153 99.2247 15.7617C99.012 15.5039 98.8463 15.2605 98.7277 15.0314H98.6356V20.0509H96.4143ZM98.5927 11.8037C98.5927 12.4133 98.6786 12.9471 98.8504 13.4053C99.0263 13.8635 99.2779 14.2214 99.6052 14.4792C99.9365 14.7328 100.337 14.8596 100.808 14.8596C101.299 14.8596 101.71 14.7287 102.041 14.4669C102.373 14.201 102.622 13.8389 102.79 13.3808C102.962 12.9185 103.048 12.3928 103.048 11.8037C103.048 11.2187 102.964 10.6992 102.796 10.2451C102.628 9.791 102.379 9.4351 102.047 9.17737C101.716 8.91965 101.303 8.79078 100.808 8.79078C100.333 8.79078 99.9304 8.91555 99.599 9.1651C99.2677 9.41464 99.0161 9.76441 98.8443 10.2144C98.6765 10.6644 98.5927 11.1942 98.5927 11.8037Z" fill="#111827"/>
<path d="M112.423 13.933L115.221 7.09102H117.013L113.202 16.5164H111.65L107.925 7.09102H109.698L112.423 13.933ZM109.14 7.09102V16.5164H106.998V7.09102H109.14ZM115.798 16.5164V7.09102H117.921V16.5164H115.798Z" fill="#111827"/>
<path d="M122.657 16.7066C122.06 16.7066 121.522 16.6003 121.043 16.3876C120.568 16.1707 120.192 15.8517 119.914 15.4303C119.64 15.0089 119.503 14.4894 119.503 13.8717C119.503 13.3398 119.601 12.9001 119.797 12.5524C119.994 12.2046 120.262 11.9264 120.601 11.7178C120.941 11.5092 121.323 11.3517 121.749 11.2453C122.178 11.1349 122.622 11.0551 123.08 11.006C123.633 10.9487 124.081 10.8976 124.424 10.8526C124.768 10.8035 125.017 10.7299 125.173 10.6317C125.332 10.5294 125.412 10.3719 125.412 10.1592V10.1224C125.412 9.6601 125.275 9.30214 125.001 9.04851C124.727 8.79487 124.332 8.66806 123.817 8.66806C123.273 8.66806 122.841 8.78669 122.522 9.02396C122.207 9.26123 121.994 9.54146 121.884 9.86464L119.81 9.5701C119.973 8.99737 120.243 8.51874 120.62 8.1342C120.996 7.74556 121.456 7.45511 122 7.26284C122.544 7.06647 123.146 6.96829 123.804 6.96829C124.258 6.96829 124.711 7.02147 125.161 7.12784C125.611 7.2342 126.022 7.41011 126.394 7.65556C126.766 7.89692 127.065 8.22624 127.29 8.64351C127.519 9.06078 127.633 9.58237 127.633 10.2083V16.5164H125.498V15.2217H125.424C125.289 15.4835 125.099 15.7289 124.854 15.958C124.612 16.183 124.308 16.3651 123.939 16.5042C123.575 16.6391 123.148 16.7066 122.657 16.7066ZM123.234 15.0744C123.68 15.0744 124.066 14.9864 124.393 14.8105C124.721 14.6305 124.972 14.3933 125.148 14.0987C125.328 13.8042 125.418 13.483 125.418 13.1353V12.0246C125.349 12.0819 125.23 12.1351 125.062 12.1842C124.899 12.2333 124.715 12.2762 124.51 12.313C124.306 12.3499 124.103 12.3826 123.903 12.4112C123.702 12.4399 123.528 12.4644 123.381 12.4849C123.05 12.5299 122.753 12.6035 122.491 12.7058C122.229 12.808 122.023 12.9512 121.871 13.1353C121.72 13.3153 121.644 13.5485 121.644 13.8348C121.644 14.2439 121.794 14.5528 122.092 14.7614C122.391 14.9701 122.771 15.0744 123.234 15.0744Z" fill="#111827"/>
</svg>
