<svg width="86" height="86" viewBox="0 0 86 86" fill="none" xmlns="http://www.w3.org/2000/svg">
<g filter="url(#filter0_d_4496_35187)">
<rect x="15" y="10" width="56" height="56" rx="28" fill="#F97316"/>
<path d="M46.25 29C46.6642 29 47 29.3358 47 29.75V33H48.75C50.5449 33 52 34.4551 52 36.25V42.75C52 44.5449 50.5449 46 48.75 46H37.25C35.4551 46 34 44.5449 34 42.75V36.25C34 34.4551 35.4551 33 37.25 33H39V29.75C39 29.3703 39.2822 29.0565 39.6482 29.0068L39.75 29H46.25ZM45.5 30.5H40.5V33H45.5V30.5Z" fill="white"/>
</g>
<defs>
<filter id="filter0_d_4496_35187" x="0" y="0" width="86" height="86" filterUnits="userSpaceOnUse" color-interpolation-filters="sRGB">
<feFlood flood-opacity="0" result="BackgroundImageFix"/>
<feColorMatrix in="SourceAlpha" type="matrix" values="0 0 0 0 0 0 0 0 0 0 0 0 0 0 0 0 0 0 127 0" result="hardAlpha"/>
<feOffset dy="5"/>
<feGaussianBlur stdDeviation="7.5"/>
<feComposite in2="hardAlpha" operator="out"/>
<feColorMatrix type="matrix" values="0 0 0 0 0 0 0 0 0 0 0 0 0 0 0 0 0 0 0.1 0"/>
<feBlend mode="normal" in2="BackgroundImageFix" result="effect1_dropShadow_4496_35187"/>
<feBlend mode="normal" in="SourceGraphic" in2="effect1_dropShadow_4496_35187" result="shape"/>
</filter>
</defs>
</svg>
