<svg width="86" height="228" viewBox="0 0 86 228" fill="none" xmlns="http://www.w3.org/2000/svg">
<rect width="1" height="152" transform="translate(42.5)" fill="url(#paint0_linear_4167_36648)"/>
<g filter="url(#filter0_d_4167_36648)">
<rect x="15" y="152" width="56" height="56" rx="28" fill="#F97316"/>
<path d="M46.25 171C46.6642 171 47 171.336 47 171.75V175H48.75C50.5449 175 52 176.455 52 178.25V184.75C52 186.545 50.5449 188 48.75 188H37.25C35.4551 188 34 186.545 34 184.75V178.25C34 176.455 35.4551 175 37.25 175H39V171.75C39 171.37 39.2822 171.057 39.6482 171.007L39.75 171H46.25ZM45.5 172.5H40.5V175H45.5V172.5Z" fill="white"/>
</g>
<defs>
<filter id="filter0_d_4167_36648" x="0" y="142" width="86" height="86" filterUnits="userSpaceOnUse" color-interpolation-filters="sRGB">
<feFlood flood-opacity="0" result="BackgroundImageFix"/>
<feColorMatrix in="SourceAlpha" type="matrix" values="0 0 0 0 0 0 0 0 0 0 0 0 0 0 0 0 0 0 127 0" result="hardAlpha"/>
<feOffset dy="5"/>
<feGaussianBlur stdDeviation="7.5"/>
<feComposite in2="hardAlpha" operator="out"/>
<feColorMatrix type="matrix" values="0 0 0 0 0 0 0 0 0 0 0 0 0 0 0 0 0 0 0.1 0"/>
<feBlend mode="normal" in2="BackgroundImageFix" result="effect1_dropShadow_4167_36648"/>
<feBlend mode="normal" in="SourceGraphic" in2="effect1_dropShadow_4167_36648" result="shape"/>
</filter>
<linearGradient id="paint0_linear_4167_36648" x1="0.5" y1="148.565" x2="0.500077" y2="2.60556e-07" gradientUnits="userSpaceOnUse">
<stop stop-color="#F97316"/>
<stop offset="1" stop-color="#F97316" stop-opacity="0"/>
</linearGradient>
</defs>
</svg>
