<svg width="56" height="136" viewBox="0 0 56 136" fill="none" xmlns="http://www.w3.org/2000/svg">
<rect width="1" height="80" transform="translate(27.5)" fill="url(#paint0_linear_4496_35169)"/>
<rect y="80" width="56" height="56" rx="28" fill="#F97316"/>
<path d="M24.9058 112.501H28.0017L28.0017 113C28.0017 114.728 28.5926 116.072 29.3848 117.089C28.9461 117.674 28.4733 117.999 28.0016 117.999C26.8046 117.999 25.601 115.905 24.9639 112.795L24.9058 112.501ZM24.6755 111.001H28.0016L28.0015 109.5C28.0014 108.651 28.6778 108.048 29.4108 107.981C30.1841 107.911 30.8955 107.652 31.4948 107.341C31.4833 106.885 31.4601 106.437 31.4261 106H24.577L24.5438 106.489C24.5151 106.981 24.5 107.486 24.5 108C24.5 109.048 24.5625 110.055 24.6755 111.001ZM37.803 106C37.9272 106.612 37.9956 107.244 38.0025 107.891C36.6726 107.604 35.5866 106.818 35.0376 106.347C34.8301 106.169 34.586 106.054 34.3309 106.001L37.803 106ZM19.0674 112.501L23.373 112.501C23.7378 114.583 24.356 116.355 25.1652 117.594C22.6023 116.837 20.4687 115.083 19.2137 112.78L19.0674 112.501ZM18.2001 106L23.0701 106.001C23.0238 106.651 23 107.319 23 108C23 108.83 23.0353 109.64 23.1033 110.421L23.1605 111.001H18.4578C18.1604 110.054 18 109.046 18 108C18 107.315 18.0689 106.647 18.2001 106ZM30.9458 98.5771L30.8379 98.4068C33.8562 99.2978 36.2803 101.574 37.3735 104.5L32.7826 104.5C32.4671 102.084 31.8261 100.008 30.9458 98.5771ZM25.0433 98.4437L25.1651 98.4069C24.2843 99.7564 23.6297 101.736 23.2821 104.061L23.2205 104.5L18.6296 104.5C19.7081 101.614 22.0817 99.3594 25.0433 98.4437ZM28.0016 98.002C29.3203 98.002 30.6471 100.544 31.2155 104.185L31.2624 104.5H24.7407C25.2801 100.691 26.6451 98.002 28.0016 98.002ZM38.5018 108.977C36.595 108.805 35.0677 107.69 34.3866 107.106C34.1697 106.92 33.8336 106.92 33.6167 107.106C32.9354 107.69 31.4076 108.805 29.501 108.977C29.226 109.002 29.0015 109.224 29.0015 109.5L29.0017 113C29.0017 117.222 33.0952 118.716 33.8744 118.962C33.9577 118.988 34.0456 118.988 34.1289 118.962C34.9081 118.716 39.0013 117.222 39.0013 113L39.0013 109.5C39.0014 109.224 38.7768 109.002 38.5018 108.977Z" fill="white"/>
<defs>
<linearGradient id="paint0_linear_4496_35169" x1="0.5" y1="78.1921" x2="0.500021" y2="1.3712e-07" gradientUnits="userSpaceOnUse">
<stop stop-color="#F97316"/>
<stop offset="1" stop-color="#F97316" stop-opacity="0"/>
</linearGradient>
</defs>
</svg>